<svg width="32" height="32" viewBox="0 0 32 32" fill="none" xmlns="http://www.w3.org/2000/svg">
<path d="M16.0769 2.33203H16.0769H15.9244H15.9244C13.0035 2.33201 10.7092 2.332 8.91802 2.57282C7.08247 2.81961 5.62613 3.33565 4.48187 4.47992C3.3376 5.62418 2.82156 7.08052 2.57478 8.91606C2.33395 10.7073 2.33397 13.0015 2.33398 15.9225V15.9225V16.0749V16.0749C2.33397 18.9959 2.33395 21.2901 2.57478 23.0813C2.82156 24.9169 3.3376 26.3732 4.48187 27.5175C5.62613 28.6617 7.08247 29.1778 8.91802 29.4246C10.7092 29.6654 13.0035 29.6654 15.9244 29.6654H16.0769C18.9978 29.6654 21.2921 29.6654 23.0833 29.4246C24.9188 29.1778 26.3752 28.6617 27.5194 27.5175C28.6637 26.3732 29.1797 24.9169 29.4265 23.0813C29.6673 21.2901 29.6673 18.9959 29.6673 16.075V15.9225C29.6673 13.0015 29.6673 10.7073 29.4265 8.91606C29.1797 7.08052 28.6637 5.62418 27.5194 4.47992C26.3752 3.33565 24.9188 2.81961 23.0833 2.57282C21.2921 2.332 18.9978 2.33201 16.0769 2.33203Z" fill="#E6F4F6"/>
<path d="M29.9174 4.86988C30.1735 5.56027 29.8215 6.3276 29.1311 6.58376C27.729 7.10401 26.2264 8.18654 24.7257 9.62059C23.2387 11.0415 21.8272 12.7359 20.5984 14.3814C19.3723 16.0235 18.3448 17.5944 17.6235 18.7559C17.2374 19.3777 16.8567 20.0036 16.5017 20.6439C16.2688 21.0658 15.8258 21.3301 15.3439 21.3337C14.8619 21.3372 14.4155 21.0804 14.1763 20.6619C12.9107 18.447 11.8651 17.4497 11.236 17.0093C10.8496 16.7389 10.6221 16.6762 10.5687 16.6634C9.87838 16.613 9.33398 16.0369 9.33398 15.3337C9.33398 14.5973 9.93094 14.0004 10.6673 14.0004C11.4223 14.0056 12.1642 14.404 12.7653 14.8247C13.4985 15.338 14.3567 16.1558 15.2915 17.4566C16.0436 16.2403 17.1395 14.5567 18.4617 12.7859C19.7428 11.0704 21.2528 9.25087 22.8834 7.69264C24.5004 6.14752 26.3116 4.7856 28.2035 4.08363C28.8939 3.82748 29.6612 4.17949 29.9174 4.86988Z" fill="#0094A1"/>
</svg>
