<svg width="18" height="18" viewBox="0 0 18 18" fill="none" xmlns="http://www.w3.org/2000/svg">
<path d="M8.99971 11.3408C9.09822 11.3409 9.19577 11.3216 9.28677 11.2839C9.37777 11.2462 9.46042 11.1908 9.52996 11.1211L12.712 7.93946C12.8526 7.79882 12.9316 7.60807 12.9316 7.40918C12.9316 7.21029 12.8526 7.01954 12.712 6.87891C12.5714 6.73827 12.3806 6.65926 12.1817 6.65926C11.9828 6.65926 11.7921 6.73827 11.6514 6.87891L8.99971 9.53025L6.34798 6.87889C6.20735 6.73825 6.0166 6.65924 5.81771 6.65924C5.61882 6.65924 5.42807 6.73825 5.28743 6.87889C5.1468 7.01952 5.06779 7.21027 5.06778 7.40916C5.06778 7.60805 5.14679 7.7988 5.28743 7.93943L8.46946 11.1211C8.53901 11.1908 8.62166 11.2462 8.71266 11.2839C8.80366 11.3216 8.90121 11.3409 8.99971 11.3408Z" fill="#9CA8AF"/>
</svg>
