<svg width="102" height="32" viewBox="0 0 102 32" fill="none" xmlns="http://www.w3.org/2000/svg">
<path fill-rule="evenodd" clip-rule="evenodd" d="M10.4682 24.9983L14.1227 21.4709C13.9853 21.278 13.8455 21.1274 13.7113 20.9324C8.65337 13.5792 16.476 4.59136 24.6612 8.02979C25.8074 8.51132 26.369 8.99305 27.2767 9.72428C27.8086 10.1527 28.77 11.4894 29.1145 12.1753C30.1774 14.291 30.3203 17.0327 29.3658 19.2355C29.0955 19.8595 28.8049 20.3997 28.4187 20.9431L28.01 21.4577L31.637 25.0118C32.4594 24.4623 33.6992 22.1235 34.0969 21.2616C35.9014 17.3519 35.3575 12.4593 33.1726 8.92604L32.51 7.96096C31.9788 7.2424 31.144 6.29843 30.476 5.75459C29.9697 5.34227 29.1677 4.72346 28.6143 4.39994C28.3826 4.26458 28.1722 4.12922 27.9181 4.00394C26.2917 3.20225 25.1358 2.70257 23.0913 2.42138C20.2861 2.03566 17.7861 2.48436 15.6845 3.30103C13.668 4.08448 11.4525 5.64256 10.1368 7.29405C8.92611 8.81372 8.0925 10.1945 7.52068 12.1533C6.65203 15.1294 6.78361 18.2045 7.97001 21.0976C8.17167 21.5891 8.39663 22.1031 8.65031 22.5283C9.01682 23.1426 9.96187 24.6687 10.4682 24.9984V24.9983Z" fill="#0093A0"/>
<path fill-rule="evenodd" clip-rule="evenodd" d="M10.9784 25.5483C11.1224 25.7639 12.1664 26.7478 12.4541 26.8226C12.8581 26.5594 20.5914 18.7582 21.0595 18.4534C21.9367 19.195 24.3769 21.6528 25.376 22.6246C25.7035 22.9431 29.4653 26.6568 29.7201 26.8227C30.0612 26.6004 30.9386 25.8484 31.1544 25.5351L21.0732 15.7578L10.9784 25.5484V25.5483Z" fill="#82C75B"/>
<path fill-rule="evenodd" clip-rule="evenodd" d="M15.3778 28.5932C15.6057 28.6447 15.7815 28.7295 15.984 28.8083C16.1765 28.8832 16.4043 28.9526 16.5984 29.0155C17.9323 29.4477 19.3015 29.6825 20.6738 29.7197H21.4498C22.8205 29.6825 24.1881 29.448 25.5208 29.0155L26.7413 28.5932C26.668 28.3262 24.1933 26.0346 23.9418 25.79C23.5205 25.3803 21.3185 23.1823 21.0596 23.0137C20.7868 23.1913 16.732 27.1955 16.0535 27.8554C15.8588 28.0448 15.4473 28.3395 15.3777 28.5931L15.3778 28.5932Z" fill="#60A13B"/>
<path fill-rule="evenodd" clip-rule="evenodd" d="M13.0058 27.3052C13.1989 27.3553 14.4458 28.2172 14.6606 28.2172C14.8595 28.2172 17.6827 25.3585 17.8738 25.1726C18.4113 24.6499 18.9084 24.1665 19.446 23.6437L21.0595 22.1012L27.3896 28.2304C27.6677 28.1572 28.0612 27.9142 28.2827 27.785L29.1131 27.3052C29.0461 27.0609 27.3547 25.5146 27.1411 25.3068C26.6441 24.8234 23.8009 22.118 23.3845 21.6105C23.2949 21.5011 23.2191 21.4381 23.1143 21.3368C22.4414 20.6861 21.7577 19.9554 21.0595 19.3652C20.7894 19.5411 14.3768 25.8378 13.4608 26.7284C13.2901 26.8945 13.0297 27.0252 13.0057 27.3052H13.0058Z" fill="#71BE44"/>
<path d="M51.21 28.1937H47.5797V26.0762C46.9747 26.9009 46.2554 27.5173 45.4311 27.9342C44.6069 28.3466 43.7732 28.555 42.9348 28.555C41.2244 28.555 39.7618 27.8878 38.5422 26.5488C37.3274 25.2098 36.7175 23.3472 36.7175 20.9518C36.7175 18.5054 37.3083 16.6428 38.4946 15.3687C39.6808 14.0946 41.1767 13.4598 42.9872 13.4598C44.6451 13.4598 46.0838 14.1316 47.294 15.4706V8.28906H51.21V28.1938V28.1937ZM40.748 20.7015C40.748 22.2445 40.9672 23.3611 41.4008 24.0515C42.0344 25.0523 42.9158 25.5526 44.0496 25.5526C44.95 25.5526 45.7171 25.1773 46.3459 24.4267C46.9795 23.6761 47.294 22.5595 47.294 21.0676C47.294 19.4042 46.9891 18.2088 46.3745 17.4768C45.7599 16.7447 44.9786 16.3787 44.0211 16.3787C43.0921 16.3787 42.3156 16.7401 41.6867 17.4629C41.0626 18.1858 40.7481 19.2653 40.7481 20.7015H40.748Z" fill="white"/>
<path d="M53.5831 28.1944V14.3223H57.8422L57.8707 28.1944H53.5831Z" fill="white"/>
<path d="M65.3685 28.7506C63.6915 28.7506 62.4434 28.3661 61.624 27.5969C60.8046 26.8278 60.3948 25.7389 60.3948 24.3304V17.2971V14.1279V10.2637H64.854V14.1279H68.0269V17.2971H64.854V23.8022C64.854 24.2841 64.9588 24.6408 65.1684 24.8725C65.3781 25.1042 65.7306 25.2201 66.2261 25.2201C66.512 25.2201 66.8264 25.1645 67.1694 25.0533C67.5124 24.9421 67.7983 24.8031 68.0269 24.6363V28.1947C67.6267 28.3986 67.1932 28.5422 66.7263 28.6257C66.2594 28.7091 65.8068 28.7507 65.3685 28.7507V28.7506Z" fill="white"/>
<path d="M69.171 20.8027C69.171 19.5332 69.4901 18.3053 70.1333 17.1193C70.7765 15.9285 71.6864 15.025 72.8632 14.3995C74.0399 13.774 75.35 13.459 76.8031 13.459C79.047 13.459 80.8812 14.1678 82.3152 15.5857C83.7492 17.0081 84.4638 18.7966 84.4638 20.9649C84.4638 23.1518 83.7396 24.9635 82.2961 26.3998C80.8478 27.836 79.0279 28.5543 76.8316 28.5543C75.4738 28.5543 74.178 28.2531 72.9441 27.6554C71.715 27.0577 70.7765 26.182 70.1333 25.0238C69.4901 23.8701 69.171 22.4616 69.171 20.8028V20.8027ZM73.2014 21.0066C73.2014 22.4382 73.5492 23.5364 74.2447 24.2962C74.9451 25.0608 75.8026 25.4406 76.8269 25.4406C77.8464 25.4406 78.704 25.0608 79.3947 24.2962C80.0855 23.5364 80.4333 22.429 80.4333 20.9787C80.4333 19.5656 80.0855 18.4767 79.3947 17.7169C78.704 16.9524 77.8465 16.5724 76.8269 16.5724C75.8026 16.5724 74.945 16.9524 74.2447 17.7169C73.5492 18.4767 73.2014 19.5748 73.2014 21.0065V21.0066Z" fill="white"/>
<path d="M89.3522 28.1928H85.4361V13.7647H89.0663V15.8126C89.6904 14.8443 90.2526 14.2095 90.7528 13.9084C91.253 13.6072 91.8199 13.459 92.4536 13.459C93.3493 13.459 94.2115 13.6999 95.0405 14.1772L93.8256 17.5039C93.1634 17.0869 92.5488 16.8784 91.9819 16.8784C91.4293 16.8784 90.9625 17.0266 90.5812 17.3186C90.2001 17.6151 89.9 18.1433 89.6808 18.9124C89.4617 19.6816 89.3521 21.294 89.3521 23.745V28.1929L89.3522 28.1928Z" fill="white"/>
<path d="M55.7179 8.5332C56.8969 8.5332 57.8527 9.46277 57.8527 10.6094C57.8527 11.756 56.8969 12.6857 55.7179 12.6857C54.5389 12.6857 53.5831 11.7561 53.5831 10.6094C53.5831 9.46277 54.5389 8.5332 55.7179 8.5332Z" fill="#71BE44"/>
</svg>
