<svg width="24" height="25" viewBox="0 0 24 25" fill="none" xmlns="http://www.w3.org/2000/svg">
<path fill-rule="evenodd" clip-rule="evenodd" d="M16.0604 11.4399C16.3413 11.7212 16.4991 12.1024 16.4991 12.4999C16.4991 12.8974 16.3413 13.2787 16.0604 13.5599L10.4044 19.2179C10.123 19.4992 9.74138 19.6571 9.34352 19.657C8.94567 19.6569 8.56414 19.4988 8.28288 19.2174C8.00162 18.936 7.84366 18.5544 7.84375 18.1566C7.84384 17.7587 8.00198 17.3772 8.28338 17.0959L12.8794 12.4999L8.28338 7.90391C8.01 7.62114 7.85863 7.2423 7.86186 6.84901C7.86509 6.45571 8.02267 6.07941 8.30065 5.80117C8.57863 5.52292 8.95478 5.36499 9.34807 5.36139C9.74137 5.35779 10.1203 5.5088 10.4034 5.78191L16.0614 11.4389L16.0604 11.4399Z" fill="#0094A1"/>
</svg>
