<svg width="24" height="24" viewBox="0 0 24 24" fill="none" xmlns="http://www.w3.org/2000/svg">
<path fill-rule="evenodd" clip-rule="evenodd" d="M9.24199 17.6247C9.24199 17.6382 9.24235 18.3617 9.24307 18.7462H14.758C14.7585 18.3664 14.7587 17.6357 14.7587 17.6247C14.7587 13.2323 17.5964 14.7984 17.5964 10.4593C17.5964 7.36872 15.0909 4.86328 12.0003 4.86328C8.90974 4.86328 6.4043 7.36872 6.4043 10.4593C6.4043 14.7984 9.24199 13.2323 9.24199 17.6247ZM15.6455 9.82955C15.6455 10.0076 15.7899 10.152 15.9679 10.152C16.146 10.152 16.2903 10.0076 16.2903 9.82955C16.2903 8.78791 15.8681 7.84484 15.1855 7.1622C14.5028 6.47956 13.5598 6.05732 12.5181 6.05732C12.3401 6.05732 12.1957 6.20167 12.1957 6.37974C12.1957 6.55781 12.3401 6.70216 12.5181 6.70216C13.3817 6.70216 14.1636 7.05221 14.7295 7.61812C15.2955 8.18405 15.6455 8.96593 15.6455 9.82955Z" fill="#EA4336"/>
<path d="M9.47258 19.0702C9.29451 19.0702 9.15016 19.2146 9.15016 19.3927C9.15016 19.5707 9.29451 19.7151 9.47258 19.7151H14.4668C14.6448 19.7151 14.7892 19.5707 14.7892 19.3927C14.7892 19.2146 14.6448 19.0702 14.4668 19.0702H9.47258ZM3.32439 9.86025C3.14632 9.86025 3.00195 10.0046 3.00195 10.1827C3.00195 10.3607 3.14632 10.5051 3.32439 10.5051H4.76273C4.9408 10.5051 5.08515 10.3607 5.08515 10.1827C5.08515 10.0046 4.9408 9.86025 4.76273 9.86025H3.32439ZM4.75767 5.59518C4.60395 5.50616 4.40714 5.55859 4.31812 5.71231C4.22909 5.86605 4.28153 6.06285 4.43525 6.15188L5.68087 6.87104C5.83459 6.96007 6.03139 6.90763 6.12044 6.75391C6.20946 6.60019 6.15703 6.40339 6.00329 6.31435L4.75767 5.59518ZM8.13097 2.6165C8.04195 2.46276 7.84515 2.41032 7.69143 2.49935C7.53769 2.58839 7.48526 2.7852 7.57428 2.93891L8.29346 4.18454C8.38249 4.33826 8.57929 4.39069 8.73301 4.30167C8.88673 4.21264 8.93918 4.01584 8.85014 3.86212L8.13097 2.6165ZM12.5429 1.72476C12.5429 1.54671 12.3985 1.40234 12.2205 1.40234C12.0424 1.40234 11.8981 1.54671 11.8981 1.72476V3.16311C11.8981 3.34116 12.0424 3.48552 12.2205 3.48552C12.3985 3.48552 12.5429 3.34116 12.5429 3.16311V1.72476ZM16.808 3.15806C16.897 3.00434 16.8446 2.80753 16.6908 2.71849C16.5371 2.62947 16.3403 2.6819 16.2513 2.83564L15.5321 4.08125C15.4431 4.23497 15.4955 4.43177 15.6493 4.52079C15.803 4.60982 15.9998 4.55738 16.0888 4.40367L16.808 3.15806ZM19.7866 6.53132C19.9403 6.44228 19.9928 6.24548 19.9037 6.09176C19.8147 5.93804 19.6179 5.88561 19.4642 5.97463L18.2185 6.69381C18.0648 6.78283 18.0124 6.97964 18.1014 7.13337C18.1904 7.28709 18.3872 7.33953 18.5409 7.2505L19.7866 6.53132ZM20.6784 10.9432C20.8564 10.9432 21.0008 10.7989 21.0008 10.6208C21.0008 10.4428 20.8564 10.2984 20.6784 10.2984H19.24C19.062 10.2984 18.9176 10.4428 18.9176 10.6208C18.9176 10.7989 19.062 10.9432 19.24 10.9432H20.6784ZM9.47258 20.6823C9.29451 20.6823 9.15016 20.538 9.15016 20.3599C9.15016 20.1819 9.29451 20.0375 9.47258 20.0375H14.4668C14.6448 20.0375 14.7892 20.1819 14.7892 20.3599C14.7892 20.538 14.6448 20.6823 14.4668 20.6823H9.47258ZM9.47258 21.0048C9.29451 21.0048 9.15016 21.1492 9.15016 21.3272C9.15016 21.5053 9.29451 21.6496 9.47258 21.6496H14.4668C14.6448 21.6496 14.7892 21.5053 14.7892 21.3272C14.7892 21.1492 14.6448 21.0048 14.4668 21.0048H9.47258Z" fill="#EA4336"/>
<path fill-rule="evenodd" clip-rule="evenodd" d="M13.412 21.9727H10.5293C10.6277 22.5548 11.2355 23.0029 11.9706 23.0029C12.7058 23.0029 13.3135 22.5548 13.412 21.9727Z" fill="#EA4336"/>
</svg>
