<svg width="24" height="24" viewBox="0 0 24 24" fill="none" xmlns="http://www.w3.org/2000/svg">
<path d="M22.0002 10H2V19C2 20.6569 3.34315 22 5 22H19.0005C20.6573 22 22.0005 20.6569 22.0005 19L22.0002 10ZM7.00024 8C6.44796 8 6.00024 7.55228 6.00024 7V3C6.00024 2.44772 6.44796 2 7.00024 2C7.55252 2 8.00024 2.44772 8.00024 3V7C8.00024 7.55228 7.55252 8 7.00024 8ZM17.0002 8C16.448 8 16.0002 7.55228 16.0002 7V3C16.0002 2.44772 16.448 2 17.0002 2C17.5525 2 18.0002 2.44772 18.0002 3V7C18.0002 7.55228 17.5525 8 17.0002 8Z" fill="#959595"/>
<path d="M19.0005 4H18.0005V7C18.0005 7.55228 17.5528 8 17.0005 8C16.4482 8 16.0005 7.55228 16.0005 7V4H8.00049V7C8.00049 7.55228 7.55277 8 7.00049 8C6.44821 8 6.00049 7.55228 6.00049 7V4H5C3.34315 4 2 5.34315 2 7V10H22.0005V7C22.0005 5.34315 20.6573 4 19.0005 4Z" fill="#666666"/>
</svg>
