<svg width="135" height="135" viewBox="0 0 135 135" fill="none" xmlns="http://www.w3.org/2000/svg">
<path d="M131.502 69.4961C131.502 84.5461 126.312 98.3761 117.632 109.296C105.902 124.036 87.812 133.496 67.5019 133.496C32.2748 133.496 3.50195 104.948 3.50195 69.4961C3.50195 34.0482 32.2839 5.49609 67.5019 5.49609C102.849 5.4961 131.502 34.1343 131.502 69.4961ZM123.409 16.6407C122.712 18.18 123.416 20.0026 124.955 20.6997C126.494 21.3968 128.307 20.7141 129.005 19.1748C129.702 17.6356 129.028 15.8016 127.489 15.1045C125.95 14.4074 124.107 15.1015 123.409 16.6407ZM118.886 10.6194C118.443 11.5991 118.891 12.7591 119.87 13.2028C120.85 13.6465 122.004 13.212 122.448 12.2323C122.891 11.2526 122.463 10.0853 121.483 9.64161C120.503 9.19792 119.33 9.63972 118.886 10.6194ZM11.7366 123.439C11.0395 124.979 11.743 126.801 13.2822 127.498C14.8214 128.195 16.6347 127.513 17.3318 125.973C18.0289 124.434 17.3555 122.6 15.8163 121.903C14.2771 121.206 12.4337 121.9 11.7366 123.439ZM11.7366 13.9586C11.0395 15.4979 11.743 17.3205 13.2822 18.0176C14.8214 18.7147 16.6347 18.032 17.3318 16.4927C18.0289 14.9535 17.3555 13.1195 15.8163 12.4224C14.2771 11.7253 12.4337 12.4194 11.7366 13.9586ZM7.21363 117.418C6.7699 118.398 7.2177 119.558 8.19735 120.001C9.177 120.445 10.3311 120.01 10.7748 119.031C11.2185 118.051 10.7899 116.884 9.81025 116.44C8.8306 115.996 7.65732 116.438 7.21363 117.418Z" fill="#D6DCE8"/>
<path d="M83.9609 41.6797C83.1328 41.6797 82.4609 41.0083 82.4609 40.1797C82.4609 39.3511 83.1328 38.6797 83.9609 38.6797C89.8408 38.6797 94.624 33.8965 94.624 28.0166V12.0195C94.624 11.1909 95.2959 10.5195 96.124 10.5195C96.9521 10.5195 97.624 11.1909 97.624 12.0195V28.0166C97.624 35.5503 91.4951 41.6797 83.9609 41.6797Z" fill="url(#paint0_linear_736_20310)"/>
<path d="M96.1191 13.5386C92.8008 13.5386 90.1016 10.8359 90.1016 7.51367C90.1016 4.1958 92.8008 1.49609 96.1191 1.49609C99.4414 1.49609 102.145 4.1958 102.145 7.51367C102.145 10.8359 99.4414 13.5386 96.1191 13.5386ZM96.1191 4.49609C94.4551 4.49609 93.1016 5.84961 93.1016 7.51367C93.1016 9.18164 94.4551 10.5386 96.1191 10.5386C97.7871 10.5386 99.1445 9.18164 99.1445 7.51367C99.1445 5.84961 97.7871 4.49609 96.1191 4.49609Z" fill="url(#paint1_linear_736_20310)"/>
<path d="M113.223 81.4539V61.4148C113.223 57.633 110.157 54.5673 106.375 54.5673H57.6329C55.3064 54.5673 53.1391 53.3861 51.8783 51.4309L49.396 47.5817C48.1352 45.6265 45.9678 44.4453 43.6414 44.4453H27.9099C24.1282 44.4453 21.0625 47.511 21.0625 51.2927V81.4539H113.223Z" fill="url(#paint2_linear_736_20310)"/>
<path d="M110.113 75.2805L103.385 39.3518C103.285 38.8178 103.129 38.3097 102.909 37.8207C102.345 36.5105 101.386 35.3879 100.151 34.6195L79.475 21.7351C78.2741 20.9829 76.8875 20.6144 75.4945 20.6554C74.4155 20.699 76.7977 20.3595 30.4243 29.0123C26.5545 29.7371 24.0099 33.4544 24.7346 37.3242L34.4947 89.4417L110.113 75.2805Z" fill="url(#paint3_linear_736_20310)"/>
<path d="M66.9529 31.8895L36.5977 37.5742L37.1456 40.5004L67.5009 34.8157L66.9529 31.8895Z" fill="#D6DCE8"/>
<path d="M55.2028 41.1296L37.873 44.375L38.421 47.3011L55.7508 44.0558L55.2028 41.1296Z" fill="#D6DCE8"/>
<path d="M102.908 37.8207L82.9178 41.5644C81.046 41.9149 79.2445 40.6817 78.894 38.8099L75.4941 20.6555C76.8872 20.6142 78.2738 20.983 79.4746 21.7348L100.151 34.6193C101.385 35.3877 102.345 36.5103 102.908 37.8207Z" fill="url(#paint4_linear_736_20310)"/>
<path d="M56.351 61.4832C57.273 66.4061 54.0321 71.1405 49.1093 72.0624C44.1953 72.9827 39.4609 69.7418 38.539 64.8189C37.6188 59.9051 40.8596 55.1707 45.7736 54.2504C50.6964 53.3285 55.4308 56.5694 56.351 61.4832Z" fill="url(#paint5_linear_736_20310)"/>
<path d="M51.7053 65.6836C51.3605 63.8816 49.3322 62.3176 47.2956 62.7406C45.3125 63.1525 44.019 65.0728 44.3923 67.066C44.3931 67.0703 44.3939 67.0746 44.3947 67.0789C44.5244 67.7559 45.2137 68.1757 45.8913 68.0489L50.6627 67.1553C51.3503 67.0265 51.8368 66.3706 51.7053 65.6836ZM48.8978 59.4637C49.1124 60.6096 48.3547 61.704 47.2092 61.9186C46.0735 62.1312 44.9711 61.3852 44.7565 60.2393C44.542 59.0939 45.2997 57.9994 46.4354 57.7868C47.5809 57.5722 48.6833 58.3183 48.8978 59.4637Z" fill="#D6DCE8"/>
<path d="M96.4285 48.4319L61.0741 55.0527L61.4017 56.8023L96.7561 50.1815L96.4285 48.4319Z" fill="#D6DCE8"/>
<path d="M97.2703 52.9182L61.9159 59.5391L62.2435 61.2886L97.5979 54.6678L97.2703 52.9182Z" fill="#D6DCE8"/>
<path d="M87.1949 59.4506L62.7557 64.0273L63.0834 65.7769L87.5225 61.2002L87.1949 59.4506Z" fill="#D6DCE8"/>
<path d="M123.915 81.3931L115.141 117.635C114.015 122.284 109.853 125.559 105.069 125.559H29.2157C24.4318 125.559 20.2697 122.284 19.1441 117.635L10.3706 81.3931C8.90333 75.3322 13.4952 69.4961 19.7312 69.4961H114.554C120.79 69.4961 125.382 75.3322 123.915 81.3931Z" fill="url(#paint6_linear_736_20310)"/>
<path d="M69.46 111.785C68.1534 110.497 66.1192 110.485 64.8262 111.758C64.2364 112.34 63.2881 112.334 62.7051 111.743C62.1241 111.154 62.1299 110.204 62.7207 109.622C65.1514 107.225 69.1211 107.236 71.5655 109.649C72.1553 110.231 72.1621 111.181 71.5811 111.77C70.9984 112.36 70.0492 112.367 69.46 111.785Z" fill="#A3AABC"/>
<path d="M86.1614 99.6578C86.1614 102.012 84.2521 103.921 81.8981 103.921C79.544 103.921 77.6348 102.012 77.6348 99.6578C77.6348 97.3038 79.544 95.3945 81.8981 95.3945C84.2521 95.3945 86.1614 97.3038 86.1614 99.6578Z" fill="url(#paint7_linear_736_20310)"/>
<path d="M89.4692 92.0923L79.6381 88.2861C78.8656 87.9868 78.4819 87.1182 78.7817 86.3457C79.0805 85.5723 79.9486 85.1894 80.7221 85.4883L90.5531 89.2944C91.3256 89.5937 91.7094 90.4624 91.4096 91.2349C91.1137 92.0016 90.2497 92.393 89.4692 92.0923Z" fill="#A3AABC"/>
<path d="M81.897 102.614C82.5757 102.614 83.126 102.064 83.126 101.385C83.126 100.706 82.5757 100.156 81.897 100.156C81.2182 100.156 80.668 100.706 80.668 101.385C80.668 102.064 81.2182 102.614 81.897 102.614Z" fill="white"/>
<path d="M48.127 99.6559C48.127 102.01 50.0362 103.919 52.3902 103.919C54.7443 103.919 56.6535 102.01 56.6535 99.6559C56.6535 97.3018 54.7443 95.3926 52.3902 95.3926C50.0362 95.3926 48.127 97.3018 48.127 99.6559Z" fill="url(#paint8_linear_736_20310)"/>
<path d="M42.8793 91.2344C42.5795 90.4619 42.9633 89.5933 43.7358 89.294L53.5678 85.4878C54.3422 85.19 55.2104 85.5723 55.5082 86.3452C55.808 87.1177 55.4242 87.9864 54.6518 88.2857L44.8197 92.0918C44.0415 92.3916 43.1763 92.0039 42.8793 91.2344Z" fill="#A3AABC"/>
<path d="M52.3911 102.612C53.0699 102.612 53.6201 102.062 53.6201 101.383C53.6201 100.705 53.0699 100.154 52.3911 100.154C51.7124 100.154 51.1621 100.705 51.1621 101.383C51.1621 102.062 51.7124 102.612 52.3911 102.612Z" fill="white"/>
<path d="M79.7559 40.1816C79.7559 43.0303 82.0665 45.3498 84.9239 45.3498C87.7726 45.3498 90.0832 43.0303 90.0832 40.1816C90.0832 37.3242 87.7726 35.0137 84.9239 35.0137C82.0665 35.0137 79.7559 37.3242 79.7559 40.1816Z" fill="#E0E4ED"/>
<path d="M80.1973 38.0916C83.3777 34.7324 89.0959 36.992 89.0959 41.6545C89.0959 42.4041 88.9372 43.1185 88.6461 43.7535C91.7672 40.4762 89.4791 35.0137 84.9244 35.0137C82.8078 35.0137 80.991 36.2836 80.1973 38.0916Z" fill="url(#paint9_linear_736_20310)"/>
<path d="M88.3018 41.6807C80.7676 41.6807 74.6387 35.5513 74.6387 28.0176C74.6387 27.189 75.3105 26.5176 76.1387 26.5176C76.9668 26.5176 77.6387 27.189 77.6387 28.0176C77.6387 33.8975 82.4219 38.6807 88.3018 38.6807C89.1299 38.6807 89.8018 39.3521 89.8018 40.1807C89.8018 41.0093 89.1299 41.6807 88.3018 41.6807Z" fill="url(#paint10_linear_736_20310)"/>
<path d="M74.623 21.5917V28.2799C74.623 29.0291 75.236 29.6421 75.9852 29.6421H79.9287C80.4191 29.6421 80.8686 29.3833 81.1138 28.9542C81.3522 28.5319 81.3522 28.0075 81.1002 27.5852L77.1567 20.897C76.8502 20.3725 76.2168 20.1137 75.6243 20.2772C75.0317 20.4406 74.623 20.9786 74.623 21.5917Z" fill="url(#paint11_linear_736_20310)"/>
<defs>
<linearGradient id="paint0_linear_736_20310" x1="97.6238" y1="26.0997" x2="82.4608" y2="26.0997" gradientUnits="userSpaceOnUse">
<stop stop-color="#989FB0"/>
<stop offset="1" stop-color="#AAB2C5"/>
</linearGradient>
<linearGradient id="paint1_linear_736_20310" x1="102.145" y1="7.5177" x2="90.1018" y2="7.5177" gradientUnits="userSpaceOnUse">
<stop stop-color="#989FB0"/>
<stop offset="1" stop-color="#AAB2C5"/>
</linearGradient>
<linearGradient id="paint2_linear_736_20310" x1="66.9615" y1="58.8028" x2="67.2815" y2="81.0878" gradientUnits="userSpaceOnUse">
<stop stop-color="#989FB0"/>
<stop offset="1" stop-color="#AAB2C5"/>
</linearGradient>
<linearGradient id="paint3_linear_736_20310" x1="28.9611" y1="59.88" x2="104.58" y2="45.7188" gradientUnits="userSpaceOnUse">
<stop stop-color="#D6DCE8"/>
<stop offset="1" stop-color="white"/>
</linearGradient>
<linearGradient id="paint4_linear_736_20310" x1="77.5141" y1="31.4275" x2="100.894" y2="27.0491" gradientUnits="userSpaceOnUse">
<stop stop-color="#D6DCE8"/>
<stop offset="1" stop-color="white"/>
</linearGradient>
<linearGradient id="paint5_linear_736_20310" x1="38.5422" y1="64.8235" x2="56.3545" y2="61.4878" gradientUnits="userSpaceOnUse">
<stop stop-color="#989FB0"/>
<stop offset="1" stop-color="#AAB2C5"/>
</linearGradient>
<linearGradient id="paint6_linear_736_20310" x1="10.0955" y1="97.5274" x2="124.19" y2="97.5274" gradientUnits="userSpaceOnUse">
<stop stop-color="#D6DCE8"/>
<stop offset="0.503" stop-color="white"/>
</linearGradient>
<linearGradient id="paint7_linear_736_20310" x1="77.6349" y1="99.6574" x2="86.1609" y2="99.6574" gradientUnits="userSpaceOnUse">
<stop stop-color="#989FB0"/>
<stop offset="1" stop-color="#AAB2C5"/>
</linearGradient>
<linearGradient id="paint8_linear_736_20310" x1="56.6533" y1="99.6554" x2="48.1273" y2="99.6554" gradientUnits="userSpaceOnUse">
<stop stop-color="#989FB0"/>
<stop offset="1" stop-color="#AAB2C5"/>
</linearGradient>
<linearGradient id="paint9_linear_736_20310" x1="90.0833" y1="39.3831" x2="80.1973" y2="39.3831" gradientUnits="userSpaceOnUse">
<stop stop-color="#989FB0"/>
<stop offset="1" stop-color="#AAB2C5"/>
</linearGradient>
<linearGradient id="paint10_linear_736_20310" x1="89.8018" y1="34.0987" x2="74.6388" y2="34.0987" gradientUnits="userSpaceOnUse">
<stop stop-color="#989FB0"/>
<stop offset="1" stop-color="#AAB2C5"/>
</linearGradient>
<linearGradient id="paint11_linear_736_20310" x1="81.2909" y1="24.9351" x2="74.6229" y2="24.9351" gradientUnits="userSpaceOnUse">
<stop stop-color="#989FB0"/>
<stop offset="1" stop-color="#AAB2C5"/>
</linearGradient>
</defs>
</svg>
