<svg width="135" height="121" viewBox="0 0 135 121" fill="none" xmlns="http://www.w3.org/2000/svg">
<path d="M69.1388 0.263863L64.7461 1.39139L10.6276 15.2828L6.23495 16.4103C4.10281 16.9601 2.27684 18.3294 1.15766 20.2176C0.0384774 22.1058 -0.282524 24.3588 0.265078 26.4823L19.3126 100.002C19.865 102.124 21.2406 103.942 23.1376 105.056C25.0346 106.17 27.2981 106.489 29.4315 105.944L29.4428 105.941L92.324 89.8007L92.3353 89.7978C94.4674 89.2479 96.2934 87.8787 97.4126 85.9905C98.5318 84.1023 98.8528 81.8493 98.3052 79.7258L79.2576 6.2061C78.7052 4.08383 77.3296 2.26633 75.4326 1.15233C73.5356 0.0383234 71.2721 -0.281197 69.1388 0.263863Z" fill="#F2F2F2"/>
<path d="M69.7357 2.56792L64.5329 3.9034L12.0346 17.3789L6.83183 18.7144C5.31347 19.1059 4.01315 20.081 3.21615 21.4256C2.41915 22.7702 2.19056 24.3747 2.58052 25.8868L21.6281 99.4066C22.0214 100.918 23.001 102.212 24.3519 103.005C25.7028 103.799 27.3147 104.026 28.834 103.638L28.8453 103.635L91.7264 87.4946L91.7378 87.4917C93.2562 87.1001 94.5565 86.1251 95.3534 84.7804C96.1504 83.4358 96.379 81.8314 95.9891 80.3192L76.9415 6.79953C76.5481 5.28823 75.5686 3.99395 74.2177 3.20064C72.8668 2.40733 71.2549 2.17979 69.7357 2.56792Z" fill="white"/>
<path d="M65.8084 26.3761L33.9984 34.5413C33.6431 34.6325 33.266 34.5794 32.95 34.3939C32.634 34.2083 32.405 33.9054 32.3134 33.5517C32.2217 33.1981 32.275 32.8227 32.4614 32.5082C32.6479 32.1936 32.9522 31.9657 33.3075 31.8745L65.1175 23.7093C65.4727 23.6185 65.8496 23.6717 66.1653 23.8574C66.481 24.043 66.7098 24.3457 66.8014 24.6992C66.893 25.0526 66.8398 25.4278 66.6536 25.7422C66.4674 26.0567 66.1634 26.2847 65.8084 26.3761Z" fill="#F2F2F2"/>
<path d="M72.4984 29.4565L35.1625 39.0401C34.8072 39.1313 34.4301 39.0782 34.1141 38.8927C33.798 38.7071 33.569 38.4042 33.4774 38.0505C33.3858 37.6969 33.4391 37.3215 33.6255 37.007C33.8119 36.6924 34.1163 36.4645 34.4716 36.3733L71.8075 26.7897C72.1628 26.6985 72.5399 26.7515 72.8559 26.9371C73.1719 27.1227 73.4009 27.4256 73.4925 27.7793C73.5842 28.1329 73.5309 28.5083 73.3445 28.8228C73.158 29.1374 72.8537 29.3653 72.4984 29.4565Z" fill="#F2F2F2"/>
<path d="M71.0311 46.5424L39.2211 54.7076C39.0452 54.7527 38.862 54.763 38.6821 54.7377C38.5022 54.7124 38.3291 54.6521 38.1727 54.5602C38.0162 54.4683 37.8794 54.3466 37.7702 54.2021C37.661 54.0577 37.5814 53.8932 37.536 53.7181C37.4906 53.5429 37.4804 53.3607 37.5058 53.1816C37.5312 53.0026 37.5918 52.8302 37.6841 52.6745C37.7764 52.5187 37.8986 52.3826 38.0438 52.2739C38.189 52.1652 38.3542 52.086 38.5302 52.0408L70.3402 43.8757C70.5161 43.8305 70.6992 43.8203 70.8791 43.8456C71.059 43.8709 71.2321 43.9312 71.3886 44.0231C71.5451 44.1149 71.6818 44.2366 71.7911 44.3811C71.9003 44.5256 71.9799 44.6901 72.0253 44.8652C72.0706 45.0403 72.0809 45.2226 72.0555 45.4016C72.0301 45.5807 71.9695 45.753 71.8772 45.9088C71.7849 46.0645 71.6626 46.2006 71.5175 46.3094C71.3723 46.4181 71.207 46.4973 71.0311 46.5424Z" fill="#F2F2F2"/>
<path d="M77.721 49.6245L40.3851 59.208C40.2092 59.2532 40.0261 59.2634 39.8462 59.2381C39.6663 59.2128 39.4932 59.1525 39.3367 59.0606C39.1802 58.9687 39.0435 58.8471 38.9342 58.7026C38.825 58.5581 38.7454 58.3936 38.7001 58.2185C38.6547 58.0434 38.6444 57.8611 38.6698 57.682C38.6953 57.503 38.7558 57.3307 38.8482 57.1749C38.9405 57.0192 39.0627 56.8831 39.2079 56.7743C39.353 56.6656 39.5183 56.5864 39.6942 56.5412L77.0301 46.9577C77.3854 46.8665 77.7625 46.9195 78.0786 47.1051C78.3946 47.2907 78.6236 47.5936 78.7152 47.9472C78.8068 48.3009 78.7535 48.6763 78.5671 48.9908C78.3807 49.3053 78.0763 49.5333 77.721 49.6245Z" fill="#F2F2F2"/>
<path d="M76.2567 66.7104L44.4467 74.8756C44.0915 74.9665 43.7146 74.9133 43.3988 74.7277C43.083 74.5421 42.8542 74.2393 42.7626 73.8858C42.671 73.5323 42.7242 73.1571 42.9104 72.8426C43.0967 72.5282 43.4007 72.3002 43.7558 72.2088L75.5658 64.0436C75.9211 63.9524 76.2982 64.0055 76.6143 64.191C76.9303 64.3766 77.1593 64.6795 77.2509 65.0332C77.3425 65.3868 77.2892 65.7622 77.1028 66.0767C76.9164 66.3913 76.612 66.6192 76.2567 66.7104Z" fill="#F2F2F2"/>
<path d="M82.9488 69.7925L45.6129 79.376C45.4369 79.4213 45.2537 79.4317 45.0737 79.4065C44.8937 79.3813 44.7204 79.3211 44.5638 79.2292C44.4072 79.1373 44.2703 79.0157 44.161 78.8711C44.0517 78.7266 43.972 78.562 43.9266 78.3868C43.8813 78.2116 43.871 78.0292 43.8965 77.85C43.9219 77.6709 43.9826 77.4985 44.075 77.3427C44.1675 77.1869 44.2899 77.0507 44.4352 76.942C44.5805 76.8334 44.7459 76.7542 44.922 76.7092L82.2579 67.1257C82.6132 67.0345 82.9903 67.0875 83.3063 67.2731C83.6223 67.4586 83.8513 67.7616 83.943 68.1152C84.0346 68.4688 83.9813 68.8442 83.7949 69.1588C83.6084 69.4733 83.3041 69.7013 82.9488 69.7925Z" fill="#F2F2F2"/>
<path d="M28.5686 42.9122L17.3114 45.8018C17.141 45.8453 16.9603 45.8198 16.8088 45.7309C16.6573 45.6419 16.5475 45.4968 16.5034 45.3273L13.9193 35.3532C13.8756 35.1837 13.9012 35.0038 13.9906 34.853C14.0799 34.7022 14.2257 34.5929 14.396 34.549L25.6533 31.6594C25.8236 31.6159 26.0043 31.6414 26.1558 31.7304C26.3073 31.8193 26.4171 31.9645 26.4612 32.1339L29.0453 42.108C29.0891 42.2776 29.0634 42.4575 28.9741 42.6082C28.8847 42.759 28.7389 42.8683 28.5686 42.9122Z" fill="#E6E6E6"/>
<path d="M33.7913 63.0802L22.534 65.9698C22.3637 66.0133 22.1829 65.9878 22.0315 65.8988C21.88 65.8099 21.7701 65.6648 21.726 65.4953L19.1419 55.5212C19.0982 55.3516 19.1239 55.1717 19.2132 55.021C19.3026 54.8702 19.4484 54.7609 19.6186 54.717L30.8759 51.8274C31.0463 51.7839 31.227 51.8094 31.3785 51.8983C31.53 51.9873 31.6398 52.1324 31.6839 52.3019L34.268 62.276C34.3117 62.4455 34.2861 62.6254 34.1967 62.7762C34.1074 62.927 33.9616 63.0363 33.7913 63.0802Z" fill="#E6E6E6"/>
<path d="M39.014 83.2482L27.7567 86.1378C27.5863 86.1813 27.4056 86.1558 27.2541 86.0668C27.1026 85.9779 26.9928 85.8327 26.9487 85.6633L24.3646 75.6892C24.3209 75.5196 24.3465 75.3397 24.4359 75.1889C24.5252 75.0382 24.671 74.9288 24.8413 74.8849L36.0986 71.9954C36.2689 71.9518 36.4497 71.9774 36.6011 72.0663C36.7526 72.1553 36.8625 72.3004 36.9066 72.4699L39.4907 82.4439C39.5344 82.6135 39.5088 82.7934 39.4194 82.9442C39.33 83.095 39.1842 83.2043 39.014 83.2482Z" fill="#E6E6E6"/>
<path d="M113.011 18.8984H48.0497C45.8472 18.9009 43.7356 19.7729 42.1781 21.3231C40.6207 22.8733 39.7447 24.9752 39.7422 27.1675V103.092C39.7447 105.285 40.6207 107.387 42.1781 108.937C43.7356 110.487 45.8472 111.359 48.0497 111.362H113.011C115.214 111.359 117.326 110.487 118.883 108.937C120.441 107.387 121.317 105.285 121.319 103.092V27.1675C121.317 24.9752 120.441 22.8733 118.883 21.3231C117.326 19.7729 115.214 18.9009 113.011 18.8984Z" fill="#E6E6E6"/>
<path d="M113.011 21.2793H48.0488C46.4803 21.281 44.9766 21.902 43.8675 23.006C42.7584 24.1099 42.1346 25.6067 42.1328 27.1679V103.093C42.1346 104.654 42.7584 106.151 43.8675 107.255C44.9766 108.359 46.4803 108.98 48.0488 108.981H113.011C114.579 108.98 116.083 108.359 117.192 107.255C118.301 106.151 118.925 104.654 118.927 103.093V27.1679C118.925 25.6067 118.301 24.1099 117.192 23.006C116.083 21.902 114.579 21.2811 113.011 21.2793Z" fill="white"/>
<path d="M103.236 63.0001H70.385C70.2032 63.0003 70.0231 62.9649 69.8551 62.8958C69.6871 62.8266 69.5344 62.7252 69.4057 62.5974C69.2771 62.4695 69.1751 62.3176 69.1055 62.1504C69.0358 61.9833 69 61.8041 69 61.6231C69 61.4421 69.0358 61.263 69.1055 61.0958C69.1751 60.9286 69.2771 60.7768 69.4057 60.6489C69.5344 60.521 69.6871 60.4196 69.8551 60.3505C70.0231 60.2814 70.2032 60.2459 70.385 60.2461H103.236C103.602 60.2465 103.954 60.3918 104.213 60.65C104.472 60.9082 104.618 61.2582 104.618 61.6231C104.618 61.9881 104.472 62.3381 104.213 62.5963C103.954 62.8545 103.602 62.9997 103.236 63.0001Z" fill="#E6E6E6"/>
<path d="M108.942 67.6486H70.385C70.2032 67.6488 70.0231 67.6133 69.8551 67.5442C69.6871 67.4751 69.5344 67.3737 69.4057 67.2458C69.2771 67.1179 69.1751 66.966 69.1055 66.7989C69.0358 66.6317 69 66.4525 69 66.2715C69 66.0906 69.0358 65.9114 69.1055 65.7442C69.1751 65.5771 69.2771 65.4252 69.4057 65.2973C69.5344 65.1694 69.6871 65.068 69.8551 64.9989C70.0231 64.9298 70.2032 64.8943 70.385 64.8945H108.942C109.309 64.8945 109.661 65.0396 109.921 65.2978C110.18 65.5561 110.326 65.9063 110.326 66.2715C110.326 66.6368 110.18 66.987 109.921 67.2452C109.661 67.5035 109.309 67.6486 108.942 67.6486Z" fill="#E6E6E6"/>
<path d="M103.236 83.8283H70.385C70.2032 83.8285 70.0231 83.793 69.8551 83.7239C69.6871 83.6548 69.5344 83.5534 69.4057 83.4255C69.2771 83.2976 69.1751 83.1457 69.1055 82.9786C69.0358 82.8114 69 82.6322 69 82.4512C69 82.2703 69.0358 82.0911 69.1055 81.9239C69.1751 81.7568 69.2771 81.6049 69.4057 81.477C69.5344 81.3491 69.6871 81.2477 69.8551 81.1786C70.0231 81.1095 70.2032 81.074 70.385 81.0742H103.236C103.603 81.0742 103.955 81.2193 104.214 81.4775C104.473 81.7358 104.619 82.086 104.619 82.4512C104.619 82.8164 104.473 83.1667 104.214 83.4249C103.955 83.6832 103.603 83.8283 103.236 83.8283Z" fill="#E6E6E6"/>
<path d="M108.942 88.4747H70.385C70.2032 88.4749 70.0231 88.4395 69.8551 88.3704C69.6871 88.3013 69.5344 88.1999 69.4057 88.072C69.2771 87.9441 69.1751 87.7922 69.1055 87.625C69.0358 87.4579 69 87.2787 69 87.0977C69 86.9168 69.0358 86.7376 69.1055 86.5704C69.1751 86.4032 69.2771 86.2514 69.4057 86.1235C69.5344 85.9956 69.6871 85.8942 69.8551 85.8251C70.0231 85.756 70.2032 85.7205 70.385 85.7207H108.942C109.124 85.7205 109.304 85.756 109.472 85.8251C109.64 85.8942 109.793 85.9956 109.922 86.1235C110.05 86.2514 110.152 86.4032 110.222 86.5704C110.292 86.7376 110.327 86.9168 110.327 87.0977C110.327 87.2787 110.292 87.4579 110.222 87.625C110.152 87.7922 110.05 87.9441 109.922 88.072C109.793 88.1999 109.64 88.3013 109.472 88.3704C109.304 88.4395 109.124 88.4749 108.942 88.4747Z" fill="#E6E6E6"/>
<path d="M63.0233 69.7577H51.3977C51.2219 69.7575 51.0532 69.6879 50.9289 69.5641C50.8045 69.4403 50.7346 69.2725 50.7344 69.0974V58.797C50.7346 58.6219 50.8045 58.4541 50.9289 58.3303C51.0532 58.2065 51.2219 58.1369 51.3977 58.1367H63.0233C63.1992 58.1369 63.3678 58.2065 63.4921 58.3303C63.6165 58.4541 63.6865 58.6219 63.6867 58.797V69.0974C63.6865 69.2725 63.6165 69.4403 63.4921 69.5641C63.3678 69.6879 63.1992 69.7575 63.0233 69.7577Z" fill="#E6E6E6"/>
<path d="M63.0233 90.5858H51.3977C51.2219 90.5856 51.0532 90.516 50.9289 90.3922C50.8045 90.2684 50.7346 90.1006 50.7344 89.9255V79.6251C50.7346 79.4501 50.8045 79.2822 50.9289 79.1585C51.0532 79.0347 51.2219 78.965 51.3977 78.9648H63.0233C63.1992 78.965 63.3678 79.0347 63.4921 79.1585C63.6165 79.2822 63.6865 79.4501 63.6867 79.6251V89.9255C63.6865 90.1006 63.6165 90.2684 63.4921 90.3922C63.3678 90.516 63.1992 90.5856 63.0233 90.5858Z" fill="#E6E6E6"/>
<path d="M103.267 39.8146H79.0475C78.6806 39.8146 78.3287 39.6695 78.0693 39.4113C77.8098 39.153 77.6641 38.8028 77.6641 38.4376C77.6641 38.0724 77.8098 37.7221 78.0693 37.4639C78.3287 37.2056 78.6806 37.0605 79.0475 37.0605H103.267C103.634 37.0605 103.986 37.2056 104.245 37.4639C104.505 37.7221 104.65 38.0724 104.65 38.4376C104.65 38.8028 104.505 39.153 104.245 39.4113C103.986 39.6695 103.634 39.8146 103.267 39.8146Z" fill="#CCCCCC"/>
<path d="M108.974 44.463H79.0475C78.8658 44.463 78.6859 44.4274 78.5181 44.3582C78.3502 44.289 78.1977 44.1876 78.0693 44.0597C77.9408 43.9318 77.8389 43.78 77.7694 43.613C77.6998 43.4459 77.6641 43.2668 77.6641 43.086C77.6641 42.9052 77.6998 42.7261 77.7694 42.559C77.8389 42.392 77.9408 42.2402 78.0693 42.1123C78.1977 41.9844 78.3502 41.883 78.5181 41.8138C78.6859 41.7446 78.8658 41.709 79.0475 41.709H108.974C109.341 41.709 109.692 41.8541 109.952 42.1123C110.211 42.3705 110.357 42.7208 110.357 43.086C110.357 43.4512 110.211 43.8015 109.952 44.0597C109.692 44.3179 109.341 44.463 108.974 44.463Z" fill="#CCCCCC"/>
<path d="M73.6909 50.0954H51.3626C51.1867 50.0952 51.0181 50.0256 50.8937 49.9018C50.7694 49.778 50.6994 49.6102 50.6992 49.4352V32.09C50.6994 31.9149 50.7694 31.7471 50.8937 31.6233C51.0181 31.4995 51.1867 31.4299 51.3626 31.4297H73.6909C73.8667 31.4299 74.0353 31.4995 74.1597 31.6233C74.2841 31.7471 74.354 31.9149 74.3542 32.09V49.4352C74.354 49.6102 74.2841 49.778 74.1597 49.9018C74.0353 50.0256 73.8667 50.0952 73.6909 50.0954Z" fill="#0094A1"/>
</svg>
