<svg width="23" height="21" viewBox="0 0 23 21" fill="none" xmlns="http://www.w3.org/2000/svg">
<path d="M22.5495 5.53846V15.4615C22.5495 18.3046 20.6119 20.6492 18.1147 20.9631C17.9268 20.9862 17.7347 21 17.5385 21H5.01099C4.81473 21 4.62264 20.9862 4.43473 20.9631C1.93758 20.6492 0 18.3046 0 15.4615V5.53846C0 2.69538 1.93758 0.350769 4.43473 0.036923C4.62264 0.0138461 4.81473 0 5.01099 0H17.5385C17.7347 0 17.9268 0.0138461 18.1147 0.036923C20.6119 0.350769 22.5495 2.69538 22.5495 5.53846Z" fill="#0094A1"/>
<path d="M22.5496 5.53846V15.4615C22.5496 18.3046 20.612 20.6492 18.1148 20.9631C17.9269 20.9862 17.7348 21 17.5386 21H11.7676V0H17.5386C17.7348 0 17.9269 0.0138461 18.1148 0.036923C20.612 0.350769 22.5496 2.69538 22.5496 5.53846Z" fill="#0094A1"/>
<path d="M15.6636 0H6.95703V21H15.6636V0Z" fill="white"/>
</svg>
