<svg width="40" height="40" viewBox="0 0 40 40" fill="none" xmlns="http://www.w3.org/2000/svg">
<rect x="0.5" y="0.5" width="39" height="39" rx="7.5" fill="white"/>
<rect x="0.5" y="0.5" width="39" height="39" rx="7.5" stroke="#E4E7EC"/>
<path d="M29.0602 19.8196L28.9002 19.5996C28.6202 19.2596 28.2902 18.9896 27.9102 18.7896C27.4002 18.4996 26.8202 18.3496 26.2202 18.3496H13.7702C13.1702 18.3496 12.6002 18.4996 12.0802 18.7896C11.6902 18.9996 11.3402 19.2896 11.0502 19.6496C10.4802 20.3796 10.2102 21.2796 10.3002 22.1796L10.6702 26.8496C10.8002 28.2596 10.9702 29.9996 14.1402 29.9996H25.8602C29.0302 29.9996 29.1902 28.2596 29.3302 26.8396L29.7002 22.1896C29.7902 21.3496 29.5702 20.5096 29.0602 19.8196ZM22.3902 25.3396H17.6002C17.2102 25.3396 16.9002 25.0196 16.9002 24.6396C16.9002 24.2596 17.2102 23.9396 17.6002 23.9396H22.3902C22.7802 23.9396 23.0902 24.2596 23.0902 24.6396C23.0902 25.0296 22.7802 25.3396 22.3902 25.3396Z" fill="#0094A1"/>
<path opacity="0.4" d="M11.3809 19.31C11.6009 19.11 11.8209 18.93 12.0809 18.79C12.5909 18.5 13.1709 18.35 13.7709 18.35H26.2309C26.8309 18.35 27.4009 18.5 27.9209 18.79C28.1809 18.93 28.4109 19.11 28.6209 19.32V18.79V17.82C28.6209 14.25 27.5309 13.16 23.9609 13.16H21.5809C21.1409 13.16 21.1309 13.15 20.8709 12.81L19.6709 11.2C19.1009 10.46 18.6509 10 17.2209 10H16.0409C12.4709 10 11.3809 11.09 11.3809 14.66V18.8V19.31Z" fill="#0094A1"/>
</svg>
