<svg width="24" height="24" viewBox="0 0 24 24" fill="none" xmlns="http://www.w3.org/2000/svg">
<path d="M3.346 16.198L16.175 3.368M18.632 11.056L16.432 13.256M14.555 15.11L13.576 16.089M4 22H20M3.175 16.141C2.80249 15.7686 2.50699 15.3265 2.30538 14.8399C2.10377 14.3533 2 13.8317 2 13.305C2 12.7783 2.10377 12.2567 2.30538 11.7701C2.50699 11.2835 2.80249 10.8414 3.175 10.469L10.469 3.175C10.8414 2.80249 11.2835 2.50699 11.7701 2.30538C12.2567 2.10377 12.7783 2 13.305 2C13.8317 2 14.3533 2.10377 14.8399 2.30538C15.3265 2.50699 15.7686 2.80249 16.141 3.175L20.825 7.859C21.1975 8.23139 21.493 8.67351 21.6946 9.16012C21.8962 9.64672 22 10.1683 22 10.695C22 11.2217 21.8962 11.7433 21.6946 12.2299C21.493 12.7165 21.1975 13.1586 20.825 13.531L13.531 20.825C13.1586 21.1975 12.7165 21.493 12.2299 21.6946C11.7433 21.8962 11.2217 22 10.695 22C10.1683 22 9.64672 21.8962 9.16012 21.6946C8.67351 21.493 8.23139 21.1975 7.859 20.825L3.175 16.141Z" stroke="white" stroke-width="1.5" stroke-linecap="round" stroke-linejoin="round"/>
</svg>
