<svg width="140" height="139" viewBox="0 0 140 139" fill="none" xmlns="http://www.w3.org/2000/svg">
<path d="M0.486328 139.014H139.486V0.0136719H0.486328V139.014Z" fill="#FEFEFE"/>
<path d="M116.272 72.4439C116.272 81.3554 113.753 89.6794 109.389 96.7415C107.277 100.159 104.733 103.282 101.832 106.032C99.3264 108.409 96.5558 110.508 93.5675 112.28C87.3918 115.944 80.2906 118.212 72.6991 118.651C71.8216 118.701 70.9376 118.728 70.0476 118.728C70.0271 118.729 70.0069 118.729 69.9864 118.729C44.4239 118.729 23.7017 98.0064 23.7017 72.4442C23.7017 65.2312 25.3514 58.403 28.295 52.3176C33.662 41.22 43.3297 32.591 55.1332 28.5944C59.7957 27.0148 64.7913 26.1592 69.9867 26.1592C95.5496 26.1592 116.272 46.8817 116.272 72.4439Z" fill="#1FBCC9"/>
<path d="M70.0478 118.729L69.3038 117.377C68.2816 115.521 68.9581 113.187 70.8144 112.165L71.5789 111.744V111.744L71.5799 111.744L70.4491 109.693C69.6658 108.27 70.1839 106.482 71.6062 105.699L72.0951 105.43C71.7757 105.058 71.4721 104.715 71.1811 104.397C71.171 104.386 71.1602 104.375 71.1501 104.364C71.0616 104.267 70.9745 104.173 70.8881 104.081C70.8472 104.037 70.8062 103.994 70.7657 103.951C70.6826 103.863 70.6003 103.777 70.5195 103.693C70.4007 103.57 70.2839 103.452 70.1686 103.336C70.1636 103.332 70.1592 103.327 70.1547 103.322L70.0947 103.263C70.0886 103.257 70.0834 103.251 70.0787 103.246C70.069 103.237 70.0598 103.228 70.0504 103.219C70.0462 103.214 70.0422 103.211 70.0382 103.206C69.9702 103.139 69.9026 103.074 69.836 103.01C67.7779 101.026 66.2769 100.259 63.9644 98.7033C63.5245 98.4077 62.9523 97.9942 62.2944 97.5041C61.3717 96.8164 60.2817 95.978 59.151 95.0939C58.7219 94.7578 58.2862 94.416 57.8529 94.0735C57.8244 94.051 57.7962 94.0291 57.7677 94.0062C57.4521 93.7565 57.1378 93.5072 56.826 93.2601C56.7495 93.1991 56.673 93.1384 56.5969 93.0779L55.8306 94.1955L54.1142 92.5893L52.7851 94.5281L51.0685 92.9219L49.7393 94.8611L48.0228 93.2549L46.6936 95.1937L44.9773 93.5875L43.6476 95.5263L41.9313 93.9201L40.6017 95.8593L38.8851 94.2531L35.0052 58.7308L34.7797 56.6656C34.4026 56.519 34.0317 56.3597 33.6671 56.1883C33.5525 56.1346 33.4383 56.0793 33.3249 56.0231C33.2321 55.9772 33.1401 55.9299 33.0483 55.8828C33.0396 55.8781 33.0304 55.8736 33.0215 55.8689C33.0099 55.863 32.9986 55.8571 32.9876 55.851C32.9506 55.832 32.9144 55.8127 32.8777 55.7934C32.8501 55.7788 32.8231 55.7642 32.7957 55.7496C32.7609 55.7307 32.7258 55.7117 32.6912 55.6926C32.6628 55.6773 32.634 55.6618 32.6056 55.6455C32.5719 55.6272 32.5385 55.6084 32.5053 55.5895C32.4759 55.573 32.4457 55.5561 32.4163 55.5392C32.3843 55.521 32.3528 55.5031 32.3208 55.4845C32.2902 55.4669 32.2593 55.4488 32.2287 55.4306C32.1981 55.413 32.1675 55.3949 32.1372 55.3767C32.1054 55.3579 32.0736 55.3389 32.0421 55.3198C32.0129 55.3024 31.9837 55.2847 31.9548 55.2673C31.922 55.2471 31.8893 55.2268 31.8568 55.2068C31.8288 55.1899 31.8011 55.1724 31.7735 55.155C31.7399 55.1341 31.7064 55.1129 31.673 55.0917C31.6462 55.0748 31.6198 55.0576 31.593 55.0406C31.5586 55.0187 31.5245 54.9961 31.4901 54.974C31.4647 54.9575 31.4393 54.9408 31.4143 54.9246C31.3788 54.9011 31.3435 54.8773 31.3084 54.8535C31.2844 54.838 31.2609 54.822 31.2373 54.806C31.2004 54.781 31.1639 54.7558 31.1274 54.7309C31.1055 54.7156 31.0834 54.7008 31.0615 54.6855C31.0236 54.6593 30.9862 54.633 30.9485 54.6066C30.9276 54.5915 30.9071 54.5769 30.8864 54.5624C30.8476 54.5348 30.8092 54.507 30.7706 54.479C30.7515 54.4651 30.732 54.4515 30.7129 54.4376C30.6729 54.4079 30.6329 54.3785 30.5931 54.3489C30.5762 54.3359 30.5583 54.3232 30.5413 54.3103C30.4997 54.279 30.458 54.2479 30.4166 54.2161C30.4013 54.2046 30.386 54.1931 30.3707 54.1813C30.3269 54.1476 30.2834 54.114 30.2403 54.0801C30.2274 54.07 30.2146 54.0601 30.2017 54.0499C30.1558 54.0142 30.1099 53.9777 30.0645 53.9412C30.0544 53.933 30.0442 53.925 30.0343 53.9167C29.9854 53.8772 29.9364 53.8374 29.8877 53.7974C29.8816 53.7922 29.875 53.787 29.8684 53.7816C29.8147 53.7371 29.7613 53.6926 29.7081 53.6477L29.7041 53.6442C29.2112 53.228 28.7412 52.7848 28.2954 52.3174C28.6758 51.531 29.0776 50.7571 29.5003 49.9963C30.7518 51.43 32.224 52.6561 33.8573 53.6282C34.1689 53.8136 34.4864 53.9897 34.8091 54.1563C34.9939 54.2519 35.181 54.3444 35.3696 54.4334C35.3813 54.439 35.3933 54.4447 35.4053 54.4503C35.7697 54.6217 36.1411 54.781 36.5179 54.9277L40.6233 92.5147L42.3399 94.1209L43.6695 92.1821L45.3856 93.7883L46.7153 91.8495L48.4316 93.4557L49.7608 91.5167L51.4776 93.1229L52.8067 91.1841L54.5233 92.7903L55.8525 90.8515L57.5688 92.4577L58.3352 91.3401C58.4112 91.4006 58.4877 91.4614 58.5642 91.5219C58.8758 91.7695 59.1905 92.0187 59.5059 92.2682C59.5344 92.2908 59.5626 92.3132 59.5909 92.3358C60.0242 92.678 60.4597 93.02 60.889 93.3559C62.0197 94.24 63.1097 95.0786 64.0324 95.7663C64.69 96.2562 65.2625 96.67 65.7026 96.9651C68.0151 98.5207 69.5161 99.2885 71.5742 101.272C71.6408 101.336 71.7084 101.401 71.7764 101.468C71.7802 101.473 71.7844 101.476 71.7887 101.481C71.7978 101.49 71.807 101.499 71.8167 101.508C71.8216 101.513 71.8268 101.518 71.8327 101.525L71.8929 101.584C71.8974 101.589 71.9021 101.593 71.9068 101.598C72.0221 101.714 72.1389 101.832 72.2577 101.955C72.3387 102.038 72.4211 102.124 72.5042 102.213C72.5444 102.255 72.5854 102.298 72.6266 102.342C72.7127 102.434 72.8 102.528 72.8885 102.626C72.8987 102.637 72.9095 102.648 72.9194 102.659C73.2103 102.977 73.5139 103.32 73.8333 103.691C73.8555 103.718 73.8783 103.745 73.9014 103.771L95.0358 92.1343C95.0732 92.4207 95.1045 92.6324 95.1229 92.7505L95.6146 92.4798C96.0646 92.2317 96.5506 92.1143 97.0301 92.1143C98.0676 92.1143 99.0729 92.6639 99.6084 93.6367L100.739 95.688L101.502 95.2676C102.089 94.944 102.724 94.7907 103.35 94.7907C104.703 94.7907 106.016 95.5081 106.715 96.778L107.652 98.479C105.973 101.196 104.02 103.726 101.832 106.032C99.3269 108.408 96.5563 110.508 93.568 112.28C87.3923 115.944 80.291 118.212 72.6995 118.651C71.8221 118.701 70.938 118.728 70.0481 118.728L70.0478 118.729ZM57.16 92.2569L57.0651 92.3956L57.2831 92.3716L57.1602 92.2567L57.16 92.2569ZM58.8026 90.6578L58.8975 90.5192L59.0206 90.6343L58.8026 90.658V90.6578ZM61.8481 90.3252L61.943 90.1866L62.0661 90.3014L61.8481 90.3252ZM64.8936 89.9926L64.9885 89.854L65.1116 89.9686L64.8936 89.9926ZM67.9391 89.6598L68.0344 89.5212L68.1571 89.6363L67.9391 89.6601V89.6598ZM84.7904 45.4186L84.7801 45.323C84.8086 45.3072 84.8373 45.2924 84.866 45.2773C84.8403 45.3239 84.8149 45.3708 84.7907 45.4186H84.7904Z" fill="#68A2CD"/>
<path d="M97.9997 72.9158C97.9143 74.8652 97.5412 78.5547 96.7916 82.3531C96.1073 85.8235 96.7452 90.2713 96.8598 91.0127C96.8711 91.0826 96.8768 91.1205 96.8768 91.1205L73.9006 103.772C73.8773 103.745 73.8547 103.718 73.8325 103.692C73.5131 103.32 73.2095 102.977 72.9186 102.659C72.9085 102.648 72.8976 102.637 72.8878 102.626C72.7993 102.529 72.7119 102.435 72.6258 102.343C72.5848 102.298 72.5436 102.255 72.5034 102.213C72.4203 102.125 72.3379 102.039 72.257 101.955C72.1381 101.832 72.0213 101.714 71.906 101.598C71.9013 101.593 71.8966 101.589 71.8921 101.584L71.8319 101.525C71.826 101.519 71.8208 101.513 71.8159 101.508C71.8062 101.499 71.797 101.49 71.7879 101.481C71.7836 101.477 71.7794 101.473 71.7756 101.468C71.7076 101.401 71.64 101.336 71.5734 101.273C69.5151 99.2887 68.0143 98.5209 65.7018 96.9653C65.2619 96.6699 64.6895 96.2564 64.0316 95.7666C63.1089 95.0788 62.0189 94.2402 60.8882 93.3561C60.4589 93.0202 60.0237 92.6782 59.5901 92.336C59.5616 92.3134 59.5334 92.2913 59.5051 92.2684C59.1895 92.019 58.875 91.7695 58.5634 91.5221C58.2501 91.2735 57.9406 91.0269 57.6372 90.7851L69.4551 89.4943L67.3572 70.2895L85.5322 68.3044L84.9278 62.7707L86.5938 61.9521L86.5128 61.3693L86.1 58.3841L84.6745 48.0724C84.6745 48.0724 84.5813 46.9704 84.8459 45.9314C84.8473 45.9267 84.8483 45.922 84.8497 45.9173C84.9292 45.6108 85.0406 45.3105 85.1947 45.0455C85.8236 43.9682 86.6201 43.3703 87.5925 43.2197C87.6137 43.2159 87.6348 43.2122 87.656 43.2103C87.681 43.2065 87.7062 43.2037 87.7318 43.2009C87.7638 43.1971 87.7951 43.1943 87.8281 43.1914C88.4655 43.1392 89.3058 43.4652 89.9295 44.192C90.3633 44.6955 90.6923 45.3915 90.7787 46.2871C90.9244 47.8198 91.2363 49.4587 91.6496 51.2643C91.8247 52.0337 92.0189 52.8323 92.2258 53.6658C92.9183 56.4559 95.6811 63.4376 96.8617 66.3242C98.0433 69.2096 98.0849 70.9664 97.9997 72.9163V72.9158Z" fill="#FAB9A1"/>
<path d="M71.7757 101.468C71.7077 101.401 71.6401 101.336 71.5735 101.273C69.5152 99.2886 68.0144 98.5208 65.7019 96.9652C65.262 96.6698 64.6896 96.2562 64.0317 95.7664C63.109 95.0787 62.019 94.24 60.8883 93.356C60.459 93.0201 60.0237 92.6781 59.5902 92.3359C59.5617 92.3133 59.5335 92.2911 59.5052 92.2683C59.1896 92.0188 58.8751 91.7693 58.5635 91.5219C58.487 91.4614 58.4105 91.4007 58.3345 91.3402L58.8026 90.6574L59.0206 90.6336L60.6141 92.1247L61.8481 90.3246L62.0661 90.3008L63.6596 91.7919L64.8936 89.9918L65.1116 89.9678L66.7051 91.4593L67.9391 89.659L68.1571 89.6352L69.7506 91.1263L71.0797 89.1875L72.7961 90.7937L74.1252 88.8549L75.8418 90.4611L77.1712 88.5221L78.8873 90.1283L80.2162 88.1895L81.9328 89.7957L83.2617 87.8572L84.7872 89.2847L71.7757 101.468V101.468ZM85.6625 88.4656L86.3074 87.5251L86.4873 87.6934L85.6625 88.4659V88.4656ZM88.9043 83.0826L86.5654 61.6669L86.5346 61.3838C86.5362 61.3852 86.5381 61.3866 86.5397 61.388L88.8857 82.8651C88.8937 82.9379 88.8998 83.0104 88.9045 83.0826H88.9043Z" fill="#E4A892"/>
<path fill-rule="evenodd" clip-rule="evenodd" d="M42.3391 94.1212L40.6225 92.515L36.5171 54.928L36.7426 56.9924C37.8848 57.3897 39.0761 57.6736 40.301 57.8318C41.0527 57.929 41.817 57.9791 42.5911 57.9791C43.2417 57.9791 43.8984 57.9438 44.56 57.8715C52.7564 56.9762 59.0553 50.6875 60.3086 42.9249C60.8818 40.8194 61.0771 38.5749 60.826 36.2751C60.5231 33.5017 59.6018 30.9444 58.2152 28.7271L76.9545 26.6806L82.675 26.0552L82.8852 27.9805L84.7795 45.3228L84.7898 45.4184C84.7145 45.5657 84.6467 45.7169 84.5865 45.8717C84.6467 45.7169 84.7143 45.5653 84.7898 45.4179L84.6281 43.9365C84.099 44.568 83.709 45.3238 83.491 46.1438C83.4181 46.4173 83.326 46.7902 83.2307 47.2435C82.9031 48.8007 82.5406 51.2999 82.8256 53.9076C83.0271 55.7558 83.4216 57.5077 83.9658 58.9745C84.1877 59.5733 84.4297 60.1083 84.6865 60.571C84.7404 60.6673 84.7943 60.76 84.8491 60.85C85.2029 61.4301 85.5837 61.8734 85.9803 62.1673L86.6756 62.6826L86.5648 61.6669L88.9037 83.0826L89.3525 87.192L88.0229 89.131L86.4866 87.6931L86.3068 87.5248L85.6619 88.4654L84.9772 89.4634L84.7863 89.2847L83.2608 87.8572L81.9319 89.7957L80.2153 88.1895L78.8864 90.1283L77.1703 88.5221L75.8409 90.4611L74.1243 88.8549L72.7952 90.7937L71.0789 89.1875L69.7497 91.1263L68.1562 89.6352L68.0336 89.5201L67.9383 89.6587L66.7042 91.4591L65.1107 89.9675L64.9876 89.8529L64.8928 89.9915L63.6587 91.7917L62.0652 90.3006L61.9421 90.1857L61.8473 90.3244L60.6132 92.1245L59.0197 90.6334L58.8966 90.5183L58.8018 90.6569L58.3336 91.3398L57.5672 92.4573L55.8509 90.8511L54.5217 92.7899L52.8052 91.1837L51.476 93.1225L49.7592 91.5163L48.43 93.4553L46.7137 91.8491L45.3841 93.7879L43.668 92.1817L42.3383 94.1205L42.3391 94.1212ZM85.535 60.1229C85.5348 60.1222 85.5343 60.1215 85.5341 60.1208C85.5345 60.1215 85.5348 60.1222 85.535 60.1229ZM85.5313 60.1158C85.5305 60.1144 85.5298 60.1135 85.5291 60.1121C85.5298 60.1135 85.5305 60.1149 85.5313 60.1158ZM85.5282 60.1102C85.0866 59.3172 84.6827 58.259 84.3626 57.0291C84.6827 58.259 85.0866 59.317 85.5282 60.1102ZM84.3624 57.0268C84.3617 57.0247 84.361 57.0228 84.3607 57.0207C84.3612 57.0228 84.3617 57.0249 84.3624 57.0268ZM83.777 53.7852C83.7768 53.7817 83.7763 53.7782 83.7761 53.7744C83.7763 53.7779 83.7768 53.7817 83.777 53.7852ZM83.7716 53.732C83.7709 53.7276 83.7707 53.7226 83.7702 53.7186C83.7707 53.7231 83.7709 53.7273 83.7716 53.732ZM83.7695 53.7144C83.769 53.7097 83.7685 53.7047 83.7681 53.6998C83.7685 53.7045 83.769 53.7094 83.7695 53.7144ZM83.7678 53.697C83.7674 53.6918 83.7667 53.6866 83.7664 53.6817C83.7667 53.6868 83.7674 53.6918 83.7678 53.697ZM83.766 53.6795C83.7655 53.6741 83.765 53.6685 83.7643 53.6633C83.765 53.6685 83.7657 53.6741 83.766 53.6795ZM83.7643 53.6628C83.6885 52.9042 83.6687 52.1522 83.6883 51.4284C83.7139 50.4749 83.8074 49.5704 83.9293 48.764C83.7149 50.1828 83.5885 51.9053 83.7643 53.6631V53.6628ZM83.9298 48.7628C83.93 48.7593 83.9309 48.7555 83.9314 48.7518C83.9307 48.7555 83.93 48.7593 83.9298 48.7628ZM83.9321 48.7468C83.9326 48.7447 83.9328 48.7426 83.9331 48.7405C83.9326 48.7426 83.9324 48.7447 83.9321 48.7468Z" fill="url(#paint0_linear_759_21840)"/>
<path fill-rule="evenodd" clip-rule="evenodd" d="M42.5911 57.9793C41.8172 57.9793 41.0527 57.9294 40.301 57.8319C39.0761 57.6738 37.8848 57.3899 36.7426 56.9926L36.5171 54.9281C37.7097 55.3932 38.96 55.7326 40.2508 55.933C40.3996 55.9558 40.5481 55.9774 40.6976 55.9965C41.4496 56.0937 42.2143 56.1438 42.9882 56.1438C43.6385 56.1438 44.2952 56.1088 44.9566 56.0365C52.4959 55.2129 58.4306 49.825 60.3086 42.9248C59.0553 50.6877 52.7564 56.9764 44.56 57.8715C43.8984 57.9437 43.2415 57.9791 42.5911 57.9791V57.9793Z" fill="url(#paint1_linear_759_21840)"/>
<path d="M61.1856 83.7894L53.0878 84.6737C52.4563 84.7426 52.0006 85.3103 52.0694 85.9416C52.1386 86.5731 52.7063 87.029 53.3378 86.9601L61.4353 86.0758C62.0671 86.0066 62.523 85.4389 62.454 84.8074C62.3851 84.1758 61.8173 83.7202 61.1861 83.7891L61.1856 83.7894Z" fill="#CECDCC"/>
<path d="M60.6175 78.5874L45.047 80.2885C44.4155 80.3574 43.9596 80.9251 44.0283 81.5564C44.0975 82.1879 44.6655 82.6438 45.2968 82.5749L60.867 80.8738C61.4985 80.8051 61.9546 80.2372 61.8854 79.6059C61.8165 78.9746 61.2487 78.5187 60.6175 78.5874Z" fill="#CECDCC"/>
<path d="M77.6724 31.4869L64.3086 32.9463C63.7668 33.006 63.3751 33.4928 63.4347 34.0349C63.4938 34.5769 63.9808 34.9681 64.5231 34.9083L77.8871 33.4493C78.4287 33.3895 78.8201 32.9025 78.761 32.3607C78.702 31.8186 78.2145 31.4274 77.6727 31.4869H77.6724Z" fill="#CECDCC"/>
<path d="M79.8291 51.2344L66.4653 52.694C65.9235 52.7533 65.5321 53.2405 65.5914 53.7826C65.6505 54.3244 66.1379 54.7158 66.6798 54.6565L80.0436 53.1967C80.5854 53.1376 80.9766 52.6504 80.9175 52.1084C80.8584 51.5665 80.371 51.1753 79.8291 51.2344Z" fill="#CECDCC"/>
<path d="M78.1833 36.1669L64.8193 37.6272C64.2777 37.686 63.8863 38.174 63.9454 38.7158C64.0044 39.2569 64.4919 39.6481 65.0337 39.5895L78.3975 38.1293C78.9393 38.0704 79.331 37.5834 79.2715 37.0416C79.2124 36.4995 78.7254 36.1083 78.1831 36.1669H78.1833Z" fill="#CECDCC"/>
<path d="M45.0579 68.6717L79.8752 64.8687C81.2046 64.7235 82.1652 63.5281 82.02 62.1982L81.7302 59.5467C81.585 58.2171 80.3895 57.257 79.0597 57.4022L44.2423 61.2052C42.9124 61.3504 41.9521 62.5461 42.0976 63.8755L42.3871 66.5269C42.5323 67.8563 43.728 68.8167 45.0581 68.6714L45.0579 68.6717Z" fill="#E8E7E5"/>
<path d="M25.1956 40.1675C25.3427 41.5139 25.6358 42.8101 26.0571 44.0408C27.5705 48.4628 30.7398 52.0426 34.7591 54.1311C34.9716 54.2419 35.1872 54.3486 35.4047 54.4507C36.9233 55.1644 38.5524 55.6695 40.251 55.9329C40.3998 55.9557 40.5483 55.9773 40.6978 55.9964C42.0815 56.1755 43.5088 56.1946 44.9569 56.0364C54.7955 54.9615 61.9007 46.1143 60.8264 36.2752C59.7515 26.4361 50.904 19.3318 41.0652 20.4063C31.2468 21.4789 24.1508 30.2908 25.1893 40.1052C25.1911 40.1261 25.1935 40.1468 25.1956 40.1678V40.1675Z" fill="#EF494A"/>
<path d="M37.2633 30.0856L36.9773 28.9249C36.8121 28.2541 37.2414 27.5814 37.9191 27.4496L39.8239 27.0773C39.6898 27.1417 39.5702 27.2307 39.4706 27.3378L37.2633 30.0856ZM40.6386 26.9181L40.9653 26.8537C41.0436 26.8386 41.1215 26.8311 41.1987 26.8311C41.2484 26.8311 41.2981 26.8348 41.3468 26.8405L40.6386 26.9181Z" fill="#C54040"/>
<path d="M36.5175 54.9279C36.1405 54.7812 35.7693 54.6219 35.4049 54.4505C35.3927 54.4449 35.3809 54.439 35.3691 54.4336C35.3809 54.4392 35.3929 54.4449 35.4049 54.4505C35.7693 54.6219 36.1407 54.7812 36.5175 54.9279Z" fill="#5984A6"/>
<path d="M34.8083 54.1566C34.4854 53.9902 34.1681 53.8139 33.8564 53.6284C34.1523 53.8042 34.4531 53.9721 34.7591 54.1309C34.7756 54.1397 34.7921 54.1479 34.8083 54.1566Z" fill="#5984A6"/>
<path d="M26.3527 44.8413L26.3525 44.8406C26.3525 44.8411 26.3525 44.8411 26.3527 44.8413ZM26.3428 44.8159C26.3426 44.8152 26.3424 44.8147 26.3421 44.8145C26.3421 44.8145 26.3426 44.8154 26.3428 44.8159ZM26.3377 44.8027C26.3374 44.802 26.3374 44.802 26.3372 44.8018C26.3372 44.8022 26.3374 44.8025 26.3377 44.8027ZM26.3327 44.7898C26.3325 44.7895 26.3322 44.7888 26.332 44.7883C26.3322 44.7886 26.3325 44.7893 26.3327 44.7898ZM26.3275 44.777C26.3273 44.7763 26.3273 44.7763 26.3271 44.7756C26.3273 44.7759 26.3275 44.7766 26.3275 44.777ZM26.3228 44.7646C26.3226 44.7639 26.3224 44.7632 26.3219 44.7622C26.3221 44.7632 26.3224 44.7639 26.3228 44.7646ZM26.3179 44.7516C26.3174 44.7509 26.3169 44.75 26.3167 44.7493C26.3172 44.7502 26.3174 44.7507 26.3179 44.7516ZM26.3129 44.7394C26.3125 44.7382 26.312 44.737 26.3115 44.7359C26.312 44.7368 26.3125 44.7382 26.3129 44.7394ZM26.3078 44.7257C26.3073 44.725 26.3071 44.7241 26.3068 44.7234C26.3071 44.7241 26.3075 44.725 26.3078 44.7257ZM26.3028 44.7133C26.3023 44.7123 26.3019 44.7111 26.3016 44.7102C26.3021 44.7111 26.3023 44.7121 26.3028 44.7133ZM26.2981 44.7008C26.2976 44.6998 26.2972 44.6984 26.2965 44.697C26.2969 44.6984 26.2974 44.6998 26.2981 44.7008ZM26.2932 44.6881C26.2927 44.6867 26.292 44.6857 26.2915 44.6843C26.2922 44.6857 26.2925 44.6867 26.2932 44.6881ZM26.288 44.6749C26.2875 44.674 26.287 44.6725 26.2866 44.6714C26.287 44.6728 26.2873 44.6735 26.288 44.6749ZM26.2833 44.6627C26.2826 44.6612 26.2821 44.6596 26.2814 44.6582C26.2821 44.6596 26.2828 44.6612 26.2833 44.6627ZM26.2786 44.6502C26.2781 44.6488 26.2772 44.6467 26.2767 44.6455C26.2774 44.6471 26.2779 44.6485 26.2786 44.6502ZM26.2739 44.6377C26.2732 44.6356 26.2725 44.6342 26.2717 44.6321C26.2725 44.6337 26.2732 44.6361 26.2739 44.6377ZM26.2689 44.6245C26.2682 44.6224 26.2677 44.6212 26.2668 44.6193C26.2675 44.621 26.2682 44.6229 26.2689 44.6245ZM26.2637 44.6111C26.2633 44.6097 26.2626 44.6078 26.2621 44.6066C26.2626 44.6081 26.2633 44.6097 26.2637 44.6111ZM26.2588 44.5982C26.2583 44.5968 26.2576 44.5951 26.2572 44.5937C26.2579 44.5951 26.2583 44.5963 26.2588 44.5982ZM26.2541 44.5859C26.2536 44.5843 26.2527 44.5819 26.2522 44.5803C26.2529 44.5824 26.2536 44.5836 26.2541 44.5859ZM26.2494 44.573C26.2442 44.5586 26.2388 44.5445 26.2331 44.5304C26.2388 44.5445 26.244 44.5584 26.2494 44.573ZM26.2329 44.5292C26.2317 44.5261 26.2306 44.5228 26.2294 44.5198C26.2306 44.5228 26.2315 44.5261 26.2329 44.5292ZM26.228 44.5163C26.2266 44.5125 26.2251 44.5083 26.2235 44.5045C26.2251 44.5083 26.2263 44.512 26.228 44.5163ZM26.2233 44.5038C26.2218 44.5 26.2204 44.4965 26.2193 44.493C26.2207 44.4965 26.2218 44.5 26.2233 44.5038ZM26.2183 44.4906C26.2171 44.4875 26.216 44.484 26.2148 44.481C26.2162 44.4845 26.2171 44.4873 26.2183 44.4906ZM26.2136 44.4777C26.2124 44.4746 26.2113 44.4718 26.2101 44.4687C26.2113 44.4715 26.2124 44.4746 26.2136 44.4777ZM26.2087 44.4645C26.2075 44.4614 26.2063 44.4584 26.2051 44.4551C26.2063 44.4581 26.2075 44.4612 26.2087 44.4645ZM26.204 44.452C26.2025 44.4485 26.2016 44.4456 26.2004 44.4426C26.2016 44.4456 26.2028 44.4487 26.204 44.452ZM26.199 44.4388C26.1978 44.4358 26.1969 44.4329 26.196 44.4301C26.1969 44.4329 26.1981 44.436 26.199 44.4388ZM26.1943 44.4261C26.1934 44.4233 26.1922 44.4202 26.191 44.4174C26.1922 44.4205 26.1931 44.4228 26.1943 44.4261ZM26.1896 44.4129C26.1887 44.4101 26.1875 44.4073 26.1863 44.4042C26.1875 44.4073 26.1884 44.4101 26.1896 44.4129ZM26.1849 44.4005C26.1837 44.3974 26.1828 44.3946 26.1816 44.3917C26.1825 44.3941 26.1837 44.3976 26.1849 44.4005ZM26.1802 44.3873C26.1792 44.3842 26.1781 44.3816 26.1771 44.3786C26.1781 44.3812 26.1792 44.3844 26.1802 44.3873ZM26.1755 44.3743C26.1743 44.3713 26.1734 44.3687 26.1722 44.3656C26.1731 44.3684 26.1743 44.3715 26.1755 44.3743ZM26.1663 44.3487C26.1649 44.3456 26.1639 44.3426 26.1628 44.3393C26.1639 44.3423 26.1651 44.3458 26.1663 44.3487ZM26.1614 44.3357C26.1604 44.3327 26.1592 44.3294 26.1583 44.3265C26.1592 44.3294 26.1604 44.3324 26.1614 44.3357ZM26.1566 44.3225C26.1557 44.3197 26.1545 44.3167 26.1536 44.3138C26.1548 44.3169 26.1557 44.3195 26.1566 44.3225ZM26.1519 44.3094C26.151 44.3068 26.1498 44.3037 26.1489 44.3011C26.1498 44.3037 26.151 44.3072 26.1519 44.3094ZM26.1472 44.2967C26.1463 44.2938 26.1454 44.291 26.1442 44.2884C26.1451 44.2912 26.1463 44.2941 26.1472 44.2967ZM26.1425 44.2835C26.1416 44.2809 26.1404 44.2778 26.1397 44.2755C26.1406 44.2778 26.1416 44.2806 26.1425 44.2835ZM26.1378 44.2703C26.1369 44.2677 26.1359 44.2651 26.135 44.2625C26.1357 44.2651 26.1369 44.2677 26.1378 44.2703ZM26.1286 44.2446C26.1277 44.2418 26.1268 44.239 26.1258 44.2371C26.1268 44.2399 26.1277 44.2418 26.1286 44.2446ZM26.1239 44.2315C26.1232 44.2296 26.1223 44.2258 26.1213 44.2239C26.1223 44.2267 26.1232 44.2286 26.1239 44.2315ZM26.1103 44.1926C26.1093 44.1898 26.1086 44.1879 26.1077 44.1851C26.1086 44.187 26.1096 44.1898 26.1103 44.1926ZM26.1058 44.1794C26.1049 44.1766 26.1042 44.1747 26.103 44.1719C26.1039 44.1747 26.1049 44.1766 26.1058 44.1794ZM26.0966 44.1531C26.0957 44.1512 26.095 44.1484 26.094 44.1455C26.095 44.1484 26.0959 44.1503 26.0966 44.1531ZM26.0922 44.1408C26.0912 44.138 26.0903 44.1361 26.0893 44.1333C26.0903 44.1352 26.0912 44.138 26.0922 44.1408ZM26.0877 44.1277C26.0867 44.1248 26.0856 44.1229 26.0846 44.1192C26.0856 44.122 26.0867 44.1258 26.0877 44.1277ZM26.0834 44.1164C26.0823 44.1126 26.0813 44.1098 26.0804 44.1069C26.0813 44.1098 26.0825 44.1126 26.0834 44.1164ZM26.0785 44.1013C26.0776 44.0994 26.0766 44.0966 26.0759 44.0938C26.0769 44.0966 26.0776 44.0994 26.0785 44.1013ZM26.0738 44.0879C26.0729 44.0851 26.0722 44.0832 26.0712 44.0813C26.0719 44.0832 26.0729 44.086 26.0738 44.0879Z" fill="#CECDCC"/>
<path d="M40.2508 55.9326C38.9603 55.7323 37.7097 55.3927 36.5171 54.9278C36.14 54.7812 35.7689 54.6218 35.4045 54.4505C35.3923 54.4448 35.3805 54.4389 35.3687 54.4335C35.2807 54.3919 35.1931 54.3495 35.1058 54.3064C35.0914 54.2994 35.0769 54.2921 35.0623 54.2848C34.9771 54.2426 34.8926 54.1998 34.8083 54.1565C34.7918 54.1478 34.7753 54.1395 34.7591 54.1308C34.4531 53.972 34.1523 53.8041 33.8564 53.6283C30.5047 51.6333 27.8302 48.5657 26.3527 44.8413C26.3527 44.8409 26.3527 44.8409 26.3525 44.8406C26.3509 44.8364 26.3492 44.8329 26.3478 44.8284L26.3476 44.8277C26.3459 44.8235 26.3445 44.8199 26.3429 44.8159C26.3429 44.8155 26.3424 44.8145 26.3421 44.8145C26.3407 44.8105 26.3391 44.8065 26.3374 44.8027C26.3374 44.8023 26.3372 44.802 26.337 44.8018C26.3356 44.798 26.3339 44.7938 26.3325 44.79C26.3323 44.7898 26.332 44.7891 26.3318 44.7886C26.3304 44.7846 26.3287 44.7806 26.3273 44.7771C26.3273 44.7766 26.3271 44.7759 26.3268 44.7757C26.3254 44.7721 26.3238 44.7679 26.3224 44.7646C26.3221 44.7639 26.3219 44.7632 26.3214 44.7623C26.32 44.7587 26.3186 44.7557 26.3174 44.7519C26.317 44.751 26.3167 44.7505 26.3163 44.7496C26.3148 44.7465 26.3137 44.743 26.3125 44.7399C26.312 44.7387 26.3115 44.7376 26.3111 44.7364C26.3097 44.7328 26.3085 44.7298 26.3071 44.7263C26.3066 44.7255 26.3064 44.7246 26.3061 44.7239C26.3047 44.7204 26.3035 44.7168 26.3021 44.7138C26.3017 44.7128 26.3012 44.7117 26.301 44.7107C26.2998 44.7074 26.2986 44.7044 26.2974 44.7011C26.297 44.7001 26.2965 44.6987 26.2958 44.6973C26.2946 44.6942 26.2934 44.6914 26.2922 44.6884C26.2918 44.6869 26.2913 44.686 26.2906 44.6846C26.2892 44.6811 26.2882 44.6782 26.2871 44.6752C26.2866 44.6738 26.2861 44.6731 26.2857 44.6716C26.2847 44.6688 26.2835 44.6658 26.2824 44.6629C26.2819 44.6615 26.2812 44.6599 26.2805 44.6585C26.2795 44.6556 26.2786 44.6533 26.2774 44.6505C26.2767 44.6488 26.2762 44.6474 26.2755 44.6458C26.2746 44.6432 26.2734 44.6406 26.2725 44.638C26.2718 44.6363 26.2711 44.634 26.2704 44.6323C26.2694 44.63 26.2682 44.6272 26.2673 44.6248C26.2666 44.6232 26.2659 44.6213 26.2652 44.6196C26.2642 44.6168 26.2631 44.6135 26.2621 44.6114C26.2617 44.61 26.2609 44.6081 26.2605 44.6069C26.2593 44.6041 26.2584 44.6013 26.2572 44.5987C26.2565 44.5968 26.256 44.5956 26.2555 44.5942C26.2546 44.5914 26.2539 44.5895 26.2525 44.5867C26.2518 44.5846 26.2513 44.5831 26.2506 44.581C26.2496 44.5784 26.2489 44.5761 26.2478 44.5737C26.2424 44.5591 26.2372 44.5452 26.2315 44.5311C26.2315 44.5307 26.2313 44.5304 26.2313 44.5302C26.2301 44.5271 26.2289 44.5238 26.2278 44.5208C26.2271 44.5194 26.2268 44.5184 26.2263 44.5172C26.2249 44.513 26.2235 44.5092 26.2219 44.5055C26.2219 44.5052 26.2216 44.5048 26.2216 44.5048C26.2202 44.501 26.219 44.4975 26.2176 44.4939C26.2174 44.493 26.2172 44.4923 26.2167 44.4916C26.2155 44.4881 26.2143 44.4855 26.2132 44.4819C26.2127 44.481 26.2125 44.4798 26.212 44.4789C26.2108 44.4758 26.2096 44.4728 26.2085 44.4699C26.208 44.4685 26.2075 44.4671 26.207 44.4657C26.2059 44.4626 26.2047 44.4596 26.2035 44.4563C26.203 44.4551 26.2028 44.4542 26.2023 44.4532C26.2012 44.4502 26.2 44.4469 26.1988 44.4438C26.1983 44.4426 26.1979 44.441 26.1974 44.4398C26.1965 44.437 26.1953 44.4339 26.1943 44.4311C26.1936 44.4297 26.1932 44.4283 26.1927 44.4269C26.1915 44.4236 26.1906 44.4212 26.1894 44.4181C26.1889 44.4165 26.1884 44.4153 26.1877 44.4137C26.1868 44.4109 26.1856 44.408 26.1844 44.405C26.184 44.404 26.1835 44.4021 26.183 44.4012C26.1821 44.3984 26.1807 44.3948 26.1797 44.3925C26.1793 44.3911 26.1788 44.3894 26.1781 44.388C26.1771 44.3852 26.176 44.3819 26.175 44.3793C26.1746 44.3779 26.1741 44.3765 26.1736 44.3751C26.1727 44.3723 26.1715 44.3692 26.1703 44.3664C26.1699 44.365 26.1694 44.3633 26.1689 44.3619C26.1677 44.3591 26.1668 44.3558 26.1656 44.3532C26.1651 44.352 26.1647 44.3506 26.1644 44.3494C26.1633 44.3466 26.1621 44.3431 26.1609 44.34C26.1604 44.3391 26.16 44.3377 26.1595 44.3365C26.1586 44.3334 26.1574 44.3301 26.1564 44.3273C26.156 44.3259 26.1555 44.3245 26.155 44.3231C26.1538 44.32 26.1529 44.3174 26.152 44.3143C26.1513 44.3129 26.1508 44.3115 26.1503 44.3099C26.1494 44.3075 26.1482 44.304 26.1473 44.3016C26.1468 44.3 26.1463 44.299 26.1456 44.2972C26.1447 44.2943 26.1437 44.2915 26.1425 44.2889C26.1421 44.2873 26.1414 44.2856 26.1409 44.284C26.14 44.2812 26.139 44.2783 26.1381 44.276C26.1374 44.2739 26.1369 44.2729 26.1364 44.2708C26.1355 44.2682 26.1343 44.2656 26.1336 44.263C26.1331 44.2612 26.1322 44.259 26.1317 44.2583C26.1308 44.2555 26.1298 44.2527 26.1289 44.2499C26.1284 44.248 26.128 44.247 26.1273 44.2451C26.1263 44.2423 26.1254 44.2404 26.1244 44.2376C26.1237 44.2348 26.1232 44.2339 26.1225 44.232C26.1216 44.2291 26.1209 44.2273 26.12 44.2244C26.1192 44.2226 26.1188 44.2207 26.1181 44.2188C26.1171 44.2169 26.1164 44.2141 26.1155 44.2113C26.1148 44.2094 26.1141 44.2075 26.1134 44.2056C26.1124 44.2037 26.1117 44.2009 26.1108 44.1981C26.1101 44.1971 26.1094 44.1943 26.1089 44.1934C26.108 44.1905 26.107 44.1877 26.1063 44.1858C26.1056 44.184 26.1049 44.1821 26.1044 44.1802C26.1035 44.1774 26.1025 44.1755 26.1016 44.1727C26.1011 44.1708 26.1004 44.1689 26.0999 44.1679C26.099 44.1651 26.0983 44.1623 26.0971 44.1595C26.0964 44.1576 26.0959 44.1557 26.0952 44.1538C26.0943 44.151 26.0936 44.1491 26.0927 44.1463C26.0922 44.1444 26.0915 44.1435 26.091 44.1416C26.0901 44.1388 26.0891 44.1359 26.0882 44.1341C26.0877 44.1322 26.0872 44.1303 26.0865 44.1284C26.0856 44.1265 26.0844 44.1228 26.0835 44.1199C26.0832 44.119 26.0825 44.118 26.0823 44.1171C26.0814 44.1133 26.0802 44.1105 26.0792 44.1077C26.0785 44.1058 26.0781 44.1039 26.0774 44.102C26.0764 44.1002 26.0755 44.0973 26.0748 44.0945C26.0741 44.0926 26.0734 44.0907 26.0726 44.0889C26.0717 44.087 26.071 44.0842 26.0701 44.0823C26.0696 44.0794 26.0686 44.0776 26.0679 44.0757C26.067 44.0729 26.0665 44.071 26.0656 44.0691C26.0646 44.0663 26.0635 44.0625 26.0625 44.0594C26.0621 44.0585 26.0616 44.0576 26.0611 44.0557C26.0597 44.051 26.0581 44.0472 26.0566 44.0423L37.263 30.0872L40.2435 42.1852C40.3902 42.7811 40.9242 43.1838 41.5164 43.1838C41.5998 43.1838 41.6843 43.1754 41.769 43.1591L43.3102 42.8579C43.9968 42.7244 44.4577 42.0743 44.3569 41.3816L42.3932 27.8681C42.3125 27.3147 41.8711 26.9073 41.3465 26.8419L43.305 26.6277C43.3498 26.623 43.3945 26.6211 43.438 26.6211C44.0684 26.6211 44.6043 27.1128 44.6429 27.757L45.4644 41.388C45.4825 41.6883 45.3973 41.9726 45.2396 42.2047L45.1104 42.3657L43.5242 44.3405C43.5752 44.3325 43.6266 44.3252 43.679 44.3195C43.7941 44.3071 43.9078 44.3007 44.0189 44.3007C45.3935 44.3007 46.4332 45.246 46.5927 46.7057C46.6758 47.4453 46.4955 48.1196 46.1097 48.6379L40.2506 55.9336L40.2508 55.9326ZM43.4065 44.3941C43.2177 44.3941 43.0235 44.413 42.8246 44.4516C41.2832 44.7528 40.4688 46.0342 40.7564 47.5955C41.012 48.9053 41.9841 49.7705 43.2634 49.7705C43.4531 49.7705 43.6494 49.7515 43.8513 49.7122C45.3895 49.4116 46.2272 48.0879 45.9287 46.585C45.6644 45.2309 44.6631 44.3944 43.4067 44.3944L43.4065 44.3941ZM39.8241 27.0772C39.9451 27.0184 40.0785 26.9786 40.2202 26.9636L40.6387 26.9181L39.8241 27.0772Z" fill="#C54040"/>
<path d="M43.2633 49.7704C41.984 49.7704 41.0119 48.9052 40.7563 47.5954C40.4689 46.0341 41.2831 44.753 42.8245 44.4515C43.0232 44.4129 43.2176 44.394 43.4064 44.394C44.6628 44.394 45.6641 45.2306 45.9284 46.5847C46.2271 48.0875 45.3892 49.4113 43.851 49.7118C43.6491 49.7511 43.4528 49.7702 43.263 49.7702L43.2633 49.7704Z" fill="#A03B3A"/>
<path d="M41.5166 43.1826C40.9244 43.1826 40.3904 42.7798 40.2437 42.1839L37.2632 30.0859L39.4705 27.3382C39.5703 27.2311 39.6896 27.1421 39.8238 27.0776L40.6384 26.9185L41.3467 26.8408C41.8713 26.9063 42.3126 27.3137 42.3934 27.867L44.3571 41.3805C44.4578 42.0732 43.997 42.7231 43.3104 42.8568L41.7692 43.1581C41.6844 43.1743 41.5999 43.1828 41.5166 43.1828V43.1826Z" fill="#A03B3A"/>
<path d="M41.3539 47.2771C41.5203 48.7999 42.6769 49.8191 44.26 49.6461C44.9923 49.5658 45.5892 49.2481 45.9985 48.775C46.0371 48.7305 46.0745 48.6839 46.1098 48.6368C46.4956 48.1185 46.6759 47.4442 46.5928 46.7046C46.4205 45.1267 45.2196 44.1494 43.6789 44.3182C42.9502 44.3977 42.362 44.7037 41.9571 45.1672C41.9147 45.2154 41.8747 45.2656 41.8368 45.3171L41.8359 45.3185C41.4558 45.8335 41.2788 46.5123 41.3539 47.2771Z" fill="#FEFEFE"/>
<path d="M39.1575 28.3548L41.2984 41.8417C41.4083 42.5325 42.0415 43.0167 42.7368 42.9409L44.2975 42.7705C44.6205 42.7345 44.9036 42.5848 45.111 42.3649C45.1583 42.3148 45.2014 42.2606 45.2402 42.2039C45.3979 41.9718 45.4831 41.6875 45.465 41.3872L44.6435 27.7562C44.6023 27.0664 43.9923 26.5518 43.3057 26.6269L40.2206 26.9642C39.9215 26.9964 39.6609 27.1358 39.4712 27.3384C39.4281 27.3839 39.3886 27.4321 39.3533 27.4844C39.1855 27.7299 39.1073 28.0377 39.1577 28.355L39.1575 28.3548Z" fill="#FEFEFE"/>
<path d="M85.3473 97.3521L73.3437 103.961C71.9214 104.745 71.4033 106.533 72.1864 107.955L73.404 110.163L87.983 102.135L85.3473 97.3521Z" fill="#F1F3F4"/>
<path d="M102.563 94.108L87.9834 102.135H87.9829L85.3472 97.3519L97.3514 90.7422C98.7736 89.9589 100.562 90.4771 101.345 91.8993L102.563 94.108H102.563Z" fill="#FEFEFE"/>
<path d="M93.5674 112.28C87.3917 115.944 80.2905 118.212 72.699 118.651L71.041 115.64C70.0188 113.783 70.6953 111.449 72.5516 110.427L73.3161 110.006V110.006L87.8952 101.979H87.8956L93.5674 112.28V112.28Z" fill="#546D8A"/>
<path d="M109.389 96.7415C105.452 103.112 100.014 108.456 93.5673 112.28L87.8955 101.978L102.474 93.9512L102.475 93.9507L103.238 93.5298C105.095 92.5076 107.429 93.1838 108.452 95.0405L109.389 96.7415Z" fill="#5C7A97"/>
<path d="M91.3914 50.0898C91.1795 49.085 91.0065 48.1318 90.8853 47.2181C91.007 48.132 91.18 49.085 91.3914 50.0898ZM90.7168 45.8607C90.5812 45.167 90.2917 44.612 89.9297 44.1909H89.9299C90.2922 44.6118 90.5817 45.167 90.7168 45.8607Z" fill="#B5DCF5"/>
<path d="M91.4776 51.2673C91.2608 51.2673 90.8981 51.2515 90.4612 51.172C89.7455 51.0409 89.3693 50.6045 88.8513 49.9596C88.333 49.3144 88.0529 47.4349 87.9037 46.7498C87.7542 46.0646 87.7373 45.4992 88.1002 44.8623C88.4636 44.2254 89.9072 44.1875 89.9072 44.1875L89.9298 44.1913C90.2918 44.6123 90.5813 45.1674 90.7169 45.861C90.7437 45.9973 90.7642 46.139 90.7783 46.2863C90.8075 46.5923 90.8433 46.903 90.8854 47.2182C91.0066 48.1317 91.1796 49.0852 91.3914 50.09C91.4722 50.4732 91.5583 50.8641 91.6492 51.2633C91.6122 51.2652 91.5538 51.2668 91.4773 51.2668L91.4776 51.2673Z" fill="#FCD5C6"/>
<path d="M87.5929 43.2185C87.2281 43.2764 86.8249 43.9679 86.4631 44.8115C85.7069 46.5737 85.4134 48.4996 85.5819 50.4094L86.5519 61.3973C85.3512 60.5076 84.1798 57.4692 83.7794 53.8037C83.4525 50.8105 84.0172 47.8994 84.4185 46.3902C84.6237 45.6155 85.0144 44.8998 85.5709 44.3224C86.1026 43.7707 86.7628 43.3454 87.5929 43.2183V43.2185Z" fill="#FAB9A1"/>
<path fill-rule="evenodd" clip-rule="evenodd" d="M86.6762 62.6826L85.9809 62.1674C85.5845 61.8734 85.2037 61.4304 84.8497 60.85C84.7948 60.7601 84.7409 60.6671 84.687 60.5711C84.4302 60.1086 84.1883 59.5733 83.9663 58.9745C83.4221 57.5077 83.0276 55.7556 82.8262 53.9076C82.5411 51.2999 82.9038 48.8008 83.2312 47.2435C83.3266 46.7902 83.4186 46.4171 83.4916 46.1439C83.7095 45.3238 84.0993 44.568 84.6287 43.9365L84.7904 45.418C84.715 45.5653 84.6473 45.7169 84.587 45.8718C84.5213 46.0408 84.4648 46.2138 84.4185 46.3901C84.2608 46.9837 84.0776 47.7938 83.9334 48.7407C83.9329 48.7428 83.9327 48.745 83.9324 48.7471C83.932 48.7487 83.9317 48.7501 83.9317 48.752C83.931 48.7558 83.9303 48.7596 83.9301 48.7631C83.9301 48.7638 83.9301 48.7638 83.9296 48.764C83.8077 49.5704 83.7142 50.4752 83.6886 51.4285C83.669 52.1525 83.6888 52.9042 83.7646 53.6629V53.6633C83.7653 53.6685 83.766 53.6742 83.7663 53.6796C83.7663 53.6803 83.7667 53.681 83.7667 53.6817C83.767 53.6866 83.7677 53.6918 83.7681 53.697C83.7681 53.6977 83.7684 53.6986 83.7684 53.6998C83.7688 53.7045 83.7693 53.7095 83.7698 53.7144C83.77 53.7158 83.77 53.7172 83.7705 53.7186C83.771 53.7229 83.7712 53.7276 83.7719 53.7321C83.7719 53.7335 83.7721 53.7351 83.7721 53.7365C83.7726 53.741 83.7731 53.7452 83.7735 53.7497C83.774 53.7514 83.774 53.7535 83.7743 53.7554C83.7745 53.7596 83.775 53.7634 83.7754 53.7676C83.7757 53.77 83.7761 53.7725 83.7764 53.7744C83.7766 53.7784 83.7771 53.7817 83.7773 53.7853C83.778 53.7914 83.7787 53.7975 83.7794 53.8034C83.9049 54.9529 84.1064 56.0413 84.3608 57.0207C84.3613 57.0228 84.3617 57.0249 84.3624 57.0268C84.3624 57.028 84.3627 57.0285 84.3627 57.0292C84.6828 58.259 85.0867 59.317 85.5283 60.1102C85.5287 60.1109 85.529 60.1111 85.5292 60.1119C85.5299 60.1133 85.5306 60.1144 85.5313 60.1156C85.532 60.1173 85.533 60.1187 85.5339 60.1206C85.5344 60.1213 85.5346 60.122 85.5348 60.1227C85.5363 60.125 85.5377 60.1279 85.5396 60.1307C85.5396 60.1307 85.5396 60.1307 85.5396 60.1309C85.8571 60.6972 86.1941 61.1263 86.534 61.3838L86.5648 61.667L86.6757 62.6826H86.6762Z" fill="url(#paint2_linear_759_21840)"/>
<path d="M86.5343 61.3838C86.1944 61.1263 85.8574 60.6973 85.5398 60.131C85.8574 60.6973 86.1944 61.1259 86.5343 61.3838ZM85.5398 60.1307C85.5382 60.1281 85.5368 60.1251 85.5351 60.1227C85.5365 60.1255 85.5379 60.1279 85.5398 60.1307ZM85.5342 60.1206C85.5332 60.119 85.5323 60.1173 85.5316 60.1157C85.5323 60.1173 85.5332 60.1187 85.5342 60.1206ZM85.5295 60.1119C85.529 60.1112 85.5288 60.111 85.5285 60.1102C85.529 60.111 85.5292 60.1117 85.5295 60.1119ZM84.363 57.0292C84.363 57.0285 84.3627 57.0278 84.3627 57.0269C84.3627 57.028 84.363 57.0285 84.363 57.0292ZM84.3608 57.0205C84.1064 56.0413 83.9049 54.9527 83.7795 53.8032C83.8861 54.7816 84.048 55.7163 84.2512 56.5761C84.2862 56.7265 84.3232 56.8746 84.3611 57.0203L84.3608 57.0205ZM83.7795 53.8032C83.7788 53.7973 83.7781 53.7914 83.7774 53.7851C83.7781 53.7909 83.7788 53.7973 83.7795 53.8032ZM83.7764 53.7742C83.7759 53.7723 83.7757 53.7698 83.7755 53.7674C83.7757 53.7698 83.7762 53.7723 83.7764 53.7742ZM83.7743 53.7552C83.7738 53.7533 83.7738 53.7514 83.7736 53.7495C83.7741 53.7512 83.7741 53.753 83.7743 53.7552ZM83.7684 53.6994C83.7684 53.6982 83.7682 53.6973 83.7682 53.6966C83.7682 53.6975 83.7684 53.6982 83.7684 53.6994ZM83.7646 53.6629V53.6624C83.7646 53.6624 83.7646 53.6624 83.7646 53.6629ZM83.9296 48.7636C83.9301 48.7631 83.9301 48.7631 83.9301 48.7627C83.9301 48.7631 83.9301 48.7634 83.9296 48.7636ZM83.9318 48.7514C83.9318 48.7497 83.932 48.7481 83.9325 48.7464C83.932 48.7481 83.9318 48.7499 83.9318 48.7514ZM83.9334 48.7401C84.0777 47.7932 84.2608 46.9828 84.4185 46.3894C84.4651 46.2131 84.5214 46.0401 84.587 45.8711C84.5214 46.0401 84.4654 46.2131 84.4185 46.3894C84.2608 46.983 84.0777 47.7932 83.9334 48.7401Z" fill="#C89481"/>
<defs>
<linearGradient id="paint0_linear_759_21840" x1="82.2478" y1="25.5682" x2="41.7553" y2="91.8482" gradientUnits="userSpaceOnUse">
<stop stop-color="#F1F3F4"/>
<stop offset="1" stop-color="#FEFEFE"/>
</linearGradient>
<linearGradient id="paint1_linear_759_21840" x1="82.248" y1="25.5681" x2="41.7553" y2="91.8483" gradientUnits="userSpaceOnUse">
<stop stop-color="#DCDBD9"/>
<stop offset="1" stop-color="#E5E6E5"/>
</linearGradient>
<linearGradient id="paint2_linear_759_21840" x1="82.443" y1="25.5677" x2="43.7328" y2="91.8482" gradientUnits="userSpaceOnUse">
<stop stop-color="#C3C3C4"/>
<stop offset="1" stop-color="#CCCDCC"/>
</linearGradient>
</defs>
</svg>
