<svg width="12" height="13" viewBox="0 0 12 13" fill="none" xmlns="http://www.w3.org/2000/svg">
<path d="M6.40148 8.90078C6.40148 8.68082 6.22148 8.50082 6.00152 8.50082C5.78156 8.50082 5.60156 8.68094 5.60156 8.90078V10.9008C5.60156 11.1208 5.78156 11.3008 6.00152 11.3008C6.22148 11.3008 6.40148 11.1208 6.40148 10.9008V8.90078Z" fill="#997328"/>
<path d="M6.40148 2.1C6.40148 1.88016 6.22148 1.70004 6.00152 1.70004C5.78156 1.70004 5.60156 1.88016 5.60156 2.1V4.10004C5.60156 4.32 5.78156 4.5 6.00152 4.5C6.22148 4.5 6.40148 4.32 6.40148 4.10004V2.1Z" fill="#997328"/>
<path d="M3.59922 6.90039C3.81918 6.90039 3.99918 6.72039 3.99918 6.50043C3.99918 6.28047 3.81918 6.10047 3.59922 6.10047H1.59918C1.37934 6.10047 1.19922 6.28047 1.19922 6.50043C1.19922 6.72039 1.37934 6.90039 1.59918 6.90039H3.59922Z" fill="#997328"/>
<path d="M10.4 6.90039C10.6198 6.90039 10.8 6.72039 10.8 6.50043C10.8 6.28047 10.6198 6.10047 10.4 6.10047H8.39996C8.18 6.10047 8 6.28047 8 6.50043C8 6.72039 8.18 6.90039 8.39996 6.90039H10.4Z" fill="#997328"/>
<path d="M4.019 5.08649C4.1744 5.242 4.42916 5.242 4.58456 5.08649C4.74008 4.93109 4.74008 4.67632 4.58456 4.52092L3.1706 3.10649C3.01508 2.95097 2.76044 2.95097 2.60492 3.10649C2.4494 3.26189 2.4494 3.51665 2.60492 3.67205L4.019 5.08649Z" fill="#997328"/>
<path d="M8.8276 9.89517C8.983 10.0506 9.23775 10.0506 9.39315 9.89517C9.54868 9.73965 9.54868 9.48501 9.39315 9.32949L7.9792 7.91505C7.82368 7.75965 7.56904 7.75965 7.41352 7.91505C7.25799 8.07057 7.25799 8.32521 7.41352 8.48073L8.8276 9.89517Z" fill="#997328"/>
<path d="M7.41351 4.52092C7.258 4.67632 7.258 4.93109 7.41351 5.08649C7.56891 5.242 7.82368 5.242 7.97908 5.08649L9.39351 3.67205C9.54903 3.51665 9.54903 3.26189 9.39351 3.10649C9.23811 2.95097 8.98335 2.95097 8.82795 3.10649L7.41351 4.52092Z" fill="#997328"/>
<path d="M2.60492 9.32949C2.4494 9.48501 2.4494 9.73965 2.60492 9.89517C2.76032 10.0506 3.01508 10.0506 3.17048 9.89517L4.58492 8.48097C4.74044 8.32557 4.74044 8.07081 4.58492 7.91541C4.42952 7.76001 4.17476 7.76001 4.01936 7.91541L2.60492 9.32949Z" fill="#997328"/>
</svg>
