<svg width="135" height="135" viewBox="0 0 135 135" fill="none" xmlns="http://www.w3.org/2000/svg">
<path d="M66.341 129.69C100.686 129.69 128.529 101.848 128.529 67.5025C128.529 33.157 100.686 5.31445 66.341 5.31445C31.9955 5.31445 4.15295 33.157 4.15295 67.5025C4.15295 101.848 31.9955 129.69 66.341 129.69Z" fill="#D6DCE8"/>
<path d="M121.333 121.76C122.403 123.006 122.244 124.897 120.998 125.967C119.752 127.036 117.875 126.894 116.805 125.648C115.736 124.402 115.864 122.508 117.11 121.439C118.355 120.369 120.264 120.514 121.333 121.76ZM123.911 114.911C124.592 115.704 124.491 116.908 123.698 117.589C122.905 118.27 121.71 118.179 121.029 117.386C120.349 116.593 120.43 115.388 121.223 114.707C122.016 114.026 123.231 114.118 123.911 114.911ZM15.125 115.864C16.1947 117.109 16.0351 119.001 14.7895 120.071C13.5438 121.14 11.6665 120.998 10.5969 119.752C9.52727 118.506 9.65566 116.612 10.9013 115.542C12.147 114.473 14.0555 114.618 15.125 115.864ZM127.643 31.1574C129.28 31.0317 130.711 32.2792 130.837 33.9162C130.963 35.5533 129.737 36.9826 128.1 37.1083C126.463 37.234 125.012 36.0102 124.886 34.3731C124.76 32.7361 126.006 31.2831 127.643 31.1574ZM123.646 25.028C124.688 24.948 125.599 25.742 125.679 26.784C125.759 27.8259 124.979 28.7356 123.937 28.8156C122.895 28.8956 121.971 28.1167 121.891 27.0748C121.811 26.0328 122.604 25.108 123.646 25.028Z" fill="#D6DCE8"/>
<path d="M65.0884 88.5534V120.302L101.566 109.377C102.381 109.132 102.931 108.372 102.909 107.522L101.914 76.5117L65.0884 88.5534Z" fill="url(#paint0_linear_867_30368)"/>
<path d="M65.0885 88.5534V120.302L28.6113 109.377C27.796 109.132 27.2454 108.372 27.2675 107.522L28.2632 76.5117L65.0885 88.5534Z" fill="url(#paint1_linear_867_30368)"/>
<path d="M28.2916 76.4852L65.0976 65.0752V88.5812L28.2916 76.4852Z" fill="#989FB0"/>
<path d="M101.904 76.4852L65.0977 65.0752V88.5812L101.904 76.4852Z" fill="#AAB2C5"/>
<path d="M65.0884 65.1033L77.8647 56.2807C78.2237 56.0032 78.6985 55.9256 79.1273 56.0741L112.995 67.8097C114.039 68.1714 114.226 69.5679 113.313 70.191L101.914 76.5122L65.0884 65.1033Z" fill="url(#paint2_linear_867_30368)"/>
<path d="M65.0884 65.1033L52.3121 56.2807C51.9531 56.0032 51.4783 55.9256 51.0495 56.0741L17.1818 67.8097C16.1378 68.1714 15.9513 69.5679 16.8637 70.191L28.2632 76.5122L65.0884 65.1033Z" fill="url(#paint3_linear_867_30368)"/>
<path d="M65.0884 88.5534L78.0538 95.7257C78.3993 95.9573 78.8325 96.0161 79.2272 95.8848L113.49 84.4899C114.573 84.1298 114.743 82.6692 113.772 82.0695L101.914 76.5117L65.0884 88.5534Z" fill="url(#paint4_linear_867_30368)"/>
<path d="M65.0884 88.5534L52.123 95.7257C51.7775 95.9573 51.3443 96.0161 50.9496 95.8848L16.6869 84.4899C15.6039 84.1298 15.4336 82.6692 16.4047 82.0695L28.2632 76.5117L65.0884 88.5534Z" fill="url(#paint5_linear_867_30368)"/>
<path d="M115.224 55.7821C115.224 56.0436 115.01 56.2576 114.749 56.2576C112.814 56.2576 111.24 57.8314 111.24 59.7665C111.24 60.028 111.026 60.242 110.765 60.242C110.503 60.242 110.289 60.028 110.289 59.7665C110.289 57.8314 108.715 56.2576 106.78 56.2576C106.519 56.2576 106.305 56.0436 106.305 55.7821C106.305 55.5206 106.519 55.3066 106.78 55.3066C108.715 55.3066 110.289 53.7329 110.289 51.7977C110.289 51.5362 110.503 51.3223 110.765 51.3223C111.026 51.3223 111.24 51.5362 111.24 51.7977C111.24 53.7329 112.814 55.3066 114.749 55.3066C115.01 55.3066 115.224 55.5206 115.224 55.7821Z" fill="#F1F3F9"/>
<path d="M43.8627 22.9411C43.8627 23.123 43.7138 23.2718 43.5319 23.2718C42.1859 23.2718 41.0912 24.3665 41.0912 25.7126C41.0912 25.8945 40.9423 26.0433 40.7604 26.0433C40.5785 26.0433 40.4297 25.8945 40.4297 25.7126C40.4297 24.3665 39.335 23.2718 37.9889 23.2718C37.807 23.2718 37.6582 23.123 37.6582 22.9411C37.6582 22.7592 37.807 22.6104 37.9889 22.6104C39.335 22.6104 40.4297 21.5157 40.4297 20.1696C40.4297 19.9877 40.5785 19.8389 40.7604 19.8389C40.9423 19.8389 41.0912 19.9877 41.0912 20.1696C41.0912 21.5157 42.1859 22.6104 43.5319 22.6104C43.7138 22.6104 43.8627 22.7592 43.8627 22.9411Z" fill="#F1F3F9"/>
<path d="M21.2356 57.8047C21.2356 58.0711 21.0177 58.289 20.7513 58.289C18.7801 58.289 17.177 59.8922 17.177 61.8634C17.177 62.1297 16.959 62.3477 16.6926 62.3477C16.4263 62.3477 16.2083 62.1297 16.2083 61.8634C16.2083 59.8922 14.6052 58.289 12.634 58.289C12.3676 58.289 12.1497 58.0711 12.1497 57.8047C12.1497 57.5383 12.3676 57.3204 12.634 57.3204C14.6052 57.3204 16.2083 55.7173 16.2083 53.746C16.2083 53.4797 16.4263 53.2617 16.6926 53.2617C16.959 53.2617 17.177 53.4797 17.177 53.746C17.177 55.7173 18.7801 57.3204 20.7513 57.3204C21.0177 57.3204 21.2356 57.5383 21.2356 57.8047Z" fill="#F1F3F9"/>
<path d="M98.5804 22.9405C98.5804 23.2068 98.3624 23.4248 98.096 23.4248C96.1248 23.4248 94.5217 25.0279 94.5217 26.9991C94.5217 27.2655 94.3037 27.4834 94.0374 27.4834C93.771 27.4834 93.553 27.2655 93.553 26.9991C93.553 25.0279 91.9499 23.4248 89.9787 23.4248C89.7123 23.4248 89.4944 23.2068 89.4944 22.9405C89.4944 22.6741 89.7123 22.4561 89.9787 22.4561C91.9499 22.4561 93.553 20.853 93.553 18.8818C93.553 18.6154 93.771 18.3975 94.0374 18.3975C94.3037 18.3975 94.5217 18.6154 94.5217 18.8818C94.5217 20.853 96.1248 22.4561 98.096 22.4561C98.3624 22.4561 98.5804 22.6741 98.5804 22.9405Z" fill="#F1F3F9"/>
<defs>
<linearGradient id="paint0_linear_867_30368" x1="83.9996" y1="84.9504" x2="83.9996" y2="110.577" gradientUnits="userSpaceOnUse">
<stop stop-color="#D6DCE8"/>
<stop offset="1" stop-color="#F1F3F9"/>
</linearGradient>
<linearGradient id="paint1_linear_867_30368" x1="46.9307" y1="84.7384" x2="46.3337" y2="107.887" gradientUnits="userSpaceOnUse">
<stop stop-color="#D6DCE8"/>
<stop offset="1" stop-color="#F1F3F9"/>
</linearGradient>
<linearGradient id="paint2_linear_867_30368" x1="85.9686" y1="71.7208" x2="95.8836" y2="59.3708" gradientUnits="userSpaceOnUse">
<stop stop-color="#D6DCE8"/>
<stop offset="1" stop-color="#F1F3F9"/>
</linearGradient>
<linearGradient id="paint3_linear_867_30368" x1="30.4657" y1="54.2278" x2="46.4927" y2="74.7728" gradientUnits="userSpaceOnUse">
<stop stop-color="#D6DCE8"/>
<stop offset="1" stop-color="#F1F3F9"/>
</linearGradient>
<linearGradient id="paint4_linear_867_30368" x1="92.5116" y1="93.1514" x2="87.7266" y2="80.3434" gradientUnits="userSpaceOnUse">
<stop stop-color="#D6DCE8"/>
<stop offset="1" stop-color="#F1F3F9"/>
</linearGradient>
<linearGradient id="paint5_linear_867_30368" x1="44.7937" y1="81.6734" x2="29.9227" y2="94.9874" gradientUnits="userSpaceOnUse">
<stop stop-color="#D6DCE8"/>
<stop offset="1" stop-color="#F1F3F9"/>
</linearGradient>
</defs>
</svg>
