<svg width="56" height="56" viewBox="0 0 56 56" fill="none" xmlns="http://www.w3.org/2000/svg">
<path d="M37.3334 39.6674V44.3341H4.66669V39.6674C4.66669 39.6674 4.66669 30.3341 21 30.3341C37.3334 30.3341 37.3334 39.6674 37.3334 39.6674ZM29.1667 17.5007C29.1667 15.8855 28.6877 14.3066 27.7904 12.9636C26.893 11.6206 25.6175 10.5738 24.1253 9.95572C22.633 9.33761 20.991 9.17588 19.4068 9.49099C17.8226 9.8061 16.3674 10.5839 15.2253 11.726C14.0832 12.8682 13.3054 14.3233 12.9903 15.9075C12.6752 17.4917 12.8369 19.1337 13.455 20.626C14.0731 22.1182 15.1199 23.3937 16.4629 24.2911C17.8059 25.1884 19.3848 25.6674 21 25.6674C23.166 25.6674 25.2432 24.807 26.7747 23.2754C28.3063 21.7439 29.1667 19.6667 29.1667 17.5007ZM37.1934 30.3341C38.6278 31.4441 39.8015 32.8551 40.6319 34.4676C41.4624 36.0801 41.9294 37.855 42 39.6674V44.3341H51.3334V39.6674C51.3334 39.6674 51.3334 31.1974 37.1934 30.3341ZM35 9.33407C33.3942 9.3266 31.8239 9.80664 30.4967 10.7107C31.9141 12.6911 32.6762 15.0654 32.6762 17.5007C32.6762 19.9361 31.9141 22.3104 30.4967 24.2907C31.8239 25.1948 33.3942 25.6749 35 25.6674C37.166 25.6674 39.2432 24.807 40.7747 23.2754C42.3063 21.7439 43.1667 19.6667 43.1667 17.5007C43.1667 15.3348 42.3063 13.2576 40.7747 11.726C39.2432 10.1945 37.166 9.33407 35 9.33407Z" fill="white"/>
</svg>
