<svg width="128" height="128" viewBox="0 0 128 128" fill="none" xmlns="http://www.w3.org/2000/svg">
<path d="M21.332 53.3333C21.332 43.2747 21.332 38.2507 24.4574 35.1253C27.5827 32 32.6067 32 42.6654 32H85.332C95.3907 32 100.415 32 103.54 35.1253C106.665 38.2507 106.665 43.2747 106.665 53.3333V64C106.665 69.0293 106.665 71.5413 105.103 73.104C103.54 74.6667 101.028 74.6667 95.9987 74.6667H92.2654C91.5134 74.6667 91.1347 74.6667 90.9 74.432C90.6654 74.1973 90.6654 73.8187 90.6654 73.0667V69.3333C90.6654 64.304 90.6654 61.792 89.1027 60.2293C87.54 58.6667 85.028 58.6667 79.9987 58.6667H47.9987C42.9694 58.6667 40.4574 58.6667 38.8947 60.2293C37.332 61.792 37.332 64.304 37.332 69.3333V73.0667C37.332 73.8187 37.332 74.1973 37.0974 74.432C36.8627 74.6667 36.484 74.6667 35.732 74.6667H26.6654C24.1534 74.6667 22.8947 74.6667 22.1107 73.888C21.332 73.104 21.332 71.84 21.332 69.3333V53.3333Z" fill="#0094A1"/>
<path d="M37.332 108.063V69.3327C37.332 64.3033 37.332 61.7914 38.8947 60.2287C40.4574 58.666 42.9694 58.666 47.9987 58.666H79.9987C85.028 58.666 87.54 58.666 89.1027 60.2287C90.6654 61.7914 90.6654 64.3033 90.6654 69.3327V108.063C90.6654 109.845 90.6654 110.735 90.0787 111.135C89.492 111.535 88.6654 111.199 87.0067 110.538L78.324 107.061C78.0157 106.899 77.6787 106.799 77.332 106.767C76.9854 106.799 76.6484 106.899 76.34 107.061L64.9907 111.605C64.6823 111.766 64.3453 111.866 63.9987 111.898C63.6521 111.866 63.315 111.766 63.0067 111.605L51.6574 107.061C51.349 106.899 51.012 106.799 50.6654 106.767C50.3187 106.799 49.9817 106.899 49.6734 107.061L40.9907 110.538C39.332 111.199 38.5054 111.53 37.9187 111.135C37.332 110.735 37.332 109.845 37.332 108.063Z" fill="#0094A1" fill-opacity="0.25"/>
<path d="M50.6641 77.334H71.9974M50.6641 93.334H77.3307" stroke="#0094A1" stroke-linecap="round"/>
<path d="M37.332 25.28C37.332 21.584 37.332 19.7387 38.2067 18.4107C38.6079 17.7987 39.1307 17.2759 39.7427 16.8747C41.076 16 42.916 16 46.6067 16H81.3907C85.0814 16 86.9267 16 88.26 16.8747C88.87 17.2764 89.391 17.7992 89.7907 18.4107C90.6654 19.744 90.6654 21.584 90.6654 25.2747C90.6654 25.8293 90.6654 26.1067 90.532 26.304C90.4677 26.3917 90.3904 26.469 90.3027 26.5333C90.1054 26.6667 89.8227 26.6667 89.2787 26.6667H38.724C38.1694 26.6667 37.892 26.6667 37.6947 26.5333C37.607 26.469 37.5297 26.3917 37.4654 26.304C37.332 26.1067 37.332 25.824 37.332 25.28Z" fill="#0094A1"/>
</svg>
