<svg width="56" height="56" viewBox="0 0 56 56" fill="none" xmlns="http://www.w3.org/2000/svg">
<path d="M51.333 13.9995V19.6462C51.333 23.3329 48.9997 25.6662 45.313 25.6662H37.333V9.35621C37.333 6.76621 39.4563 4.64287 42.0463 4.66621C44.5897 4.68954 46.923 5.71621 48.603 7.39621C50.283 9.09954 51.333 11.4329 51.333 13.9995Z" fill="#0094A1"/>
<path opacity="0.4" d="M4.66699 16.3327V48.9993C4.66699 50.936 6.86033 52.0327 8.40033 50.866L12.3903 47.8793C13.3237 47.1793 14.6303 47.2727 15.4703 48.1127L19.3437 52.0093C20.2537 52.9193 21.747 52.9193 22.657 52.0093L26.577 48.0893C27.3937 47.2727 28.7003 47.1793 29.6103 47.8793L33.6003 50.866C35.1403 52.0093 37.3337 50.9127 37.3337 48.9993V9.33268C37.3337 6.76602 39.4337 4.66602 42.0003 4.66602H16.3337H14.0003C7.00033 4.66602 4.66699 8.84268 4.66699 13.9993V16.3327Z" fill="#0094A1"/>
<path d="M28 28.6055H21C20.0433 28.6055 19.25 29.3988 19.25 30.3555C19.25 31.3121 20.0433 32.1055 21 32.1055H28C28.9567 32.1055 29.75 31.3121 29.75 30.3555C29.75 29.3988 28.9567 28.6055 28 28.6055Z" fill="#0094A1"/>
<path d="M21 22.7734H28C28.9567 22.7734 29.75 21.9801 29.75 21.0234C29.75 20.0668 28.9567 19.2734 28 19.2734H21C20.0433 19.2734 19.25 20.0668 19.25 21.0234C19.25 21.9801 20.0433 22.7734 21 22.7734Z" fill="#0094A1"/>
<path d="M13.93 18.6895C12.6233 18.6895 11.5967 19.7395 11.5967 21.0228C11.5967 22.3061 12.6467 23.3561 13.93 23.3561C15.2133 23.3561 16.2633 22.3061 16.2633 21.0228C16.2633 19.7395 15.2133 18.6895 13.93 18.6895Z" fill="#0094A1"/>
<path d="M13.93 28.0234C12.6233 28.0234 11.5967 29.0734 11.5967 30.3568C11.5967 31.6401 12.6467 32.6901 13.93 32.6901C15.2133 32.6901 16.2633 31.6401 16.2633 30.3568C16.2633 29.0734 15.2133 28.0234 13.93 28.0234Z" fill="#0094A1"/>
</svg>
