<svg width="91" height="99" viewBox="0 0 91 99" fill="none" xmlns="http://www.w3.org/2000/svg">
<path d="M46.4241 80.9205C65.9819 80.9205 81.8366 65.0659 81.8366 45.5081C81.8366 25.9504 65.9819 10.0957 46.4241 10.0957C26.8664 10.0957 11.0117 25.9504 11.0117 45.5081C11.0117 65.0659 26.8664 80.9205 46.4241 80.9205Z" fill="#0094A1"/>
<path d="M41.8603 57.2721C41.4258 57.2972 40.9909 57.2293 40.5847 57.0731C40.1785 56.9169 39.8104 56.6758 39.5046 56.3661C36.3652 53.2312 33.2288 50.0933 30.0954 46.9524C28.7975 45.6432 28.8065 43.736 30.0614 42.4766C31.3162 41.2172 33.2326 41.2466 34.5372 42.54C36.822 44.796 39.0916 47.0679 41.3461 49.3556C41.7267 49.743 41.9214 49.7475 42.3201 49.3806C47.6189 44.497 52.926 39.6233 58.2414 34.7594C59.0025 34.0595 59.8564 33.6427 60.8983 33.7741C62.2076 33.9394 63.1249 34.6597 63.5417 35.9101C63.9585 37.1604 63.6437 38.2975 62.6855 39.1967C61.0071 40.7823 59.2879 42.3157 57.5981 43.8741C53.0997 47.9966 48.6019 52.1206 44.1049 56.2461C43.4322 56.8576 42.6984 57.2993 41.8603 57.2721Z" fill="white"/>
<path d="M8.48595 16.5832C11.5546 16.5832 14.0422 14.0956 14.0422 11.027C14.0422 7.95833 11.5546 5.4707 8.48595 5.4707C5.41731 5.4707 2.92969 7.95833 2.92969 11.027C2.92969 14.0956 5.41731 16.5832 8.48595 16.5832Z" fill="#F0A75A"/>
<path d="M85.443 69.9387C88.5116 69.9387 90.9993 67.4511 90.9993 64.3824C90.9993 61.3138 88.5116 58.8262 85.443 58.8262C82.3743 58.8262 79.8867 61.3138 79.8867 64.3824C79.8867 67.4511 82.3743 69.9387 85.443 69.9387Z" fill="#F0A75A"/>
<path d="M45.1227 98.4348C48.1913 98.4348 50.6789 95.9472 50.6789 92.8785C50.6789 89.8099 48.1913 87.3223 45.1227 87.3223C42.054 87.3223 39.5664 89.8099 39.5664 92.8785C39.5664 95.9472 42.054 98.4348 45.1227 98.4348Z" fill="#B2DFE3"/>
<path d="M81.5427 23.1674C82.7399 23.1674 83.7104 22.1969 83.7104 20.9997C83.7104 19.8025 82.7399 18.832 81.5427 18.832C80.3455 18.832 79.375 19.8025 79.375 20.9997C79.375 22.1969 80.3455 23.1674 81.5427 23.1674Z" fill="#E57A1A"/>
<path d="M76.8474 89.6967C78.0446 89.6967 79.0151 88.7262 79.0151 87.529C79.0151 86.3318 78.0446 85.3613 76.8474 85.3613C75.6502 85.3613 74.6797 86.3318 74.6797 87.529C74.6797 88.7262 75.6502 89.6967 76.8474 89.6967Z" fill="#E57A1A"/>
<path d="M3.26399 65.5221C5.06665 65.5221 6.52799 64.0608 6.52799 62.2581C6.52799 60.4555 5.06665 58.9941 3.26399 58.9941C1.46134 58.9941 0 60.4555 0 62.2581C0 64.0608 1.46134 65.5221 3.26399 65.5221Z" fill="#E57A1A"/>
<path d="M58.2718 6.52799C60.0745 6.52799 61.5358 5.06665 61.5358 3.26399C61.5358 1.46134 60.0745 0 58.2718 0C56.4692 0 55.0078 1.46134 55.0078 3.26399C55.0078 5.06665 56.4692 6.52799 58.2718 6.52799Z" fill="#B2DFE3"/>
</svg>
