<svg width="36" height="36" viewBox="0 0 36 36" fill="none" xmlns="http://www.w3.org/2000/svg">
<path d="M33.0001 18.9304V22.0204C33.0001 22.8604 32.3101 23.5504 31.4551 23.5504H28.5601C26.9401 23.5504 25.4551 22.3654 25.3201 20.7454C25.2301 19.8004 25.5901 18.9154 26.2201 18.3004C26.7751 17.7304 27.5401 17.4004 28.3801 17.4004H31.4551C32.3101 17.4004 33.0001 18.0904 33.0001 18.9304Z" fill="#EA4336"/>
<path d="M23.07 20.9396C22.935 19.3646 23.505 17.8196 24.645 16.6946C25.605 15.7196 26.94 15.1496 28.38 15.1496H29.235C29.655 15.1496 30 14.8046 29.94 14.3846C29.535 11.4746 27.015 9.22461 24 9.22461H9C5.685 9.22461 3 11.9096 3 15.2246V25.7246C3 29.0396 5.685 31.7246 9 31.7246H24C27.03 31.7246 29.535 29.4746 29.94 26.5646C30 26.1446 29.655 25.7996 29.235 25.7996H28.56C25.71 25.7996 23.31 23.6696 23.07 20.9396ZM19.5 17.8496H10.5C9.885 17.8496 9.375 17.3546 9.375 16.7246C9.375 16.0946 9.885 15.5996 10.5 15.5996H19.5C20.115 15.5996 20.625 16.1096 20.625 16.7246C20.625 17.3396 20.115 17.8496 19.5 17.8496Z" fill="#EA4336"/>
<path d="M21.315 5.97039C21.705 6.37539 21.36 6.97539 20.79 6.97539H9.04498C7.40998 6.97539 5.87998 7.45539 4.60498 8.28039C4.01998 8.65539 3.22498 8.25039 3.50998 7.60539C4.34998 5.64039 6.31498 4.27539 8.57998 4.27539H17.01C18.75 4.27539 20.295 4.89039 21.315 5.97039Z" fill="#EA4336"/>
</svg>
