<svg width="356" height="356" viewBox="0 0 356 356" fill="none" xmlns="http://www.w3.org/2000/svg">
<path d="M52.1107 332.086C121.592 363.713 234.231 363.713 303.712 332.086C373.193 300.46 373.185 249.12 303.712 217.477C234.239 185.834 121.592 185.85 52.1107 217.477C-17.3702 249.103 -17.3702 300.46 52.1107 332.086Z" fill="#F5F5F5"/>
<path d="M298.14 289.016C321.031 289.016 339.587 280.172 339.587 269.262C339.587 258.352 321.031 249.508 298.14 249.508C275.25 249.508 256.693 258.352 256.693 269.262C256.693 280.172 275.25 289.016 298.14 289.016Z" fill="#E0E0E0"/>
<path d="M55.2409 299.323C78.1314 299.323 96.6878 290.479 96.6878 279.569C96.6878 268.659 78.1314 259.815 55.2409 259.815C32.3504 259.815 13.7939 268.659 13.7939 279.569C13.7939 290.479 32.3504 299.323 55.2409 299.323Z" fill="#E0E0E0"/>
<path d="M30.6134 275.386H38.2119V262.378H30.6134V275.386Z" fill="#B16668"/>
<path d="M61.6807 265.541L69.2791 265.8L69.6603 252.039L61.6807 251.779V265.541Z" fill="#B16668"/>
<path d="M32.8841 170.142C32.8841 177.392 33.2652 219.431 33.2652 219.431C33.0868 221.515 31.0838 225.229 30.9216 232.746C30.6945 243.645 30.2891 268.89 30.2891 268.89C31.6015 269.533 33.0389 269.881 34.5001 269.909C35.9614 269.937 37.411 269.644 38.7471 269.052C38.7471 269.052 46.7997 233.152 48.1621 222.383C49.3461 212.959 51.4058 187.374 51.4058 187.374L57.2121 219.212C56.3202 223.171 55.9899 227.236 56.2309 231.287C56.5877 236.274 61.21 261.291 61.21 261.291C62.5342 262.039 64.0063 262.487 65.5224 262.603C67.0385 262.719 68.5617 262.501 69.9844 261.964C69.9844 261.964 70.4385 222.715 70.5196 218.174C70.625 212.951 68.3463 168.034 68.3463 168.034L32.8841 170.142Z" fill="#37474F"/>
<path d="M38.2119 271.639V270.553C38.6173 270.553 38.8687 270.95 39.0228 271.923C39.1307 272.647 39.2768 273.364 39.4607 274.072C39.8009 275.403 40.2456 276.704 40.7906 277.965C41.8611 280.608 42.7612 281.598 45.2265 284.687C46.0671 285.544 46.8551 286.452 47.5863 287.404C48.0404 288.215 48.2026 290.494 47.4241 291.013C44.5534 292.926 40.1987 292.983 37.1171 292.075C35.9688 291.756 34.9368 291.113 34.1444 290.223C33.352 289.332 32.8328 288.233 32.6489 287.055C32.5353 286.35 32.5759 285.636 32.4948 284.931C32.2281 283.328 31.577 281.815 30.5972 280.519C30.0222 279.765 29.5326 278.949 29.1375 278.086C28.4969 276.521 29.0078 274.77 29.4132 273.221C29.77 271.875 30.1512 270.399 30.6053 270.528V271.339C31.6894 272.188 33.0316 272.641 34.4086 272.621C35.5277 272.71 38.22 272.483 38.2119 271.639Z" fill="#263238"/>
<path d="M69.36 263.456C69.7492 263.456 70.0736 264.032 70.9818 264.972C72.2819 266.293 73.7917 267.389 75.4501 268.216C78.2965 269.643 83.8271 271.833 86.3247 272.96C87.8898 273.666 87.8169 275.555 86.2031 276.626C84.5893 277.696 80.6806 278.474 76.0015 277.436C73.4471 276.869 70.1222 274.509 68.0219 274.639C65.9216 274.769 61.9804 274.736 60.4315 273.666C58.8827 272.595 59.499 270.308 59.9369 268.346C60.4153 266.197 61.0154 262.856 61.7209 263.002V263.74C62.6373 265.126 67.3488 265.686 69.36 264.672V263.456Z" fill="#263238"/>
<path d="M51.3652 187.375C55.2791 186.145 58.8771 184.075 61.9074 181.309C61.9074 181.309 59.8638 185.129 53.798 188.689L56.7336 217.006L51.3652 187.375Z" fill="#263238"/>
<path d="M63.4397 152.788C58.4767 136.262 59.458 122.265 58.5254 117.983L71.249 135.751C71.7875 141.607 72.6566 147.428 73.8521 153.186C75.3199 159.503 77.3229 167.377 79.7233 172.275C80.1588 173.138 80.894 173.813 81.7911 174.173C84.224 175.154 85.3106 176.395 87.2325 177.814C88.7409 178.933 89.8843 179.079 89.7951 179.533C89.6285 180.044 89.2757 180.474 88.807 180.737C88.3383 180.999 87.7878 181.076 87.265 180.952C86.1046 180.709 84.9775 180.328 83.9077 179.817C84.9867 181.648 86.3561 183.291 87.9624 184.683C91.644 187.886 92.1711 190.148 86.0567 191.259C82.2209 191.965 78.7582 190.124 74.3873 182.161C72.7316 179.262 71.2871 176.249 70.065 173.143C67.1456 165.034 64.9399 157.792 63.4397 152.788Z" fill="#B16668"/>
<path d="M57.4961 113.871C61.4454 114.568 65.3541 115.493 67.7788 119.288C70.2035 123.083 73.7067 140.997 73.7067 140.997C73.7067 140.997 68.614 144.573 62.7753 144.419L57.4961 113.871Z" fill="#0094A1"/>
<path opacity="0.1" d="M57.4961 113.871C61.4454 114.568 65.3541 115.493 67.7788 119.288C70.2035 123.083 73.7067 140.997 73.7067 140.997C73.7067 140.997 68.614 144.573 62.7753 144.419L57.4961 113.871Z" fill="black"/>
<path d="M30.2813 120.529C27.6295 122.418 13.6409 154.012 13.1057 156.21C12.3839 159.202 12.7164 162.552 14.1842 163.638C15.652 164.725 18.8876 163.168 20.5825 161.514C23.8262 158.27 35.1793 134.639 35.1793 134.639L30.2813 120.529Z" fill="#9A4A4D"/>
<path d="M44.1887 113.944C37.7013 115.501 29.5919 118.104 26.6969 124.04C23.8018 129.976 19.3984 139.618 19.3984 139.618C22.3991 142.546 26.0591 144.71 30.0704 145.927L33.3141 140.251L32.8356 170.256C38.0662 174.067 57.2773 176.143 68.2898 168.098C68.2898 168.098 66.9436 132.125 66.9436 126.522C66.9436 120.918 63.8296 114.196 55.2418 113.693L44.1887 113.944Z" fill="#0094A1"/>
<path opacity="0.1" d="M33.3629 140.178C33.3629 140.178 36.6066 134.575 37.2959 133.22L33.2412 147.006L33.3629 140.178Z" fill="black"/>
<path d="M56.4826 99.3802C62.2467 99.3802 66.9194 94.7075 66.9194 88.9435C66.9194 83.1794 62.2467 78.5067 56.4826 78.5067C50.7186 78.5067 46.0459 83.1794 46.0459 88.9435C46.0459 94.7075 50.7186 99.3802 56.4826 99.3802Z" fill="#263238"/>
<path d="M38.4307 96.3637C38.4307 96.3637 40.1255 104.311 40.8067 105.617C41.2567 106.423 42.0004 107.024 42.8827 107.295L42.7692 101.708L38.4307 96.3637Z" fill="#263238"/>
<path d="M40.556 84.9777C39.964 84.9101 39.3644 84.9779 38.8025 85.176C38.2406 85.3741 37.731 85.6972 37.3123 86.1211C35.9256 87.5402 36.7041 92.0004 38.4314 96.3632L41.6183 96.7281L40.556 84.9777Z" fill="#263238"/>
<path d="M42.5746 96.7359C41.9339 97.117 41.0257 95.8844 40.2391 95.0654C39.4525 94.2463 36.8737 93.111 35.5924 95.8114C34.3111 98.5118 36.7277 102.21 38.755 102.85C42.2421 103.945 42.8097 101.707 42.8097 101.707L43.0611 114.682C47.3996 120.245 59.442 119.775 54.4142 113.968V110.133C55.9685 110.385 57.5457 110.466 59.1177 110.376C61.6883 109.978 63.3021 107.943 64.0806 105.178C65.3294 100.718 65.8079 97.0684 64.7455 88.3346C63.5859 78.7169 52.395 78.6034 46.3535 82.4229C40.312 86.2424 42.5746 96.7359 42.5746 96.7359Z" fill="#B16668"/>
<path d="M42.5746 97.8065C42.2502 97.8065 41.0338 95.7872 40.2391 95.0655C39.1362 94.0599 40.5554 84.9775 40.5554 84.9775C40.182 84.183 40.0551 83.295 40.191 82.4279C40.3269 81.5607 40.7193 80.754 41.3176 80.1118C42.826 78.4494 44.9344 76.414 51.7787 77.2249C56.6443 77.8088 61.9803 79.3252 66.2782 77.2249C66.6777 78.6261 66.6487 80.1148 66.1949 81.4993C65.7411 82.8838 64.8833 84.1009 63.7319 84.9937C63.7319 84.9937 62.1749 85.9911 58.0554 86.4939C54.2725 86.7777 50.4713 86.7044 46.7022 86.275C45.5183 86.1128 45.2669 87.2643 44.6263 90.4026C44.1235 93.1193 43.6531 97.7903 42.5746 97.8065Z" fill="#263238"/>
<path d="M40.5632 85.6826L36.7031 83.6067C36.8271 83.3477 37.0021 83.1164 37.2176 82.9267C37.4332 82.737 37.6848 82.5928 37.9574 82.5027C38.23 82.4126 38.518 82.3784 38.8041 82.4023C39.0902 82.4262 39.3686 82.5076 39.6225 82.6416C40.1406 82.93 40.5275 83.407 40.7028 83.9735C40.878 84.5399 40.828 85.1521 40.5632 85.6826Z" fill="#263238"/>
<path d="M54.3737 110.124C54.3737 110.124 48.6485 108.973 46.6455 107.91C45.467 107.296 44.5007 106.341 43.8721 105.169C44.1747 106.345 44.7096 107.448 45.4453 108.413C46.9131 110.286 54.3656 111.657 54.3656 111.657L54.3737 110.124Z" fill="#9A4A4D"/>
<path d="M52.9871 95.2924C52.9915 95.6028 52.8729 95.9024 52.6571 96.1258C52.4414 96.3491 52.1461 96.478 51.8356 96.4844C51.5287 96.4718 51.2387 96.3404 51.0269 96.118C50.8151 95.8956 50.6979 95.5995 50.7003 95.2924C50.696 94.9819 50.8146 94.6823 51.0303 94.4589C51.2461 94.2356 51.5414 94.1067 51.8518 94.1003C52.1587 94.1129 52.4487 94.2443 52.6606 94.4667C52.8724 94.6892 52.9895 94.9852 52.9871 95.2924Z" fill="#263238"/>
<path d="M51.7793 90.9618L49.3464 92.3242C49.1697 91.987 49.1301 91.5946 49.2359 91.2288C49.3416 90.8631 49.5846 90.5525 49.9141 90.3617C50.0753 90.2755 50.2522 90.2226 50.4343 90.2061C50.6164 90.1897 50.7999 90.2101 50.974 90.2661C51.148 90.3221 51.309 90.4125 51.4473 90.5321C51.5857 90.6516 51.6986 90.7977 51.7793 90.9618Z" fill="#263238"/>
<path d="M53.8551 103.232L56.4825 104.213C56.4261 104.39 56.3344 104.553 56.2131 104.693C56.0917 104.834 55.9431 104.948 55.7763 105.029C55.6095 105.11 55.4279 105.156 55.2427 105.165C55.0574 105.174 54.8722 105.145 54.6984 105.081C54.3452 104.942 54.0596 104.672 53.9021 104.327C53.7447 103.982 53.7278 103.589 53.8551 103.232Z" fill="#9A4A4D"/>
<path d="M63.2372 91.9196L60.999 90.2005C61.1029 90.0477 61.2372 89.918 61.3933 89.8194C61.5495 89.7208 61.7243 89.6554 61.9069 89.6272C62.0895 89.5991 62.2759 89.6088 62.4545 89.6558C62.6331 89.7028 62.8002 89.7861 62.9453 89.9004C63.2429 90.1359 63.439 90.4764 63.4933 90.8519C63.5476 91.2275 63.4559 91.6096 63.2372 91.9196Z" fill="#263238"/>
<path d="M62.5481 94.976C62.5386 95.2015 62.463 95.4191 62.3309 95.602C62.1987 95.7848 62.0157 95.9248 61.8046 96.0046C61.5935 96.0843 61.3637 96.1003 61.1436 96.0505C60.9235 96.0008 60.7229 95.8874 60.5667 95.7246C60.4105 95.5618 60.3055 95.3567 60.2649 95.1347C60.2243 94.9128 60.2498 94.6838 60.3382 94.4762C60.4266 94.2686 60.574 94.0915 60.7622 93.967C60.9504 93.8425 61.171 93.776 61.3966 93.7758C61.551 93.779 61.7033 93.8126 61.8448 93.8746C61.9862 93.9366 62.1141 94.0259 62.221 94.1374C62.3279 94.2488 62.4119 94.3803 62.468 94.5242C62.5241 94.6681 62.5514 94.8216 62.5481 94.976Z" fill="#263238"/>
<path d="M56.7012 93.8814L57.0742 100.791L60.6829 99.558L56.7012 93.8814Z" fill="#9A4A4D"/>
<path d="M26.1369 175.47C26.0294 175.47 25.9262 175.427 25.8502 175.351C25.7742 175.275 25.7314 175.172 25.7314 175.064V47.5202C25.7314 47.4126 25.7742 47.3095 25.8502 47.2335C25.9262 47.1574 26.0294 47.1147 26.1369 47.1147C26.2445 47.1147 26.3476 47.1574 26.4236 47.2335C26.4997 47.3095 26.5424 47.4126 26.5424 47.5202V175.064C26.5424 175.172 26.4997 175.275 26.4236 175.351C26.3476 175.427 26.2445 175.47 26.1369 175.47Z" fill="#37474F"/>
<path d="M29.218 58.6218C29.218 57.3162 26.5176 53.7562 25.9743 53.7562C25.4309 53.7562 23.0225 57.2514 23.0225 58.6218C23.0471 58.8935 23.1434 59.1538 23.3015 59.376C23.4597 59.5983 23.674 59.7746 23.9226 59.8869C24.5969 60.2308 25.343 60.4101 26.1 60.4101C26.8569 60.4101 27.603 60.2308 28.2773 59.8869C28.5274 59.7757 28.7434 59.5999 28.903 59.3776C29.0627 59.1552 29.1602 58.8944 29.1856 58.6218H29.218Z" fill="#0094A1"/>
<path opacity="0.1" d="M29.218 58.6218C29.218 57.3162 26.5176 53.7562 25.9743 53.7562C25.4309 53.7562 23.0225 57.2514 23.0225 58.6218C23.0471 58.8935 23.1434 59.1538 23.3015 59.376C23.4597 59.5983 23.674 59.7746 23.9226 59.8869C24.5969 60.2308 25.343 60.4101 26.1 60.4101C26.8569 60.4101 27.603 60.2308 28.2773 59.8869C28.5274 59.7757 28.7434 59.5999 28.903 59.3776C29.0627 59.1552 29.1602 58.8944 29.1856 58.6218H29.218Z" fill="black"/>
<path d="M44.0667 30.3205C44.0667 40.295 36.233 52.897 25.999 55.2811C15.6839 52.4023 7.93945 40.295 7.93945 30.3205C7.93945 20.346 14.3621 11.0202 26.0071 11.0202C37.6521 11.0202 44.0667 20.3379 44.0667 30.3205Z" fill="#0094A1"/>
<path opacity="0.05" d="M8.60451 24.8465C8.1576 26.6367 7.93424 28.4753 7.93955 30.3204C7.93955 40.2949 15.7083 52.4021 26.0072 55.281C34.5139 53.2942 41.3582 44.2522 43.4261 35.5266C43.4261 35.5266 40.7338 45.1037 28.886 45.8741C17.0382 46.6445 7.47731 33.1019 8.60451 24.8465Z" fill="black"/>
<path d="M14.5892 163.833C12.4321 163.217 10.2183 156.762 10.3805 152.626C10.5427 148.49 16.1057 130.601 16.868 127.162C17.7357 123.367 17.6789 120.48 18.4493 118.51C19.5846 115.598 23.3149 114.001 23.3149 114.001C23.3149 114.001 28.1805 111.674 29.9321 111.325C31.6838 110.976 32.3649 112.136 32.1703 113.052C31.9757 113.968 31.3594 116.296 31.1972 117.561C31.0816 119.18 30.608 120.753 29.8105 122.167C28.8941 123.635 25.1557 127.146 25.0098 129.101C24.8638 131.055 23.7852 141.662 23.1689 149.374C22.658 155.683 22.0255 158.294 20.655 159.965C19.2846 161.635 16.2679 164.303 14.5892 163.833Z" fill="#B16668"/>
<path d="M319.03 255.08H311.326V268.266H319.03V255.08Z" fill="#FFA8A7"/>
<path d="M292.326 254.383L284.63 254.643L284.249 240.694L292.326 240.427V254.383Z" fill="#FFA8A7"/>
<path d="M316.54 156.965C316.54 164.32 317.692 208.492 317.692 208.492C317.87 210.608 319.906 214.371 320.068 221.994C320.295 233.047 319.338 261.673 319.338 261.673C318.009 262.325 316.552 262.679 315.071 262.708C313.59 262.738 312.121 262.442 310.767 261.843C310.767 261.843 303.971 222.424 302.592 211.484C301.392 201.939 299.349 175.998 299.349 175.998L295.189 207.202C296.08 211.216 296.402 215.336 296.145 219.439C295.781 224.5 292.821 250.093 292.821 250.093C291.474 250.852 289.977 251.306 288.435 251.422C286.894 251.539 285.346 251.315 283.9 250.766C283.9 250.766 280.008 211.841 279.919 207.202C279.821 201.907 282.481 147.874 282.481 147.874L316.54 156.965Z" fill="#0094A1"/>
<path d="M286.357 141.776C291.32 125.241 290.339 111.245 291.272 106.963L278.548 124.73C278.009 130.589 277.14 136.413 275.945 142.174C274.477 148.491 272.474 156.365 270.074 161.263C269.638 162.124 268.903 162.796 268.006 163.153C265.573 164.134 264.486 165.375 262.565 166.802C261.056 167.913 259.913 168.059 260.002 168.513C260.175 169.018 260.53 169.44 260.998 169.696C261.466 169.953 262.013 170.025 262.532 169.9C263.692 169.655 264.819 169.274 265.889 168.764C264.809 170.594 263.44 172.237 261.835 173.63C258.153 176.825 257.626 179.087 263.74 180.198C267.576 180.904 271.039 179.063 275.41 171.1C277.073 168.197 278.526 165.177 279.756 162.066C282.651 153.973 284.857 146.772 286.357 141.776Z" fill="#FFA8A7"/>
<path d="M292.293 102.851C288.344 103.548 284.443 104.473 282.019 108.268C279.594 112.063 276.091 129.976 276.091 129.976C276.091 129.976 281.184 133.553 287.022 133.399L292.293 102.851Z" fill="#E0E0E0"/>
<path d="M319.509 109.516C322.161 111.398 336.149 142.992 336.685 145.198C337.398 148.19 337.074 151.547 335.606 152.626C334.138 153.704 330.903 152.155 329.208 150.501C325.964 147.257 314.57 123.635 314.57 123.635L319.509 109.516Z" fill="#F28F8F"/>
<path d="M305.738 102.843C312.185 104.4 320.335 107.003 323.222 112.939C326.109 118.875 330.521 128.509 330.521 128.509C327.518 131.438 323.855 133.602 319.841 134.818L316.597 129.141L317.075 159.106C311.845 162.917 292.634 164.985 281.621 156.948C281.621 156.948 282.975 120.967 282.975 115.372C282.975 109.776 286.081 103.046 294.677 102.543L305.738 102.843Z" fill="#F0F0F0"/>
<path d="M316.54 129.117C316.54 129.117 313.297 123.506 312.607 122.159L316.662 135.945L316.54 129.117Z" fill="#E0E0E0"/>
<path d="M311.326 264.462V263.359C310.588 263.683 308.893 270.211 305.82 273.001C303.387 275.215 300.079 277.777 299.235 280.243C298.392 282.708 303.849 284.232 306.12 283.827C308.756 283.365 313.329 281.508 314.473 279.772C315.616 278.037 316.159 275.515 317.092 274.258C318.025 273.001 320.174 271.582 320.676 270.122C320.952 269.311 320.628 267.568 320.238 266.067C319.849 264.567 319.492 263.205 319.03 263.335V264.146C317.932 265.005 316.573 265.463 315.178 265.443C314.051 265.589 311.318 265.321 311.326 264.462Z" fill="#263238"/>
<path d="M284.549 252.266C284.151 252.266 283.827 252.85 282.927 253.798C281.612 255.126 280.082 256.223 278.402 257.042C275.515 258.486 269.911 260.708 267.373 261.851C265.751 262.565 265.865 264.478 267.503 265.565C269.141 266.652 273.09 267.446 277.842 266.376C280.429 265.792 283.803 263.408 285.952 263.53C288.101 263.651 292.074 263.635 293.647 262.548C295.221 261.462 294.596 259.142 294.15 257.156C293.664 254.982 293.056 251.593 292.334 251.747V252.493C291.409 253.896 286.657 254.463 284.597 253.433L284.549 252.266Z" fill="#263238"/>
<path opacity="0.1" d="M299.365 175.998C295.384 174.756 291.722 172.658 288.637 169.851C288.637 169.851 290.713 173.727 296.86 177.328L295.546 204.502L299.365 175.998Z" fill="black"/>
<path d="M308.155 74.2082C308.733 74.1394 309.32 74.2038 309.869 74.3963C310.419 74.5889 310.917 74.9045 311.326 75.3192C312.688 76.714 312.404 79.2927 311.326 85.2126L307.117 85.6991L308.155 74.2082Z" fill="#263238"/>
<path d="M283.624 72.4733C282.718 72.4774 281.821 72.2952 280.989 71.9381C279.699 71.192 279.367 72.6598 280.064 73.933C280.531 74.8438 281.223 75.6199 282.075 76.1876C282.927 76.7554 283.909 77.0959 284.93 77.1767C284.93 76.9983 286.138 73.933 286.138 73.933L283.624 72.4733Z" fill="#263238"/>
<path d="M306.185 85.6752C306.809 86.0483 307.701 84.8643 308.472 84.0534C309.242 83.2424 311.756 82.1396 313.005 84.7832C314.254 87.4269 311.383 91.0599 309.68 92.2438C307.653 93.6549 306.185 92.552 306.185 92.552L305.739 102.851C305.739 102.851 303.501 108.317 297.451 109.136C291.401 109.955 292.65 104.976 294.637 102.526V98.78C294.637 98.78 291.515 99.3963 290.039 99.0151C288.969 98.6778 288 98.0805 287.217 97.2766C286.434 96.4728 285.863 95.4876 285.555 94.409C283.892 88.9145 283.545 83.1059 284.541 77.4523C286.082 68.1023 296.624 67.9482 302.528 71.6623C308.431 75.3764 306.185 85.6752 306.185 85.6752Z" fill="#FFA8A7"/>
<path d="M306.185 86.7302C306.493 86.7302 307.693 84.7515 308.471 84.046C309.55 83.0648 308.155 74.185 308.155 74.185C308.155 74.185 309.25 70.8196 307.117 68.5814C304.984 66.3433 300.857 66.7244 297.84 66.619C294.135 66.6431 290.464 65.9061 287.055 64.4538C282.773 62.5886 282.448 62.3697 281.913 64.251C281.378 66.1324 281.183 70.4466 283.746 73.3335L285.871 74.1445C285.871 74.1445 287.022 75.1581 291.02 75.6447C294.708 75.9241 298.415 75.8535 302.089 75.4339C303.249 75.2798 303.5 76.3989 304.125 79.4885C304.668 82.1403 305.122 86.7059 306.185 86.7302Z" fill="#263238"/>
<path d="M308.147 74.8739L311.926 72.8466C311.806 72.5928 311.635 72.3661 311.425 72.1799C311.214 71.9938 310.968 71.8522 310.701 71.7636C310.435 71.6749 310.153 71.6411 309.873 71.6642C309.593 71.6873 309.32 71.7667 309.072 71.8978C308.564 72.1794 308.185 72.646 308.013 73.2004C307.84 73.7548 307.889 74.3543 308.147 74.8739Z" fill="#263238"/>
<path d="M294.645 98.7722C294.645 98.7722 300.248 97.645 302.202 96.607C303.356 96.0071 304.301 95.0711 304.911 93.9228C304.616 95.0701 304.092 96.1458 303.37 97.0854C301.943 98.9182 294.645 100.264 294.645 100.264V98.7722Z" fill="#F28F8F"/>
<path d="M295.983 84.0862C295.991 84.3073 296.063 84.5211 296.192 84.701C296.321 84.881 296.499 85.0191 296.706 85.0983C296.912 85.1774 297.138 85.194 297.354 85.1461C297.57 85.0981 297.767 84.9877 297.92 84.8285C298.074 84.6694 298.177 84.4686 298.217 84.2511C298.258 84.0336 298.233 83.8091 298.147 83.6055C298.06 83.4019 297.916 83.2282 297.732 83.106C297.547 82.9838 297.331 82.9186 297.11 82.9185C296.959 82.9206 296.81 82.9525 296.672 83.0125C296.533 83.0724 296.408 83.1591 296.303 83.2677C296.198 83.3762 296.116 83.5044 296.061 83.6449C296.006 83.7854 295.979 83.9354 295.983 84.0862Z" fill="#263238"/>
<path d="M297.378 79.4392L299.811 80.7691C299.984 80.4398 300.022 80.0562 299.918 79.6992C299.813 79.3422 299.574 79.0396 299.251 78.8553C299.091 78.7636 298.914 78.7059 298.731 78.6858C298.548 78.6657 298.363 78.6836 298.187 78.7384C298.011 78.7933 297.849 78.8838 297.709 79.0043C297.57 79.1249 297.457 79.2729 297.378 79.4392Z" fill="#263238"/>
<path d="M296.072 91.8871L293.51 92.8602C293.565 93.0326 293.655 93.1921 293.774 93.329C293.892 93.4659 294.038 93.5775 294.2 93.657C294.363 93.7365 294.54 93.7823 294.721 93.7917C294.902 93.8011 295.083 93.7739 295.253 93.7117C295.602 93.5755 295.883 93.3081 296.036 92.9668C296.189 92.6256 296.202 92.2379 296.072 91.8871Z" fill="#F28F8F"/>
<path d="M285.457 81.0445L287.647 79.3578C287.544 79.207 287.411 79.0792 287.256 78.9823C287.102 78.8855 286.929 78.8217 286.748 78.7951C286.568 78.7684 286.383 78.7794 286.207 78.8274C286.031 78.8754 285.867 78.9594 285.725 79.074C285.438 79.3067 285.25 79.6401 285.201 80.0062C285.151 80.3724 285.243 80.7437 285.457 81.0445Z" fill="#263238"/>
<path d="M286.714 83.7694C286.722 83.9908 286.795 84.2049 286.924 84.3851C287.053 84.5652 287.232 84.7033 287.439 84.7822C287.646 84.8611 287.872 84.8772 288.088 84.8286C288.304 84.7799 288.501 84.6687 288.654 84.5088C288.808 84.3488 288.91 84.1473 288.95 83.9293C288.989 83.7113 288.963 83.4865 288.876 83.2831C288.788 83.0796 288.643 82.9065 288.457 82.7853C288.272 82.6641 288.055 82.6002 287.833 82.6017C287.531 82.6102 287.243 82.7375 287.034 82.956C286.825 83.1746 286.71 83.4668 286.714 83.7694Z" fill="#263238"/>
<path d="M292.852 82.8943L292.479 89.6413L288.96 88.4411L292.852 82.8943Z" fill="#F28F8F"/>
<path d="M323.66 164.449C323.553 164.449 323.45 164.407 323.374 164.331C323.298 164.255 323.255 164.152 323.255 164.044V36.5C323.255 36.3924 323.298 36.2893 323.374 36.2133C323.45 36.1372 323.553 36.0945 323.66 36.0945C323.768 36.0945 323.871 36.1372 323.947 36.2133C324.023 36.2893 324.066 36.3924 324.066 36.5V164.044C324.066 164.152 324.023 164.255 323.947 164.331C323.871 164.407 323.768 164.449 323.66 164.449Z" fill="#37474F"/>
<path d="M320.596 47.6016C320.596 46.3041 323.296 42.736 323.839 42.736C324.383 42.736 326.791 46.2312 326.791 47.6016C326.767 47.8736 326.671 48.1342 326.513 48.3566C326.355 48.579 326.14 48.7551 325.891 48.8667C325.217 49.2106 324.471 49.3899 323.714 49.3899C322.957 49.3899 322.211 49.2106 321.536 48.8667C321.279 48.7616 321.056 48.5882 320.89 48.3652C320.724 48.1422 320.622 47.8782 320.596 47.6016Z" fill="#0094A1"/>
<path opacity="0.1" d="M320.596 47.6016C320.596 46.3041 323.296 42.736 323.839 42.736C324.383 42.736 326.791 46.2312 326.791 47.6016C326.767 47.8736 326.671 48.1342 326.513 48.3566C326.355 48.579 326.14 48.7551 325.891 48.8667C325.217 49.2106 324.471 49.3899 323.714 49.3899C322.957 49.3899 322.211 49.2106 321.536 48.8667C321.279 48.7616 321.056 48.5882 320.89 48.3652C320.724 48.1422 320.622 47.8782 320.596 47.6016Z" fill="black"/>
<path d="M305.723 19.3003C305.723 29.2748 313.548 41.8767 323.79 44.2609C334.089 41.3821 341.858 29.2748 341.858 19.3003C341.858 9.32576 335.435 0 323.79 0C312.145 0 305.723 9.33387 305.723 19.3003Z" fill="#0094A1"/>
<path opacity="0.05" d="M341.079 24.515C341.079 24.515 338.436 34.084 326.539 34.8544C315.121 35.5924 305.836 23.0553 306.185 14.7513C305.875 16.2479 305.721 17.7724 305.723 19.3006C305.723 29.2752 313.548 41.8771 323.79 44.2613C332.329 41.8771 339.117 33.1514 341.201 24.5555L341.079 24.515Z" fill="black"/>
<path d="M335.191 152.813C337.348 152.196 339.562 145.749 339.4 141.606C339.238 137.462 333.675 119.589 332.913 116.142C332.045 112.347 332.102 109.46 331.331 107.49C330.196 104.586 326.466 102.989 326.466 102.989C326.466 102.989 321.6 100.653 319.848 100.305C318.097 99.9559 317.416 101.116 317.61 102.032C317.805 102.948 318.421 105.276 318.583 106.541C318.698 108.16 319.172 109.733 319.97 111.147C320.886 112.615 324.625 116.126 324.771 118.08C324.917 120.035 325.995 130.65 326.612 138.354C327.123 144.663 327.755 147.274 329.126 148.945C330.496 150.615 333.57 153.291 335.191 152.813Z" fill="#FFA8A7"/>
<path d="M125.784 271.241C148.674 271.241 167.231 262.397 167.231 251.487C167.231 240.577 148.674 231.732 125.784 231.732C102.893 231.732 84.3369 240.577 84.3369 251.487C84.3369 262.397 102.893 271.241 125.784 271.241Z" fill="#E0E0E0"/>
<path d="M213.851 277.25C236.742 277.25 255.298 268.406 255.298 257.496C255.298 246.586 236.742 237.742 213.851 237.742C190.961 237.742 172.404 246.586 172.404 257.496C172.404 268.406 190.961 277.25 213.851 277.25Z" fill="#E0E0E0"/>
<path d="M136.213 88.5617C138.362 88.2535 140.178 88.5617 143.933 93.6868C147.29 98.2767 153.98 105.981 153.98 105.981C153.98 105.981 160.03 90.1268 159.852 87.994C159.673 85.8612 158.335 84.5475 157.459 80.6226C156.584 76.6977 156.332 75.9516 155.675 74.8082C155.018 73.6648 157.297 73.3891 158.214 74.8082C159.13 76.2273 159.243 78.2303 159.884 77.8735C160.525 77.5167 160.963 73.2025 160.419 70.1048C159.876 67.007 161.287 66.3096 161.928 67.2989C162.299 67.852 162.561 68.4715 162.698 69.1235C163.361 68.9881 164.048 69.0308 164.689 69.2474C165.33 69.4639 165.902 69.8465 166.347 70.3562C167.969 72.124 169.315 74.8406 169.307 79.4386C169.299 84.0366 167.174 86.4938 166.874 88.5698C166.574 90.6458 162.82 109.889 160.16 116.393C158.489 120.448 156.178 121.68 153.356 119.304C149.553 116.101 139.116 103.272 139.116 103.272L136.213 88.5617Z" fill="#FFA8A7"/>
<path d="M136.213 88.5618C138.151 87.9861 140.268 88.4402 142.23 90.7919C144.192 93.1436 151.377 102.242 151.377 102.242C151.377 102.242 151.167 106.897 145.158 111.211L138.305 103.832L136.213 88.5618Z" fill="#0094A1"/>
<path d="M146.365 238.715L146.3 237.636C146.811 238.877 149.114 244.229 152.285 246.783C154.799 248.819 158.213 251.146 159.186 253.522C160.159 255.898 154.856 257.171 152.601 256.904C149.982 256.604 146.535 255.331 144.573 253.198C143.194 251.698 142.27 249.881 141.281 248.697C140.291 247.513 138.094 246.264 137.51 244.845C137.193 244.075 137.412 242.323 137.704 240.847C137.996 239.371 138.434 237.863 138.896 237.96C138.877 238.279 138.839 238.595 138.783 238.909C139.91 239.694 141.273 240.067 142.643 239.963C143.754 239.939 146.43 239.558 146.365 238.715Z" fill="#263238"/>
<path d="M154.564 248.559C153.753 247.942 152.999 247.342 152.285 246.767C150.072 244.974 148.279 241.82 147.225 239.663V239.622C146.418 237.876 146.067 235.954 146.203 234.035L146.301 231.48L138.191 231.643L138.783 238.892V239.079H138.824C139.286 240.628 143.008 244.61 145.149 247.188C146.576 248.932 149.204 251.113 152.261 251.332C155.164 251.608 156.543 250.619 154.564 248.559Z" fill="#FFA8A7"/>
<path d="M101.092 239.639C100.703 239.412 100.062 240.734 99.3889 241.739C98.6664 242.99 98.3227 244.424 98.3995 245.867C98.579 247.492 98.4941 249.135 98.1482 250.733C97.694 253.425 96.9074 256.514 99.616 258.996C101.943 261.121 107.133 262.11 108.788 260.618C109.124 260.344 109.391 259.996 109.567 259.6C109.743 259.204 109.823 258.772 109.801 258.339C109.469 257.164 109.013 256.027 108.439 254.949C107.799 253.727 107.225 252.471 106.72 251.187L101.092 239.639Z" fill="#263238"/>
<path d="M108.405 235.081C108.049 234.781 107.278 244.74 107.059 247.108C106.84 249.475 107.254 250.716 107.643 253.238C107.837 253.834 107.794 254.482 107.522 255.047C107.316 255.308 107.052 255.518 106.75 255.659C106.449 255.8 106.119 255.868 105.786 255.858C104.067 255.858 102.705 255.225 101.261 253.595C100.548 252.784 100.499 250.635 100.539 249.857C100.657 248.552 100.681 247.24 100.612 245.932C100.483 244.545 100.077 242.915 100.256 241.877C100.408 241.073 100.682 240.296 101.067 239.574C101.723 238.074 102.161 233.97 102.161 233.97L108.405 235.081Z" fill="#FFA8A7"/>
<path d="M111.804 129.506C107.595 134.915 106.833 140.494 107.749 156.266C108.665 172.039 107.335 184.925 107.1 185.809C106.865 186.693 104.197 195.402 102.94 201.265C101.472 208.134 101.27 236.411 101.27 236.411C101.27 236.411 104.262 238.033 108.884 236.93C108.884 236.93 120.043 192.742 121.227 189.182C122.411 185.622 131.371 148.903 131.371 148.903L130.228 127.762L111.804 129.506Z" fill="#37474F"/>
<path d="M143.989 147.687C143.349 140.389 141.784 127.746 141.784 127.746L123.132 126.651C120.107 131.363 121.421 139.197 122.248 146.276L132.92 188.055C132.701 190.058 130.86 194.3 132.92 205.085C135.215 217.103 138.029 232.989 138.029 232.989C138.029 232.989 142.408 234.773 146.43 233.079C146.43 233.079 147.971 195.029 146.99 184.641C145.911 173.361 144.427 152.682 143.989 147.687Z" fill="#37474F"/>
<path d="M128.111 165.414L131.152 150.088C133.848 149.128 136.407 147.822 138.767 146.203C137.26 148.108 135.462 149.764 133.439 151.109L128.111 165.414Z" fill="#263238"/>
<path d="M112.93 92.389C110.838 93.5973 107.375 94.7002 105.932 98.7711C103.961 104.448 98.7308 119.19 96.7197 124.486H106.386L113.076 110.781C118.25 106.337 117.553 93.9865 112.93 92.389Z" fill="#FFA8A7"/>
<path d="M140.567 115.899C141.029 120.156 142.748 135.904 142.748 135.904C128.679 143.405 111.235 138.434 108.567 135.345C111 127.381 113.587 122.848 115.574 120.748L113.076 110.782C113.076 110.782 118.972 103.767 112.93 92.3895L120.772 89.8107L131.509 88.8781L136.212 88.5619C137.891 90.1351 140.534 95.7711 142.254 100.158C143.357 102.988 144.549 107.513 140.567 115.899Z" fill="#F5F5F5"/>
<path d="M112.931 92.389C108.308 93.2972 106.232 95.5679 104.383 100.612C102.388 106.069 99.9961 111.965 99.9961 111.965C101.291 113.836 103.098 115.295 105.201 116.165C107.304 117.035 109.613 117.28 111.852 116.871L114.844 108.527C114.844 108.527 118.858 101.163 112.931 92.389Z" fill="#0094A1"/>
<path d="M114.349 115.792C114.471 116.279 117.763 120.658 119.377 121.663C120.991 122.669 116.523 124.096 115.89 126.651C114.617 131.784 122.572 138.377 132.458 139.317C121.275 141.15 110.627 137.695 108.592 135.344C111.025 127.38 113.611 122.847 115.598 120.747L114.349 115.792Z" fill="#E6E6E6"/>
<path d="M143.933 87.5634H128.907C126.491 87.5645 124.099 87.0895 121.867 86.1655C119.635 85.2416 117.607 83.8869 115.899 82.1789C114.191 80.4708 112.836 78.4429 111.912 76.2109C110.989 73.979 110.514 71.5869 110.515 69.1714C110.515 64.7408 112.275 60.4918 115.408 57.3589C118.54 54.2261 122.789 52.4661 127.22 52.4661C129.414 52.465 131.588 52.8963 133.615 53.7354C135.643 54.5744 137.486 55.8047 139.038 57.3561C140.59 58.9074 141.821 60.7493 142.661 62.7767C143.501 64.804 143.933 66.9769 143.933 69.1714V87.5634Z" fill="#263238"/>
<path d="M137.964 59.7408C139.732 60.7869 141.913 65.2227 141.694 74.5323C141.508 82.4146 138.953 84.3689 137.64 84.9285C136.326 85.488 133.877 85.1474 131.476 84.742V89.4778C131.327 90.4785 130.788 91.3795 129.976 91.9836C128.014 93.2081 125.694 92.7459 124.389 92.2755C121.51 91.2376 120.942 89.8427 120.942 89.8427L120.991 78.9519C120.991 78.9519 119.58 80.3305 117.172 78.2301C115.193 76.4947 114.528 73.5754 116.069 72.0021C116.47 71.6292 116.954 71.357 117.481 71.208C118.008 71.0589 118.563 71.0374 119.1 71.1451C119.637 71.2529 120.141 71.4868 120.57 71.8275C120.999 72.1683 121.341 72.6062 121.567 73.105C121.567 73.105 122.978 73.2186 124.389 70.5911C124.389 70.5911 124.34 63.4711 125.93 62.5466C130.998 59.611 134.582 59.7408 137.964 59.7408Z" fill="#FFA8A7"/>
<path d="M131.501 72.051C131.511 72.1827 131.495 72.315 131.453 72.4404C131.411 72.5657 131.345 72.6815 131.259 72.7811C131.172 72.8807 131.066 72.9621 130.948 73.0205C130.829 73.0789 130.7 73.1132 130.569 73.1214C130.364 73.1407 130.158 73.0981 129.977 72.9991C129.797 72.9001 129.65 72.7492 129.556 72.566C129.462 72.3829 129.425 72.1757 129.45 71.9713C129.475 71.767 129.561 71.5748 129.696 71.4195C129.831 71.2643 130.01 71.1532 130.209 71.1005C130.408 71.0478 130.618 71.0559 130.812 71.1239C131.007 71.1919 131.176 71.3165 131.299 71.4818C131.422 71.647 131.492 71.8453 131.501 72.051Z" fill="#263238"/>
<g style="mix-blend-mode:multiply" opacity="0.5">
<path d="M133.156 79.2361L135.46 79.966C135.417 80.1194 135.344 80.2626 135.244 80.3871C135.145 80.5115 135.022 80.6147 134.882 80.6904C134.742 80.7661 134.588 80.8128 134.429 80.8277C134.271 80.8425 134.111 80.8253 133.959 80.7769C133.654 80.6712 133.401 80.4526 133.252 80.1662C133.102 79.8797 133.068 79.5469 133.156 79.2361Z" fill="#F28F8F"/>
</g>
<path d="M140.471 68.9611L138.468 67.5744C138.551 67.4386 138.661 67.3212 138.791 67.2297C138.921 67.1382 139.069 67.0745 139.225 67.0425C139.381 67.0106 139.542 67.0111 139.697 67.044C139.853 67.0769 140.001 67.1415 140.13 67.2339C140.399 67.4225 140.584 67.7074 140.647 68.0291C140.711 68.3509 140.647 68.6848 140.471 68.9611Z" fill="#263238"/>
<path d="M130.122 68.5305L127.844 69.4063C127.778 69.2611 127.743 69.1041 127.741 68.9448C127.739 68.7856 127.77 68.6276 127.832 68.4808C127.893 68.334 127.984 68.2014 128.099 68.0914C128.215 67.9813 128.351 67.8962 128.501 67.8412C128.808 67.7268 129.147 67.7345 129.449 67.8627C129.751 67.991 129.992 68.2299 130.122 68.5305Z" fill="#263238"/>
<path d="M139.926 71.8314C139.929 72.0272 139.875 72.2196 139.769 72.3845C139.663 72.5494 139.511 72.6795 139.332 72.7587C139.153 72.8379 138.955 72.8626 138.762 72.8297C138.569 72.7969 138.39 72.7079 138.247 72.5739C138.104 72.4399 138.004 72.2669 137.958 72.0763C137.913 71.8857 137.925 71.6861 137.993 71.5023C138.06 71.3185 138.181 71.1586 138.338 71.0427C138.496 70.9267 138.685 70.8597 138.88 70.8502C139.149 70.8436 139.409 70.9428 139.604 71.1264C139.8 71.31 139.916 71.5632 139.926 71.8314Z" fill="#263238"/>
<g style="mix-blend-mode:multiply" opacity="0.5">
<path d="M135.167 71.2641L135.321 77.2326L138.468 76.2594L135.167 71.2641Z" fill="#F28F8F"/>
</g>
<g style="mix-blend-mode:multiply" opacity="0.5">
<path d="M131.509 84.7499C128.971 84.4174 123.748 82.9253 122.938 80.8574C123.262 81.9039 123.902 82.8245 124.77 83.4929C126.327 84.831 131.509 86.3312 131.509 86.3312V84.7499Z" fill="#F28F8F"/>
</g>
<path d="M124.803 53.3585L124.422 48.9794C124.709 48.9363 125.001 48.9522 125.282 49.0264C125.562 49.1005 125.824 49.2312 126.052 49.4105C126.28 49.5898 126.469 49.8138 126.607 50.0688C126.745 50.3238 126.829 50.6044 126.855 50.8933C126.898 51.4898 126.709 52.08 126.326 52.5397C125.943 52.9994 125.398 53.2929 124.803 53.3585Z" fill="#263238"/>
<path d="M124.567 53.7966L121.023 51.2016C121.182 50.96 121.388 50.7532 121.629 50.5937C121.87 50.4342 122.141 50.3253 122.426 50.2737C122.71 50.2222 123.002 50.2289 123.284 50.2937C123.565 50.3584 123.831 50.4797 124.064 50.6502C124.536 51.01 124.851 51.5373 124.945 52.1229C125.038 52.7086 124.903 53.3078 124.567 53.7966Z" fill="#263238"/>
<path d="M121.6 73.0889V77.2328C122.348 77.2328 123.066 76.9355 123.595 76.4063C124.124 75.877 124.422 75.1592 124.422 74.4108V70.575L121.6 73.0889Z" fill="#263238"/>
<path d="M132.887 53.4483C136.608 53.4483 140.177 54.9264 142.808 57.5574C145.439 60.1884 146.917 63.7567 146.917 67.4775V69.294H140.056C138.511 69.2946 137.018 68.7355 135.854 67.7202C134.69 66.7049 133.932 65.3021 133.723 63.7715L133.471 69.294C132.202 69.2949 130.978 68.8198 130.041 67.9627C129.104 67.1055 128.523 65.9284 128.411 64.6636L128.33 63.7553C128.21 65.2626 127.526 66.6694 126.416 67.6958C125.305 68.7221 123.849 69.2927 122.337 69.294H121.721L121.023 59.3844L132.887 53.4483Z" fill="#263238"/>
<path d="M228.246 249.629V248.559C227.816 249.832 225.813 255.314 222.82 258.055C220.428 260.236 217.144 262.758 216.333 265.191C215.522 267.624 220.874 268.573 223.112 268.175C225.707 267.721 229.073 266.245 230.897 263.999C232.187 262.418 233.006 260.544 233.922 259.304C234.838 258.063 236.955 256.668 237.45 255.249C237.725 254.438 237.401 252.727 237.02 251.267C236.639 249.808 236.29 248.453 235.828 248.575V249.386C234.748 250.238 233.408 250.69 232.033 250.667C230.93 250.7 228.237 250.481 228.246 249.629Z" fill="#263238"/>
<path d="M220.656 259.961C221.402 259.296 222.148 258.655 222.821 258.031C224.93 256.117 226.527 252.865 227.452 250.643C227.979 249.378 228.254 248.023 228.263 246.653V242.331H235.845V249.37V249.556H235.804C235.439 251.129 231.961 255.33 229.982 258.063C228.66 259.896 226.138 262.223 223.129 262.629C220.259 263.026 218.807 262.126 220.656 259.961Z" fill="#B16668"/>
<path d="M198.654 242.153V241.066C198.233 242.339 196.222 247.821 193.237 250.562C190.845 252.744 187.561 255.266 186.75 257.698C185.939 260.131 191.291 261.08 193.529 260.683C196.124 260.22 199.482 258.753 201.314 256.506C202.596 254.925 203.415 253.052 204.339 251.811C205.264 250.57 207.372 249.176 207.867 247.756C208.142 246.945 207.818 245.234 207.437 243.775C207.08 242.437 206.699 240.961 206.245 241.082V241.893C205.165 242.745 203.824 243.197 202.45 243.175C201.339 243.223 198.646 243.004 198.654 242.153Z" fill="#263238"/>
<path d="M191.072 252.484C191.81 251.819 192.556 251.179 193.238 250.554C195.338 248.641 196.944 245.389 197.86 243.167C198.391 241.904 198.667 240.547 198.671 239.177V234.855H206.253V241.885V242.072H206.213C205.848 243.645 202.369 247.838 200.39 250.579C199.06 252.411 196.546 254.739 193.538 255.144C190.675 255.55 189.223 254.65 191.072 252.484Z" fill="#B16668"/>
<path d="M234.32 131.784C240.199 144.629 234.109 189.871 234.109 189.871C234.287 191.955 236.664 196.059 237.556 205.23C238.602 216.064 235.934 243.279 235.934 243.279C234.778 243.95 233.476 244.329 232.14 244.383C230.805 244.436 229.476 244.163 228.27 243.588C228.27 243.588 221.012 202.562 219.658 191.793C218.466 182.394 216.195 161.715 216.195 161.715L209.708 191.72C210.65 194.752 211.333 197.858 211.752 201.005C212.368 207.347 206.229 236.857 206.229 236.857C206.229 236.857 203.61 237.814 198.639 237.084C198.639 237.084 196.474 197.916 195.898 190.285C194.933 177.456 198.331 137.444 200.69 129.854L234.32 131.784Z" fill="#37474F"/>
<path d="M216.195 161.708L214.281 149.779C214.281 149.779 206.172 148.101 202.547 144.662C202.547 144.662 206.383 149.439 212.092 151.004L214.241 160.167L210.494 187.974L216.195 161.708Z" fill="#263238"/>
<path d="M212.238 86.7847C210.41 86.4831 208.534 86.6984 206.821 87.4062C205.109 88.1141 203.629 89.2863 202.547 90.7907C199.993 94.1885 190.164 122.774 190.164 122.774H199.011L211.119 98.819L212.238 86.7847Z" fill="#B16668"/>
<path d="M223.948 87.1343C231.49 87.6533 232.017 91.2944 233.899 95.2437C235.291 98.3147 235.419 101.81 234.255 104.975L229.009 120.172C229.009 120.172 231.442 126.116 234.32 131.736C221.135 139.091 204.673 135.223 200.707 129.854C200.545 128.719 201.518 119.815 202.191 114.001C199.864 108.17 199.255 104.48 200.237 100.628C202.053 93.4839 209.108 86.518 212.239 86.7694L223.948 87.1343Z" fill="#F5F5F5"/>
<path d="M220.574 133.179C221.61 132.942 222.587 132.5 223.449 131.879C224.311 131.258 225.04 130.471 225.593 129.564C226.146 128.658 226.512 127.649 226.67 126.599C226.827 125.549 226.773 124.477 226.51 123.448C226.477 123.306 226.431 123.168 226.373 123.034C226.192 122.482 225.831 122.006 225.347 121.684C224.863 121.361 224.284 121.212 223.705 121.259C224.551 120.7 225.279 119.979 225.844 119.136C226.409 118.294 226.801 117.348 226.997 116.352L228.619 108.316C228.619 108.316 225.643 98.8767 225.943 95.6411L233.509 96.079L234.49 96.7601C235.294 99.4491 235.217 102.325 234.271 104.967L229.024 120.164C229.024 120.164 231.457 126.108 234.336 131.728C230.047 134.035 225.312 135.395 220.452 135.717C215.593 136.039 210.72 135.314 206.164 133.593C210.951 134.365 215.84 134.225 220.574 133.179Z" fill="#E6E6E6"/>
<path d="M251.706 124.819C251.706 124.819 244.221 110.092 239.275 98.82C235.707 90.7106 234.904 88.8455 229.219 87.9616L227.216 87.6534C224.524 96.5007 226.405 100.515 229.925 106.573L242.243 129.928C245.032 129.352 251.763 125.662 251.706 124.819Z" fill="#B16668"/>
<path d="M220.818 80.8821H215.474C211.704 80.8821 208.088 79.3844 205.422 76.7184C202.756 74.0525 201.258 70.4366 201.258 66.6664V64.2822C201.258 60.4905 202.764 56.8541 205.446 54.1729C208.127 51.4917 211.763 49.9855 215.555 49.9855H220.696C224.488 49.9855 228.125 51.4917 230.806 54.1729C233.487 56.8541 234.993 60.4905 234.993 64.2822V66.6664C234.993 70.4366 233.495 74.0525 230.829 76.7184C228.164 79.3844 224.548 80.8821 220.777 80.8821H220.818Z" fill="#263238"/>
<path d="M206.837 56.8047C205.053 57.8589 202.847 62.3434 203.066 71.7421C203.252 79.7055 205.831 81.668 207.121 82.2356C208.41 82.8033 210.916 82.4546 213.349 82.0572V86.8337C213.349 86.8337 209.983 90.7343 210.202 92.9238C210.421 95.1133 215.068 95.6323 218.19 93.4914C220.229 92.0261 221.977 90.1947 223.347 88.0906V76.5429C223.347 76.5429 224.969 78.7324 227.67 76.9483C230.37 75.1643 230.459 70.7609 228.902 69.1715C227.345 67.582 223.972 68.0929 223.347 70.2825C223.347 70.2825 219.471 70.4203 214.314 67.582C212.306 66.5017 210.583 64.9623 209.284 63.0894C207.984 61.2165 207.146 59.0631 206.837 56.8047Z" fill="#B16668"/>
<path d="M212.846 69.7391C212.843 69.9365 212.898 70.1305 213.005 70.2967C213.111 70.463 213.264 70.5941 213.445 70.6739C213.625 70.7537 213.826 70.7786 214.02 70.7454C214.215 70.7123 214.395 70.6225 214.539 70.4874C214.683 70.3523 214.784 70.1778 214.83 69.9856C214.875 69.7935 214.863 69.5922 214.795 69.4069C214.727 69.2216 214.606 69.0605 214.446 68.9436C214.287 68.8268 214.097 68.7594 213.9 68.7498C213.766 68.7455 213.632 68.7676 213.506 68.815C213.381 68.8624 213.266 68.9341 213.168 69.026C213.07 69.1179 212.991 69.2281 212.936 69.3505C212.881 69.4729 212.85 69.6049 212.846 69.7391Z" fill="#263238"/>
<path d="M211.686 76.4863L209.367 77.2323C209.411 77.386 209.485 77.5294 209.585 77.6539C209.685 77.7784 209.809 77.8816 209.95 77.9572C210.09 78.0329 210.245 78.0795 210.404 78.0943C210.563 78.109 210.723 78.0917 210.876 78.0433C211.182 77.9341 211.436 77.7129 211.587 77.4241C211.737 77.1353 211.773 76.8002 211.686 76.4863Z" fill="#9A4A4D"/>
<path d="M204.631 66.6654L206.658 65.2543C206.572 65.1186 206.46 65.0017 206.327 64.9106C206.195 64.8195 206.045 64.7561 205.888 64.7243C205.73 64.6925 205.568 64.6929 205.41 64.7254C205.253 64.758 205.104 64.822 204.972 64.9137C204.7 65.1055 204.513 65.3947 204.449 65.7211C204.386 66.0475 204.451 66.3858 204.631 66.6654Z" fill="#263238"/>
<path d="M205.102 69.0178C205.1 69.2149 205.157 69.4081 205.264 69.5733C205.372 69.7384 205.526 69.8684 205.706 69.947C205.887 70.0255 206.087 70.0492 206.281 70.0151C206.475 69.981 206.655 69.8906 206.798 69.7552C206.941 69.6197 207.042 69.4451 207.086 69.2532C207.131 69.0613 207.119 68.8604 207.05 68.6755C206.982 68.4907 206.86 68.3301 206.701 68.2136C206.542 68.0971 206.353 68.0299 206.156 68.0204C205.885 68.0159 205.622 68.1178 205.425 68.3042C205.228 68.4906 205.112 68.7468 205.102 69.0178Z" fill="#263238"/>
<path d="M210 68.4414L209.838 74.4666L206.667 73.4854L210 68.4414Z" fill="#9A4A4D"/>
<path d="M213.356 82.058C215.911 81.7174 221.182 80.201 222.001 78.125C221.676 79.1778 221.033 80.1041 220.16 80.7768C218.587 82.131 213.356 83.6475 213.356 83.6475V82.058Z" fill="#9A4A4D"/>
<path d="M232.933 51.7928C229.641 53.1633 230.379 55.9854 231.757 59.2778C233.136 62.5702 234.636 65.076 237.88 63.6649C238.751 63.4037 239.557 62.9624 240.246 62.3696C240.936 61.7768 241.493 61.0457 241.881 60.2238C242.27 59.4018 242.481 58.5074 242.502 57.5985C242.523 56.6895 242.352 55.7864 242.001 54.9477C241.65 54.1089 241.127 53.3533 240.466 52.7297C239.804 52.1062 239.019 51.6287 238.161 51.3281C237.303 51.0276 236.391 50.9108 235.485 50.9853C234.579 51.0597 233.698 51.3238 232.901 51.7604L232.933 51.7928Z" fill="#263238"/>
<path d="M230.037 54.7456L228.886 49.2555C229.238 49.1667 229.605 49.1496 229.965 49.2053C230.324 49.261 230.669 49.3883 230.978 49.5796C231.288 49.7709 231.555 50.0225 231.766 50.3192C231.976 50.616 232.124 50.952 232.202 51.3072C232.355 52.0489 232.214 52.8208 231.811 53.4615C231.407 54.1023 230.772 54.5623 230.037 54.7456Z" fill="#263238"/>
<path d="M257.059 122.775H85.1807V162.129H257.059V122.775Z" fill="#0094A1"/>
<path d="M108.56 151.531C108.411 151.393 108.304 151.216 108.252 151.02L104.075 137.461C104.061 137.378 104.061 137.293 104.075 137.21C104.075 136.942 104.238 136.812 104.57 136.812H106.954C107.136 136.793 107.319 136.836 107.473 136.934C107.595 137.047 107.673 137.199 107.692 137.364L110.384 146.827L113.442 138.718C113.5 138.549 113.597 138.396 113.725 138.272C113.867 138.165 114.044 138.115 114.22 138.134H115.55C115.719 138.12 115.887 138.163 116.029 138.256C116.149 138.388 116.238 138.546 116.288 138.718L119.321 146.827L122.038 137.364C122.078 137.206 122.153 137.059 122.257 136.934C122.413 136.834 122.599 136.791 122.784 136.812H125.16C125.492 136.812 125.654 136.942 125.654 137.21C125.664 137.293 125.664 137.377 125.654 137.461L121.413 151.004C121.37 151.204 121.268 151.387 121.121 151.531C120.957 151.625 120.767 151.668 120.578 151.652H118.672C118.496 151.666 118.321 151.617 118.178 151.514C118.043 151.366 117.938 151.192 117.869 151.004L114.78 142.683L111.682 151.004C111.615 151.197 111.504 151.372 111.358 151.514C111.207 151.616 111.028 151.665 110.847 151.652H109.087C108.903 151.662 108.721 151.62 108.56 151.531Z" fill="white"/>
<path d="M130.301 151.312C129.036 150.793 127.955 149.91 127.195 148.773C126.382 147.497 125.978 146.004 126.036 144.492C126.036 141.832 126.747 139.812 128.169 138.434C129.588 137.055 131.607 136.358 134.226 136.358C136.846 136.358 138.792 137.031 140.122 138.369C141.452 139.707 142.117 141.613 142.117 144.183C142.117 144.905 141.784 145.27 141.127 145.27H129.774C129.743 145.869 129.857 146.467 130.105 147.013C130.354 147.559 130.73 148.038 131.201 148.408C132.363 149.202 133.755 149.587 135.159 149.503C136.694 149.526 138.207 149.143 139.546 148.392C139.648 148.324 139.765 148.279 139.887 148.262C140.033 148.262 140.146 148.36 140.227 148.546L140.973 149.876C141.028 149.982 141.058 150.098 141.062 150.217C141.054 150.301 141.024 150.381 140.975 150.451C140.927 150.52 140.862 150.576 140.787 150.614C139.937 151.133 139.012 151.519 138.046 151.758C136.938 152.022 135.802 152.147 134.664 152.131C133.17 152.152 131.686 151.873 130.301 151.312ZM138.524 142.975C138.555 142.431 138.477 141.886 138.294 141.372C138.112 140.858 137.829 140.386 137.462 139.983C137.029 139.595 136.522 139.299 135.971 139.112C135.421 138.926 134.838 138.852 134.259 138.896C133.048 138.817 131.854 139.216 130.934 140.007C130.545 140.394 130.241 140.858 130.041 141.369C129.842 141.88 129.751 142.427 129.774 142.975H138.524Z" fill="white"/>
<path d="M145.434 151.392C145.246 151.165 145.151 150.876 145.166 150.581V131.784C145.141 131.471 145.237 131.16 145.434 130.916C145.553 130.812 145.692 130.734 145.843 130.687C145.993 130.639 146.152 130.623 146.31 130.64H147.931C148.256 130.61 148.58 130.709 148.832 130.916C148.932 131.035 149.009 131.173 149.056 131.322C149.103 131.471 149.121 131.628 149.107 131.784V150.557C149.125 150.85 149.033 151.14 148.848 151.368C148.59 151.576 148.261 151.675 147.931 151.644H146.31C146.154 151.662 145.997 151.649 145.846 151.606C145.696 151.563 145.556 151.49 145.434 151.392Z" fill="white"/>
<path d="M154.435 150.103C153.646 149.367 153.031 148.465 152.633 147.462C152.234 146.46 152.063 145.381 152.132 144.305C152.101 142.853 152.466 141.421 153.186 140.161C153.898 138.957 154.943 137.985 156.195 137.363C157.626 136.669 159.202 136.324 160.793 136.358C161.907 136.339 163.019 136.464 164.101 136.731C165.01 136.979 165.867 137.389 166.631 137.939C166.708 137.976 166.774 138.032 166.824 138.101C166.873 138.171 166.905 138.252 166.915 138.336C166.902 138.493 166.849 138.644 166.761 138.774L165.95 140.226C165.821 140.428 165.707 140.534 165.61 140.534C165.448 140.517 165.296 140.452 165.172 140.347C164.577 139.979 163.94 139.685 163.274 139.472C162.545 139.257 161.788 139.155 161.028 139.171C160.357 139.137 159.687 139.242 159.059 139.479C158.431 139.716 157.859 140.081 157.379 140.55C156.921 141.058 156.567 141.65 156.339 142.295C156.111 142.939 156.012 143.622 156.049 144.305C155.997 144.99 156.088 145.678 156.317 146.326C156.546 146.974 156.908 147.567 157.379 148.067C158.47 148.971 159.867 149.418 161.279 149.316C162.743 149.359 164.183 148.936 165.391 148.108C165.511 148.023 165.65 147.97 165.796 147.954C165.918 147.954 166.039 148.059 166.161 148.262L167.061 149.779C167.139 149.875 167.182 149.995 167.183 150.119C167.183 150.265 167.077 150.411 166.875 150.557C166.056 151.09 165.159 151.49 164.215 151.741C163.123 152.018 162 152.149 160.874 152.13C158.117 152.13 155.97 151.454 154.435 150.103Z" fill="white"/>
<path d="M171.78 150.014C170.375 148.422 169.599 146.372 169.599 144.248C169.599 142.125 170.375 140.074 171.78 138.483C173.232 137.071 175.3 136.358 177.984 136.358C180.668 136.358 182.736 137.071 184.196 138.483C185.612 140.069 186.394 142.122 186.394 144.248C186.394 146.375 185.612 148.427 184.196 150.014C182.736 151.425 180.66 152.131 177.984 152.131C175.308 152.131 173.232 151.425 171.78 150.014ZM181.317 147.954C182.155 146.908 182.566 145.585 182.469 144.248C182.565 142.924 182.153 141.614 181.317 140.583C180.397 139.773 179.214 139.326 177.988 139.326C176.762 139.326 175.579 139.773 174.659 140.583C173.817 141.611 173.402 142.923 173.5 144.248C173.406 145.581 173.821 146.899 174.659 147.938C175.572 148.763 176.758 149.22 177.988 149.22C179.218 149.22 180.405 148.763 181.317 147.938V147.954Z" fill="white"/>
<path d="M189.702 151.392C189.506 151.169 189.404 150.878 189.418 150.581V137.687C189.397 137.456 189.455 137.225 189.58 137.03C189.678 136.909 189.897 136.852 190.229 136.852H191.851C192.027 136.834 192.204 136.883 192.346 136.99C192.462 137.123 192.528 137.292 192.532 137.468L192.621 138.766C193.177 138.041 193.878 137.441 194.681 137.006C195.537 136.572 196.487 136.357 197.447 136.382C198.277 136.362 199.097 136.572 199.814 136.99C200.491 137.398 201.009 138.024 201.282 138.766C201.835 137.987 202.575 137.36 203.434 136.944C204.293 136.527 205.243 136.334 206.197 136.382C206.837 136.35 207.477 136.452 208.076 136.681C208.674 136.91 209.219 137.261 209.675 137.712C210.603 138.813 211.063 140.233 210.957 141.669V150.589C210.971 150.882 210.879 151.17 210.697 151.4C210.44 151.608 210.111 151.707 209.781 151.676H208.419C208.097 151.701 207.778 151.602 207.526 151.4C207.333 151.176 207.234 150.885 207.251 150.589V141.864C207.32 141.129 207.102 140.397 206.643 139.82C206.398 139.601 206.112 139.433 205.801 139.327C205.491 139.221 205.162 139.179 204.834 139.204C204.454 139.187 204.075 139.25 203.722 139.39C203.368 139.53 203.048 139.743 202.782 140.015C202.227 140.631 201.936 141.44 201.972 142.269V150.532C201.988 150.828 201.889 151.119 201.696 151.343C201.442 151.547 201.12 151.646 200.796 151.619H199.531C199.209 151.648 198.888 151.549 198.639 151.343C198.442 151.12 198.34 150.829 198.355 150.532V141.709C198.413 141.033 198.223 140.358 197.82 139.812C197.593 139.594 197.322 139.427 197.026 139.322C196.729 139.217 196.414 139.177 196.1 139.204C195.697 139.189 195.296 139.261 194.923 139.413C194.55 139.565 194.213 139.795 193.935 140.088C193.371 140.718 193.079 141.546 193.124 142.391V150.557C193.139 150.85 193.047 151.138 192.865 151.368C192.607 151.576 192.278 151.675 191.948 151.643H190.586C190.27 151.675 189.954 151.585 189.702 151.392Z" fill="white"/>
<path d="M218.117 151.312C216.857 150.804 215.776 149.935 215.011 148.814C214.198 147.538 213.793 146.044 213.851 144.532C213.851 141.872 214.562 139.853 215.984 138.475C217.403 137.096 219.422 136.399 222.042 136.399C224.661 136.399 226.607 137.072 227.937 138.41C229.267 139.748 229.932 141.653 229.932 144.224C229.932 144.946 229.6 145.311 228.943 145.311H217.606C217.575 145.91 217.689 146.508 217.937 147.054C218.185 147.6 218.561 148.078 219.033 148.449C220.194 149.244 221.586 149.629 222.99 149.544C224.525 149.565 226.038 149.182 227.378 148.433C227.48 148.364 227.596 148.32 227.718 148.303C227.864 148.303 227.978 148.4 228.059 148.587L228.805 149.917C228.859 150.023 228.89 150.139 228.894 150.257C228.885 150.342 228.855 150.422 228.807 150.491C228.759 150.561 228.694 150.617 228.618 150.655C227.769 151.174 226.844 151.56 225.877 151.798C224.77 152.063 223.634 152.188 222.496 152.171C220.993 152.182 219.504 151.89 218.117 151.312ZM226.34 142.975C226.37 142.431 226.292 141.886 226.11 141.372C225.927 140.858 225.644 140.386 225.277 139.983C224.844 139.596 224.337 139.3 223.786 139.113C223.236 138.927 222.654 138.853 222.074 138.896C220.863 138.816 219.669 139.215 218.749 140.007C218.363 140.396 218.062 140.86 217.866 141.371C217.669 141.882 217.58 142.428 217.606 142.975H226.34Z" fill="white"/>
<path d="M232.341 150.436V149.779C232.341 148.92 232.949 148.482 234.165 148.482H234.976C236.193 148.482 236.801 148.92 236.801 149.779V150.436C236.801 151.279 236.193 151.701 234.976 151.701H234.165C232.949 151.68 232.341 151.258 232.341 150.436ZM233.006 145.57C232.83 145.323 232.746 145.022 232.771 144.719L232.592 131.785C232.565 131.473 232.657 131.162 232.852 130.917C232.973 130.813 233.113 130.736 233.265 130.688C233.417 130.641 233.577 130.625 233.736 130.641H235.447C235.605 130.625 235.765 130.641 235.917 130.688C236.069 130.736 236.21 130.813 236.331 130.917C236.525 131.162 236.618 131.473 236.59 131.785L236.379 144.711C236.404 145.014 236.32 145.315 236.144 145.562C235.918 145.752 235.627 145.845 235.333 145.822H233.817C233.673 145.843 233.526 145.831 233.387 145.787C233.248 145.744 233.12 145.67 233.014 145.57H233.006Z" fill="white"/>
<path d="M85.1805 129.878C84.6778 131.281 83.5587 131.946 82.7477 133.341C81.9368 134.735 81.5962 138.904 82.5126 140.639C83.2112 141.857 84.1927 142.888 85.3742 143.646C86.5556 144.404 87.9022 144.866 89.3001 144.994C90.4728 145.042 91.6308 144.718 92.6087 144.069C93.0643 143.764 93.4669 143.386 93.8008 142.95C94.1057 142.483 94.3355 141.972 94.482 141.434C94.4935 141.391 94.5159 141.352 94.5468 141.32C94.5908 141.292 94.6409 141.276 94.6928 141.272C95.0481 141.22 95.3822 141.072 95.6578 140.842C95.7952 140.727 95.9057 140.583 95.9813 140.42C96.057 140.258 96.0961 140.08 96.0957 139.901C96.0687 139.673 95.9876 139.455 95.8593 139.264C95.7309 139.074 95.559 138.917 95.3578 138.806C94.948 138.595 94.5154 138.432 94.0684 138.32C92.9898 137.971 91.9924 137.428 90.9382 137.03C88.8018 136.271 86.8407 135.087 85.1724 133.551L85.1805 129.878Z" fill="#FFA8A7"/>
<path d="M257.066 131.144C257.569 132.563 258.688 133.236 259.499 134.655C260.31 136.074 260.667 140.332 259.742 142.059C259.033 143.296 258.037 144.343 256.837 145.113C255.637 145.882 254.269 146.351 252.849 146.479C251.722 146.557 250.599 146.267 249.65 145.653C248.701 145.039 247.977 144.134 247.586 143.073C246.848 140.518 248.122 139.553 251.187 138.394C253.357 137.626 255.349 136.426 257.042 134.866L257.066 131.144Z" fill="#B16668"/>
<path d="M181.925 119.352C186.467 120.09 187.772 122.774 187.772 122.774H184.058C184.058 122.774 183.588 124.023 184.869 128.702C185.307 130.324 182.882 130.389 182.809 129.773C182.371 130.778 179.176 132.206 176.792 130.584C174.603 129.132 173.629 126.91 174.116 122.75C174.919 118.12 181.114 119.223 181.925 119.352Z" fill="#B16668"/>
</svg>
