<svg width="142" height="32" viewBox="0 0 142 32" fill="none" xmlns="http://www.w3.org/2000/svg">
<g clip-path="url(#clip0_4941_27262)">
<path fill-rule="evenodd" clip-rule="evenodd" d="M5.8214 16.0019C5.8214 10.38 10.3782 5.82326 16 5.82326C21.6218 5.82326 26.1786 10.38 26.1786 16.0019C26.1786 18.4229 25.3336 20.6482 23.9217 22.394L28.0513 26.5236C30.5097 23.7109 32 20.0289 32 16C32 7.16437 24.8375 0 16 0C7.16437 0 0 7.1625 0 16C0 20.0289 1.49032 23.7109 3.94871 26.5236L8.07834 22.394C6.66636 20.6463 5.8214 18.4229 5.8214 16.0019Z" fill="#0094A1"/>
<path fill-rule="evenodd" clip-rule="evenodd" d="M16.0003 15.7578L4.56641 27.1917C5.07562 27.7102 5.6184 28.1952 6.19289 28.6429L16.0003 18.8355L25.8077 28.6429C26.3822 28.1971 26.925 27.7121 27.4342 27.1917L16.0003 15.7578Z" fill="#72BF45"/>
<path fill-rule="evenodd" clip-rule="evenodd" d="M16.0003 19.9688L6.8457 29.1233C7.4575 29.5505 8.09914 29.9366 8.77063 30.276L16.0022 23.0445L23.2337 30.276C23.9033 29.9366 24.5468 29.5505 25.1586 29.1233L16.004 19.9688H16.0003Z" fill="#72BF45"/>
<path fill-rule="evenodd" clip-rule="evenodd" d="M16.0002 24.1797L9.53711 30.6427C11.5143 31.5157 13.7003 32.0025 16.0002 32.0025C18.3 32.0025 20.486 31.5175 22.4632 30.6427L16.0002 24.1797Z" fill="#72BF45"/>
</g>
<path d="M40.288 25.24C39.216 25.24 38.256 24.976 37.408 24.448C36.56 23.92 35.888 23.2 35.392 22.288C34.912 21.376 34.672 20.352 34.672 19.216C34.672 18.064 34.912 17.032 35.392 16.12C35.888 15.208 36.552 14.488 37.384 13.96C38.232 13.432 39.2 13.168 40.288 13.168C41.12 13.168 41.864 13.336 42.52 13.672C43.192 14.008 43.728 14.48 44.128 15.088C44.544 15.68 44.768 16.352 44.8 17.104V21.232C44.768 21.984 44.552 22.664 44.152 23.272C43.752 23.88 43.216 24.36 42.544 24.712C41.872 25.064 41.12 25.24 40.288 25.24ZM40.816 22.336C41.408 22.336 41.92 22.208 42.352 21.952C42.8 21.68 43.144 21.312 43.384 20.848C43.64 20.368 43.768 19.816 43.768 19.192C43.768 18.584 43.64 18.048 43.384 17.584C43.144 17.104 42.8 16.736 42.352 16.48C41.92 16.208 41.416 16.072 40.84 16.072C40.248 16.072 39.728 16.208 39.28 16.48C38.848 16.752 38.504 17.12 38.248 17.584C38.008 18.048 37.888 18.584 37.888 19.192C37.888 19.816 38.008 20.368 38.248 20.848C38.504 21.312 38.856 21.68 39.304 21.952C39.752 22.208 40.256 22.336 40.816 22.336ZM46.72 25H43.6V21.88L44.104 19.048L43.576 16.264V7.648H46.72V25ZM49.5014 25V13.408H52.6694V25H49.5014ZM51.0854 11.536C50.5734 11.536 50.1494 11.368 49.8134 11.032C49.4774 10.68 49.3094 10.248 49.3094 9.736C49.3094 9.24 49.4774 8.816 49.8134 8.464C50.1494 8.112 50.5734 7.936 51.0854 7.936C51.6134 7.936 52.0374 8.112 52.3574 8.464C52.6934 8.816 52.8614 9.24 52.8614 9.736C52.8614 10.248 52.6934 10.68 52.3574 11.032C52.0374 11.368 51.6134 11.536 51.0854 11.536ZM57.1585 25V8.584H60.3025V25H57.1585ZM54.4465 16.168V13.408H63.0145V16.168H54.4465ZM69.9494 25.24C68.7814 25.24 67.7254 24.976 66.7814 24.448C65.8534 23.904 65.1094 23.176 64.5494 22.264C64.0054 21.336 63.7334 20.304 63.7334 19.168C63.7334 18.032 64.0054 17.016 64.5494 16.12C65.0934 15.208 65.8374 14.488 66.7814 13.96C67.7254 13.416 68.7734 13.144 69.9254 13.144C71.1094 13.144 72.1654 13.416 73.0934 13.96C74.0374 14.488 74.7814 15.208 75.3254 16.12C75.8694 17.016 76.1414 18.032 76.1414 19.168C76.1414 20.304 75.8694 21.336 75.3254 22.264C74.7814 23.176 74.0374 23.904 73.0934 24.448C72.1654 24.976 71.1174 25.24 69.9494 25.24ZM69.9254 22.312C70.5174 22.312 71.0374 22.184 71.4854 21.928C71.9494 21.656 72.3014 21.288 72.5414 20.824C72.7974 20.344 72.9254 19.8 72.9254 19.192C72.9254 18.584 72.7974 18.048 72.5414 17.584C72.2854 17.12 71.9334 16.76 71.4854 16.504C71.0374 16.232 70.5174 16.096 69.9254 16.096C69.3494 16.096 68.8374 16.232 68.3894 16.504C67.9414 16.76 67.5894 17.12 67.3334 17.584C67.0774 18.048 66.9494 18.584 66.9494 19.192C66.9494 19.8 67.0774 20.344 67.3334 20.824C67.5894 21.288 67.9414 21.656 68.3894 21.928C68.8374 22.184 69.3494 22.312 69.9254 22.312ZM78.1654 25V13.408H81.3094V25H78.1654ZM81.3094 18.592L80.0854 17.776C80.2294 16.352 80.6454 15.232 81.3334 14.416C82.0214 13.584 83.0134 13.168 84.3094 13.168C84.8694 13.168 85.3734 13.264 85.8214 13.456C86.2694 13.632 86.6774 13.928 87.0454 14.344L85.0774 16.6C84.9014 16.408 84.6854 16.264 84.4294 16.168C84.1894 16.072 83.9094 16.024 83.5894 16.024C82.9174 16.024 82.3654 16.24 81.9334 16.672C81.5174 17.088 81.3094 17.728 81.3094 18.592Z" fill="white"/>
<defs>
<clipPath id="clip0_4941_27262">
<rect width="32" height="32.0018" fill="white"/>
</clipPath>
</defs>
</svg>
