<svg width="20" height="20" viewBox="0 0 20 20" fill="none" xmlns="http://www.w3.org/2000/svg">
<path d="M12.1073 7.89172L7.89063 12.1084C7.34896 11.5667 7.01562 10.8251 7.01562 10.0001C7.01562 8.35006 8.34896 7.01672 9.99896 7.01672C10.824 7.01672 11.5656 7.35006 12.1073 7.89172Z" stroke="#616161" stroke-width="1.5" stroke-linecap="round" stroke-linejoin="round"/>
<path d="M14.8518 4.80828C13.3935 3.70828 11.7268 3.10828 10.0018 3.10828C7.06016 3.10828 4.31849 4.84161 2.41016 7.84161C1.66016 9.01661 1.66016 10.9916 2.41016 12.1666C3.06849 13.1999 3.83516 14.0916 4.66849 14.8083" stroke="#616161" stroke-width="1.5" stroke-linecap="round" stroke-linejoin="round"/>
<path d="M7.01562 16.2749C7.96563 16.6749 8.97396 16.8916 9.99896 16.8916C12.9406 16.8916 15.6823 15.1583 17.5906 12.1583C18.3406 10.9833 18.3406 9.00828 17.5906 7.83328C17.3156 7.39994 17.0156 6.99161 16.7073 6.60828" stroke="#616161" stroke-width="1.5" stroke-linecap="round" stroke-linejoin="round"/>
<path d="M12.9242 10.5834C12.7076 11.7584 11.7492 12.7167 10.5742 12.9334" stroke="#616161" stroke-width="1.5" stroke-linecap="round" stroke-linejoin="round"/>
<path d="M7.89297 12.1083L1.66797 18.3333" stroke="#616161" stroke-width="1.5" stroke-linecap="round" stroke-linejoin="round"/>
<path d="M18.3344 1.66663L12.1094 7.89163" stroke="#616161" stroke-width="1.5" stroke-linecap="round" stroke-linejoin="round"/>
</svg>
