<svg width="243" height="223" viewBox="0 0 243 223" fill="none" xmlns="http://www.w3.org/2000/svg">
<g opacity="0.2">
<path fill-rule="evenodd" clip-rule="evenodd" d="M16.1817 23.6696C36.9123 -12.2367 82.8195 -24.5375 118.726 -3.80696C154.632 16.9235 166.933 62.8306 146.203 98.7369C137.275 114.2 123.673 125.297 108.216 131.241L119.364 172.845C145.438 163.945 168.534 145.924 183.391 120.191C215.972 63.7587 196.644 -8.41158 140.199 -40.9999C83.7665 -73.5813 11.5959 -54.2534 -20.9925 2.1912C-35.8492 27.9236 -39.9079 56.9358 -34.5785 83.9662L7.02549 72.8185C4.45197 56.4491 7.25398 39.1329 16.1817 23.6696Z" fill="#0094A1"/>
<path fill-rule="evenodd" clip-rule="evenodd" d="M82.0866 59.655L-33.1041 90.5202C-31.7639 95.7097 -30.0855 100.809 -28.067 105.786L70.7377 79.3118L97.2124 178.116C102.526 177.387 107.781 176.291 112.952 174.845L82.0866 59.655Z" fill="#72BF45"/>
<path fill-rule="evenodd" clip-rule="evenodd" d="M66.5599 86.543L-25.6679 111.255C-23.3354 116.239 -20.661 121.071 -17.6241 125.716L55.2298 106.195L74.751 179.048C80.2797 179.349 85.8135 179.256 91.2961 178.784L66.5837 86.5567L66.5599 86.543Z" fill="#72BF45"/>
<path fill-rule="evenodd" clip-rule="evenodd" d="M51.0371 113.431L-14.0748 130.877C-4.66575 143.743 7.50136 154.914 22.1903 163.394C36.8793 171.875 52.6299 176.839 68.4838 178.542L51.0371 113.431Z" fill="#72BF45"/>
</g>
</svg>
