<svg width="102" height="32" viewBox="0 0 102 32" fill="none" xmlns="http://www.w3.org/2000/svg">
<path fill-rule="evenodd" clip-rule="evenodd" d="M10.4679 24.9981L14.1224 21.4707C13.985 21.2777 13.8452 21.1272 13.711 20.9321C8.65307 13.579 16.4757 4.59114 24.6609 8.02957C25.8071 8.5111 26.3687 8.99283 27.2764 9.72406C27.8083 10.1525 28.7697 11.4892 29.1142 12.175C30.1771 14.2908 30.32 17.0324 29.3655 19.2352C29.0952 19.8592 28.8046 20.3994 28.4184 20.9429L28.0097 21.4574L31.6367 25.0115C32.4591 24.462 33.6989 22.1233 34.0966 21.2614C35.9011 17.3517 35.3572 12.4591 33.1723 8.92582L32.5097 7.96074C31.9785 7.24218 31.1437 6.29821 30.4757 5.75437C29.9694 5.34205 29.1674 4.72324 28.6139 4.39972C28.3823 4.26436 28.1719 4.129 27.9178 4.00372C26.2914 3.20203 25.1355 2.70235 23.091 2.42116C20.2858 2.03544 17.7858 2.48414 15.6842 3.30081C13.6677 4.08426 11.4522 5.64234 10.1365 7.29383C8.9258 8.8135 8.0922 10.1943 7.52037 12.153C6.65173 15.1291 6.78331 18.2043 7.9697 21.0973C8.17136 21.5889 8.39632 22.1028 8.65001 22.528C9.01652 23.1423 9.96156 24.6684 10.4679 24.9982V24.9981Z" fill="#0093A0"/>
<path fill-rule="evenodd" clip-rule="evenodd" d="M10.9785 25.5479C11.1225 25.7635 12.1665 26.7474 12.4542 26.8222C12.8582 26.5591 20.5916 18.7578 21.0596 18.453C21.9369 19.1946 24.377 21.6524 25.3761 22.6242C25.7036 22.9428 29.4655 26.6564 29.7202 26.8223C30.0614 26.6001 30.9387 25.848 31.1545 25.5347L21.0734 15.7575L10.9785 25.5481V25.5479Z" fill="#82C75B"/>
<path fill-rule="evenodd" clip-rule="evenodd" d="M15.3771 28.5925C15.6049 28.6441 15.7807 28.7289 15.9832 28.8077C16.1757 28.8826 16.4035 28.952 16.5976 29.0148C17.9315 29.447 19.3007 29.6818 20.673 29.7191H21.449C22.8197 29.6818 24.1873 29.4473 25.52 29.0148L26.7405 28.5925C26.6672 28.3256 24.1925 26.0339 23.941 25.7893C23.5197 25.3796 21.3177 23.1817 21.0588 23.013C20.786 23.1906 16.7312 27.1949 16.0527 27.8548C15.858 28.0442 15.4465 28.3389 15.377 28.5924L15.3771 28.5925Z" fill="#60A13B"/>
<path fill-rule="evenodd" clip-rule="evenodd" d="M13.006 27.305C13.199 27.3551 14.4459 28.217 14.6608 28.217C14.8597 28.217 17.6829 25.3583 17.874 25.1724C18.4115 24.6497 18.9086 24.1663 19.4462 23.6435L21.0597 22.101L27.3897 28.2302C27.6679 28.157 28.0614 27.914 28.2829 27.7848L29.1133 27.305C29.0463 27.0607 27.3549 25.5144 27.1413 25.3066C26.6443 24.8232 23.8011 22.1178 23.3847 21.6103C23.2951 21.5009 23.2193 21.4379 23.1145 21.3366C22.4416 20.6859 21.7579 19.9552 21.0597 19.365C20.7896 19.5409 14.3769 25.8376 13.461 26.7282C13.2902 26.8943 13.0298 27.025 13.0059 27.305H13.006Z" fill="#71BE44"/>
<path d="M51.2093 28.1935H47.579V26.076C46.9739 26.9007 46.2546 27.517 45.4304 27.934C44.6062 28.3464 43.7725 28.5548 42.934 28.5548C41.2237 28.5548 39.7611 27.8876 38.5414 26.5486C37.3266 25.2096 36.7168 23.347 36.7168 20.9516C36.7168 18.5052 37.3076 16.6426 38.4939 15.3685C39.6801 14.0944 41.176 13.4596 42.9864 13.4596C44.6444 13.4596 46.0831 14.1314 47.2932 15.4704V8.28886H51.2093V28.1936V28.1935ZM40.7473 20.7013C40.7473 22.2443 40.9664 23.3609 41.4001 24.0513C42.0337 25.0521 42.9151 25.5524 44.0489 25.5524C44.9493 25.5524 45.7164 25.1771 46.3451 24.4265C46.9788 23.6759 47.2932 22.5593 47.2932 21.0674C47.2932 19.404 46.9883 18.2086 46.3738 17.4766C45.7592 16.7445 44.9779 16.3785 44.0203 16.3785C43.0914 16.3785 42.3148 16.7399 41.6859 17.4627C41.0619 18.1856 40.7474 19.2651 40.7474 20.7013H40.7473Z" fill="#0B343B"/>
<path d="M53.582 28.1935V14.3213H57.8412L57.8697 28.1935H53.582Z" fill="#0B343B"/>
<path d="M65.3682 28.7495C63.6912 28.7495 62.4431 28.3649 61.6237 27.5958C60.8043 26.8266 60.3945 25.7378 60.3945 24.3293V17.296V14.1267V10.2625H64.8537V14.1267H68.0266V17.296H64.8537V23.8011C64.8537 24.2829 64.9585 24.6396 65.1681 24.8714C65.3778 25.103 65.7303 25.2189 66.2258 25.2189C66.5117 25.2189 66.8261 25.1633 67.1691 25.0522C67.5121 24.941 67.798 24.802 68.0266 24.6351V28.1936C67.6264 28.3975 67.1929 28.5411 66.726 28.6245C66.2591 28.7079 65.8065 28.7496 65.3682 28.7496V28.7495Z" fill="#0B343B"/>
<path d="M69.1699 20.8033C69.1699 19.5338 69.4891 18.306 70.1322 17.1199C70.7754 15.9291 71.6853 15.0256 72.8622 14.4001C74.0389 13.7746 75.349 13.4596 76.8021 13.4596C79.0459 13.4596 80.8802 14.1685 82.3141 15.5863C83.7482 17.0087 84.4627 18.7972 84.4627 20.9655C84.4627 23.1524 83.7386 24.9641 82.2951 26.4004C80.8468 27.8366 79.0269 28.5549 76.8306 28.5549C75.4727 28.5549 74.177 28.2538 72.9431 27.6561C71.714 27.0584 70.7754 26.1827 70.1322 25.0244C69.4891 23.8707 69.1699 22.4622 69.1699 20.8034V20.8033ZM73.2003 21.0072C73.2003 22.4389 73.5482 23.537 74.2437 24.2968C74.944 25.0614 75.8015 25.4412 76.8258 25.4412C77.8453 25.4412 78.7029 25.0614 79.3937 24.2968C80.0845 23.537 80.4323 22.4296 80.4323 20.9794C80.4323 19.5662 80.0845 18.4773 79.3937 17.7175C78.7029 16.953 77.8454 16.5731 76.8258 16.5731C75.8015 16.5731 74.9439 16.953 74.2437 17.7175C73.5482 18.4773 73.2003 19.5755 73.2003 21.0071V21.0072Z" fill="#0B343B"/>
<path d="M89.3517 28.1935H85.4355V13.7654H89.0658V15.8132C89.6898 14.8449 90.2521 14.2101 90.7522 13.909C91.2524 13.6078 91.8194 13.4596 92.453 13.4596C93.3487 13.4596 94.2109 13.7006 95.0399 14.1778L93.8251 17.5046C93.1628 17.0875 92.5483 16.879 91.9814 16.879C91.4287 16.879 90.9619 17.0272 90.5807 17.3192C90.1996 17.6157 89.8994 18.1439 89.6803 18.9131C89.4611 19.6822 89.3516 21.2946 89.3516 23.7456V28.1936L89.3517 28.1935Z" fill="#0B343B"/>
<path d="M55.7168 8.53385C56.8958 8.53385 57.8516 9.46342 57.8516 10.61C57.8516 11.7567 56.8958 12.6863 55.7168 12.6863C54.5378 12.6863 53.582 11.7568 53.582 10.61C53.582 9.46342 54.5378 8.53385 55.7168 8.53385Z" fill="#71BE44"/>
</svg>
