<svg width="20" height="20" viewBox="0 0 20 20" fill="none" xmlns="http://www.w3.org/2000/svg">
<path fill-rule="evenodd" clip-rule="evenodd" d="M15.8323 17.5C17.6732 17.5 19.1656 16.0076 19.1656 14.1667V6.68557C19.1659 6.67283 19.1659 6.66005 19.1656 6.64725V5.83333C19.1656 3.99238 17.6732 2.5 15.8323 2.5H4.16559C2.32464 2.5 0.832253 3.99238 0.832253 5.83333V6.64726C0.831957 6.66005 0.831958 6.67282 0.832253 6.68556V14.1667C0.832253 16.0076 2.32464 17.5 4.16559 17.5H15.8323ZM2.49892 14.1667C2.49892 15.0871 3.24511 15.8333 4.16559 15.8333H15.8323C16.7527 15.8333 17.4989 15.0871 17.4989 14.1667V7.89753L11.2369 10.4023C10.4422 10.7202 9.55565 10.7202 8.76095 10.4023L2.49892 7.89753V14.1667ZM10.6179 8.85488L17.4989 6.10247V5.83333C17.4989 4.91286 16.7527 4.16667 15.8323 4.16667H4.16559C3.24511 4.16667 2.49892 4.91286 2.49892 5.83333V6.10247L9.37993 8.85488C9.77729 9.01382 10.2206 9.01382 10.6179 8.85488Z" fill="#616161"/>
</svg>
