<svg width="30" height="30" viewBox="0 0 30 30" fill="none" xmlns="http://www.w3.org/2000/svg">
<rect width="30" height="30" rx="15" fill="#FF2B2B"/>
<path d="M20.7086 21.9998H9.29135C8.28755 21.9998 7.66875 20.7245 8.18759 19.7248L13.8961 8.72477C14.3976 7.75841 15.6024 7.75841 16.1039 8.72477L21.8124 19.725C22.3313 20.7245 21.7125 22 20.7086 22V21.9998Z" fill="white"/>
<path d="M14.6192 16.8643L14.3339 13.4817C14.3326 13.4672 14.332 13.4525 14.332 13.4379V12.4768C14.332 12.3746 14.3493 12.2733 14.383 12.1789C14.4166 12.0845 14.4659 11.9987 14.528 11.9264C14.5901 11.8542 14.6639 11.7968 14.7451 11.7577C14.8262 11.7186 14.9132 11.6985 15.0011 11.6985C15.089 11.6985 15.176 11.7186 15.2571 11.7577C15.3383 11.7968 15.4121 11.8542 15.4742 11.9264C15.5363 11.9987 15.5856 12.0845 15.6192 12.1789C15.6528 12.2733 15.6702 12.3746 15.6702 12.4768V13.4382C15.6702 13.4526 15.6696 13.4671 15.6683 13.4814L15.3869 16.8638C15.3922 16.9261 15.3862 16.989 15.3693 17.0484C15.3524 17.1079 15.3251 17.1625 15.2889 17.2089C15.2528 17.2553 15.2087 17.2924 15.1596 17.3178C15.1104 17.3432 15.0572 17.3563 15.0034 17.3563C14.9496 17.3564 14.8963 17.3433 14.8471 17.318C14.7979 17.2927 14.7538 17.2557 14.7176 17.2094C14.6814 17.1631 14.654 17.1085 14.637 17.0491C14.6201 16.9897 14.614 16.9268 14.6192 16.8645V16.8643ZM14.3848 18.4852C14.3848 18.2944 14.45 18.1115 14.5659 17.9766C14.6819 17.8417 14.8392 17.7659 15.0032 17.7659C15.1672 17.7659 15.3245 17.8417 15.4405 17.9766C15.5564 18.1115 15.6216 18.2944 15.6216 18.4852C15.6216 18.676 15.5564 18.8589 15.4405 18.9938C15.3245 19.1287 15.1672 19.2045 15.0032 19.2045C14.8392 19.2045 14.6819 19.1287 14.5659 18.9938C14.45 18.8589 14.3848 18.676 14.3848 18.4852Z" fill="#FF2B2B"/>
</svg>
