<svg width="91" height="99" viewBox="0 0 91 99" fill="none" xmlns="http://www.w3.org/2000/svg">
<path d="M46.4222 80.9204C65.9799 80.9204 81.8346 65.0657 81.8346 45.5079C81.8346 25.9502 65.9799 10.0955 46.4222 10.0955C26.8644 10.0955 11.0098 25.9502 11.0098 45.5079C11.0098 65.0657 26.8644 80.9204 46.4222 80.9204Z" fill="#0094A1"/>
<path d="M41.8603 57.2728C41.4258 57.2978 40.9909 57.23 40.5847 57.0737C40.1785 56.9175 39.8104 56.6765 39.5046 56.3667C36.3652 53.2319 33.2288 50.094 30.0954 46.953C28.7975 45.6438 28.8065 43.7366 30.0614 42.4772C31.3162 41.2178 33.2326 41.2473 34.5372 42.5406C36.822 44.7967 39.0916 47.0686 41.3461 49.3563C41.7267 49.7436 41.9214 49.7481 42.3201 49.3812C47.6189 44.4977 52.926 39.624 58.2414 34.76C59.0025 34.0601 59.8564 33.6434 60.8983 33.7747C62.2076 33.9401 63.1249 34.6604 63.5417 35.9107C63.9585 37.161 63.6437 38.2981 62.6855 39.1974C61.0071 40.7829 59.2879 42.3164 57.5981 43.8748C53.0997 47.9972 48.6019 52.1212 44.1049 56.2467C43.4322 56.8583 42.6984 57.3 41.8603 57.2728Z" fill="white"/>
<path d="M8.48595 16.5827C11.5546 16.5827 14.0422 14.0951 14.0422 11.0265C14.0422 7.95784 11.5546 5.47021 8.48595 5.47021C5.41731 5.47021 2.92969 7.95784 2.92969 11.0265C2.92969 14.0951 5.41731 16.5827 8.48595 16.5827Z" fill="#F0A75A"/>
<path d="M85.4449 69.9392C88.5136 69.9392 91.0012 67.4515 91.0012 64.3829C91.0012 61.3143 88.5136 58.8266 85.4449 58.8266C82.3763 58.8266 79.8887 61.3143 79.8887 64.3829C79.8887 67.4515 82.3763 69.9392 85.4449 69.9392Z" fill="#F0A75A"/>
<path d="M45.1227 98.434C48.1913 98.434 50.6789 95.9464 50.6789 92.8777C50.6789 89.8091 48.1913 87.3215 45.1227 87.3215C42.054 87.3215 39.5664 89.8091 39.5664 92.8777C39.5664 95.9464 42.054 98.434 45.1227 98.434Z" fill="#B2DFE3"/>
<path d="M81.5446 23.1674C82.7418 23.1674 83.7123 22.1968 83.7123 20.9997C83.7123 19.8025 82.7418 18.832 81.5446 18.832C80.3475 18.832 79.377 19.8025 79.377 20.9997C79.377 22.1968 80.3475 23.1674 81.5446 23.1674Z" fill="#E57A1A"/>
<path d="M76.8454 89.6975C78.0426 89.6975 79.0131 88.727 79.0131 87.5298C79.0131 86.3327 78.0426 85.3622 76.8454 85.3622C75.6482 85.3622 74.6777 86.3327 74.6777 87.5298C74.6777 88.727 75.6482 89.6975 76.8454 89.6975Z" fill="#E57A1A"/>
<path d="M3.26399 65.5222C5.06665 65.5222 6.52799 64.0609 6.52799 62.2583C6.52799 60.4556 5.06665 58.9943 3.26399 58.9943C1.46134 58.9943 0 60.4556 0 62.2583C0 64.0609 1.46134 65.5222 3.26399 65.5222Z" fill="#E57A1A"/>
<path d="M58.2718 6.52799C60.0745 6.52799 61.5358 5.06665 61.5358 3.26399C61.5358 1.46134 60.0745 0 58.2718 0C56.4692 0 55.0078 1.46134 55.0078 3.26399C55.0078 5.06665 56.4692 6.52799 58.2718 6.52799Z" fill="#B2DFE3"/>
</svg>
