<svg width="91" height="99" viewBox="0 0 91 99" fill="none" xmlns="http://www.w3.org/2000/svg">
<path d="M46.4232 80.9204C65.9809 80.9204 81.8356 65.0657 81.8356 45.5079C81.8356 25.9502 65.9809 10.0955 46.4232 10.0955C26.8654 10.0955 11.0107 25.9502 11.0107 45.5079C11.0107 65.0657 26.8654 80.9204 46.4232 80.9204Z" fill="#0094A1"/>
<path d="M41.8608 57.2728C41.4263 57.2978 40.9914 57.23 40.5852 57.0738C40.179 56.9175 39.8108 56.6765 39.5051 56.3668C36.3657 53.2319 33.2293 50.094 30.0959 46.9531C28.798 45.6438 28.807 43.7366 30.0619 42.4772C31.3167 41.2178 33.233 41.2473 34.5377 42.5407C36.8225 44.7967 39.0921 47.0686 41.3466 49.3563C41.7271 49.7437 41.9219 49.7482 42.3206 49.3812C47.6194 44.4977 52.9265 39.624 58.2419 34.7601C59.0029 34.0602 59.8569 33.6434 60.8988 33.7748C62.208 33.9401 63.1254 34.6604 63.5422 35.9107C63.9589 37.1611 63.6441 38.2981 62.686 39.1974C61.0076 40.783 59.2884 42.3164 57.5986 43.8748C53.1002 47.9973 48.6024 52.1212 44.1054 56.2467C43.4327 56.8583 42.6989 57.3 41.8608 57.2728Z" fill="white"/>
<path d="M8.48547 16.5827C11.5541 16.5827 14.0417 14.0951 14.0417 11.0265C14.0417 7.95784 11.5541 5.47021 8.48547 5.47021C5.41682 5.47021 2.9292 7.95784 2.9292 11.0265C2.9292 14.0951 5.41682 16.5827 8.48547 16.5827Z" fill="#F0A75A"/>
<path d="M85.4444 69.9392C88.5131 69.9392 91.0007 67.4516 91.0007 64.3829C91.0007 61.3143 88.5131 58.8267 85.4444 58.8267C82.3758 58.8267 79.8882 61.3143 79.8882 64.3829C79.8882 67.4516 82.3758 69.9392 85.4444 69.9392Z" fill="#F0A75A"/>
<path d="M45.1237 98.434C48.1923 98.434 50.6799 95.9464 50.6799 92.8777C50.6799 89.8091 48.1923 87.3215 45.1237 87.3215C42.055 87.3215 39.5674 89.8091 39.5674 92.8777C39.5674 95.9464 42.055 98.434 45.1237 98.434Z" fill="#B2DFE3"/>
<path d="M81.5437 23.1674C82.7409 23.1674 83.7114 22.1968 83.7114 20.9997C83.7114 19.8025 82.7409 18.832 81.5437 18.832C80.3465 18.832 79.376 19.8025 79.376 20.9997C79.376 22.1968 80.3465 23.1674 81.5437 23.1674Z" fill="#E57A1A"/>
<path d="M76.8464 89.6976C78.0436 89.6976 79.0141 88.7271 79.0141 87.5299C79.0141 86.3327 78.0436 85.3622 76.8464 85.3622C75.6492 85.3622 74.6787 86.3327 74.6787 87.5299C74.6787 88.7271 75.6492 89.6976 76.8464 89.6976Z" fill="#E57A1A"/>
<path d="M3.26399 65.5222C5.06665 65.5222 6.52799 64.0609 6.52799 62.2583C6.52799 60.4556 5.06665 58.9943 3.26399 58.9943C1.46134 58.9943 0 60.4556 0 62.2583C0 64.0609 1.46134 65.5222 3.26399 65.5222Z" fill="#E57A1A"/>
<path d="M58.2708 6.52799C60.0735 6.52799 61.5348 5.06665 61.5348 3.26399C61.5348 1.46134 60.0735 0 58.2708 0C56.4682 0 55.0068 1.46134 55.0068 3.26399C55.0068 5.06665 56.4682 6.52799 58.2708 6.52799Z" fill="#B2DFE3"/>
</svg>
