<svg width="32" height="32" viewBox="0 0 32 32" fill="none" xmlns="http://www.w3.org/2000/svg">
<path fill-rule="evenodd" clip-rule="evenodd" d="M5.8214 16.0019C5.8214 10.38 10.3782 5.82326 16 5.82326C21.6218 5.82326 26.1786 10.38 26.1786 16.0019C26.1786 18.4229 25.3336 20.6482 23.9217 22.394L28.0513 26.5236C30.5097 23.7109 32 20.0289 32 16C32 7.16437 24.8375 0 16 0C7.16437 0 0 7.1625 0 16C0 20.0289 1.49032 23.7109 3.94871 26.5236L8.07834 22.394C6.66636 20.6463 5.8214 18.4229 5.8214 16.0019Z" fill="#0094A1"/>
<path fill-rule="evenodd" clip-rule="evenodd" d="M16.0003 15.7578L4.56641 27.1917C5.07562 27.7102 5.6184 28.1952 6.19289 28.6429L16.0003 18.8355L25.8077 28.6429C26.3822 28.1971 26.925 27.7121 27.4342 27.1917L16.0003 15.7578Z" fill="#72BF45"/>
<path fill-rule="evenodd" clip-rule="evenodd" d="M16.0003 19.9688L6.8457 29.1233C7.4575 29.5505 8.09914 29.9366 8.77063 30.276L16.0022 23.0445L23.2337 30.276C23.9033 29.9366 24.5468 29.5505 25.1586 29.1233L16.004 19.9688H16.0003Z" fill="#72BF45"/>
<path fill-rule="evenodd" clip-rule="evenodd" d="M16.0002 24.1797L9.53711 30.6427C11.5143 31.5157 13.7003 32.0025 16.0002 32.0025C18.3 32.0025 20.486 31.5175 22.4632 30.6427L16.0002 24.1797Z" fill="#72BF45"/>
</svg>
